<mxfile host="Electron" agent="Mozilla/5.0 (Windows NT 10.0; Win64; x64) AppleWebKit/537.36 (KHTML, like Gecko) draw.io/26.2.2 Chrome/134.0.6998.178 Electron/35.1.2 Safari/537.36" version="26.2.2">
  <diagram name="Page-1" id="GA8qclIgnD5epNWV-Qlr">
    <mxGraphModel dx="3675" dy="1602" grid="1" gridSize="10" guides="1" tooltips="1" connect="1" arrows="1" fold="1" page="0" pageScale="1" pageWidth="850" pageHeight="1100" math="0" shadow="0">
      <root>
        <mxCell id="0" />
        <mxCell id="1" parent="0" />
        <mxCell id="VKCgRyMsW_sbwXQrN_D4-1" value="" style="rounded=1;whiteSpace=wrap;html=1;fillColor=none;dashed=1;" vertex="1" parent="1">
          <mxGeometry x="-250" y="170" width="590" height="500" as="geometry" />
        </mxCell>
        <mxCell id="VKCgRyMsW_sbwXQrN_D4-19" value="" style="rounded=1;whiteSpace=wrap;html=1;fillColor=none;" vertex="1" parent="1">
          <mxGeometry x="-185" y="240" width="410" height="310" as="geometry" />
        </mxCell>
        <mxCell id="VKCgRyMsW_sbwXQrN_D4-2" value="开发笔记本电脑" style="text;html=1;align=center;verticalAlign=middle;whiteSpace=wrap;rounded=0;fontStyle=1" vertex="1" parent="1">
          <mxGeometry x="-230" y="130" width="90" height="30" as="geometry" />
        </mxCell>
        <mxCell id="VKCgRyMsW_sbwXQrN_D4-3" value="笔记本配置的 JDK 是 JVM 1.8" style="rounded=1;whiteSpace=wrap;html=1;fillColor=#dae8fc;strokeColor=#6c8ebf;" vertex="1" parent="1">
          <mxGeometry x="-185" y="590" width="470" height="50" as="geometry" />
        </mxCell>
        <mxCell id="VKCgRyMsW_sbwXQrN_D4-4" value="" style="rounded=1;whiteSpace=wrap;html=1;" vertex="1" parent="1">
          <mxGeometry x="-150" y="300" width="340" height="220" as="geometry" />
        </mxCell>
        <mxCell id="VKCgRyMsW_sbwXQrN_D4-5" value="Idea project" style="text;html=1;align=center;verticalAlign=middle;whiteSpace=wrap;rounded=0;fontStyle=1" vertex="1" parent="1">
          <mxGeometry x="-150" y="270" width="90" height="30" as="geometry" />
        </mxCell>
        <mxCell id="VKCgRyMsW_sbwXQrN_D4-7" value="Project JDK 是 1.8" style="rounded=1;whiteSpace=wrap;html=1;fillColor=#dae8fc;strokeColor=#6c8ebf;" vertex="1" parent="1">
          <mxGeometry x="-120" y="440" width="280" height="50" as="geometry" />
        </mxCell>
        <mxCell id="VKCgRyMsW_sbwXQrN_D4-8" value="" style="shape=image;verticalLabelPosition=bottom;labelBackgroundColor=default;verticalAlign=top;aspect=fixed;imageAspect=0;image=data:image/png,iVBORw0KGgoAAAANSUhEUgAAA4IAAAFaCAIAAADEmXRdAAAgAElEQVR4Ae29DZAcV5XnmwyMrI8ZbAIbEMYRGGw5EB5gnz+6FbMR781GsDEbj53YeTHL7MzCvGGrn4bZsfcNAwu7YGT5YS90t603g2SEgZldwDYgZNztXjeGsRGGh20xarmlFm13qT22Wx+23LI+urqrqkuW+s29N+/JkzdvZmVlfWRW1r+jQ7p189xzz/1l5q1/n3uzyjly9FilWsMvCIAACIAACIAACIAACHSSgHPmbKmT/aEvEAABEAABEAABEAABEKhUaw4ogAAIgAAIgAAIgAAIgEDnCUCGYkMCCIAACIAACIAACIBACgQgQ1OA3vm/NtAjCIAACIAACIAACGSNAGQoZCgIgAAIgAAIgAAIgEAKBGLJ0NW31Br6zZrWRjwgAAIgAAIgAAIgAAJZIxBXhjqxf1bfkoKazhpWxAMCIAACIAACIAACIBBNADIUohkEQAAEQAAEQAAEQCAFAo3J0Oeff/78+fNTU1OO47ztbW978cUXg0lSZEOjhT+OggAIgAAIgAAIgAAIxP3c0NW31JTc/LVf+7VSqaTKzcvQkQIXsf2Dh5bjn5Ly6IDjNNYkwnm5MubF0jc8VWkgkgi3OAQCIAACIAACIAACIBBGoLFsaMtlaN/QtIqstbLSOlrRRWEseEhpUIpkamhACeIw+6CH6JpW+YnuBUdBAARAAARAAARAoLsIJJeh733ve6enp3k+U5XjL8qPFBwSf+XK9GCf97IdEMPkYPnQcJ8zMBLIgIbZNxpbq/w02i/sQQAEQAAEQAAEQCDLBBqTobQ39JZbbjl+/PjHPvax1srQwuiy1KP9g6PDfcK1UIdKobod6RVzmcJ0tSNfUi+MuuvpvlbOwM7BfgqVbNSJMbKhqnJqyGdvRPVg+aECU65caEb3y8OuVGvU0PAvR+3tEzACzvL1hNhAAARAAARAAARAICaBxmQoKbmIQrJsqJR9THR6clNkSWkxXZjJQ6TnlOxTWVVZKTaMulpQL8FPDQ0LYReyKC/koEiIuqqXwHF716EX1ZhVhtbtl8JWvVAXAf9ebpgGRYGhAAIgAAIgAAIgAAI5IJCyDGVyllKbQoFR/s9YMZdyTQlNVwgKJafVYaVaUwv9opJlK9V5Is0XdtrUI1PePgEmW5VM9KISjzS5AfuSmvX6jZahnn/boMLCRj0IgAAIgAAIgAAIdCOBlGUoaT5iR0JT1Rgqk46SnpOKk6lZR2wwNVp5rnR+lLozCiotquQgl63Ur+sqQoYyTRzsl8I2Dpn+hZz1/QRBGZHjJQiAAAiAAAiAAAh0F4FukKE87yieZIrKhir6yWUoe1IqZRkakLPddWEhWhAAARAAARAAARCIJtCYDF3x//jydfpFsr2hFKWZF5S60Lc3VGY0Ka0oC+Yj9kZl9N7Q8qHhAn1ulNgk6n4caaQM5Xs3vd2rdfuVo3OjVWU1tMCoxfNJyIDSVYECCIAACIAACIBA/gg0JkO11Iz6v7UyVOy8tH22vKyk7aTeQ+W0JTTYimpoC6Y6nVSvRkVHqd57fp99wL5+qskRn6I/5H0iKbUS3mRGk2rctX73cShfQ0OGmqNm+eD8XYIYEQiAAAiAAAiAQG8SSFOGNkNcajvvIaFmXKEtCIAACIAACIAACIBA5wnElaGrb6nF/+3AMMQnN9V73qgDYaALEAABEAABEAABEACBZARiydBkrtvUSn+wPFKhtTYRhlsQAAEQAAEQAAEQ6ACB7pOhHYCCLkAABEAABEAABEAABNpNADIUOUUQAAEQAAEQAAEQAIEUCECGpgC93X9bwD8IgAAIgAAIgAAIZJ8AZChkKAiAAAiAAAiAAAiAQAoEIENTgJ79v04QIQiAAAiAAAiAAAi0mwBkKGQoCIAACIAACIAACIBACgQgQ1OA3u6/LeAfBEAABEAABEAABLJPADIUMhQEQAAEQAAEQAAEQCAFApChKUDP/l8niBAEQAAEQAAEQAAE2k0AMhQyFARAAARAAARAAARAIAUCkKEpQG/33xbwDwIgAAIgAAIgAALZJ+DMnzyDXxAAARAAARAAARAAARDoMAFkQ/OTDZ0/eSb7f/cgQhAAARAAARAAARBQBCBDIUPzQwB3NQiAAAiAAAiAQBcRgAzNjwhDNrSLbjyECgIgAAIgAAIgABkKGZofArifQQAEQAAEQAAEuogAZGh+RBiyoV104yFUEAABEAABEAAByFDI0PwQwP0MAiAAAiAAAiDQRQQgQ/MjwpAN7aIbD6GCAAiAAAiAAAhAhkKG5ocA7mcQAAEQAAEQAIEuIgAZmh8RhmxoF914CBUEQAAEQAAEQAAyFDI0PwRwP4MACIAACIAACHQRAcjQ/IgwZEO76MZDqCAAAiAAAiAAApChkKH5IYD7GQRAAARAAARAoIsIJJShR44cW1yqtHaci0uVI0eOtdZnT3lDNrSnTjcGCwIgAAIgAALdTiCJDC0enn3qqafaIUOfeuqp4uHZbmeaVvyQoWmRR78gAAIgAAIgAAIJCDQsQ5UGLS0uJeisbpPS4hKUaF1KYQaQoWFkUA8CIAACIAACIJBBAo3J0LZqUEUHSjTxVQIZmhgdGoIACIAACIAACHSeQAMytHh49rHHHpuefqZYPGz9/cfnX4g/gH98/gWrk2Lx8PT0M4899hhW5+PDVJaQoY0Sgz0IgAAIgAAIgECKBCBD8/OcOGRoijcSugYBEAABEAABEGiUQAMytFKtYVG+Ub6dtIcM7SRt9AUCIAACIAACINAkgcZkaLuVKDaGNnM6IUOboYe2IAACIAACIAACHSbQsAwlJYoPbOrwqarbHWRoXUQwAAEQAAEQAAEQyA6BJDK0Uq3h4+uzcwopEshQQoECCIAACIAACIBA9gkklKHZH1gPRggZ2oMnHUMGARAAARAAge4lABmKJ+XzQ6B770NEDgIgAAIgAAI9SAAyND8iDNnQHryBMWQQAAEQAAEQ6F4CkKGQofkh0L33ISIHARAAARAAgR4kABmaHxGGbGgP3sAYMgiAAAiAAAh0LwHIUMjQ/BDo3vsQkYMACIAACIBADxKADM2PCEM2tAdvYAwZBEAABEAABLqXAGQoZGh+CHTvfYjIQQAEQAAEQKAHCUCG5keEIRvagzcwhgwCIAACIAAC3UsAMhQyND8Euvc+ROQgAAIgAAIg0IMEIEPzI8KazIaWK9ODfY7/p3/w0HKjd0W5MlYQXpK0bbQv2IMACIAACIAACHQvAchQyFCXgE2GJlGTzcjQqaF+x3H6hqa7945C5CAAAiAAAiAAAjEJQIZChpoyVKlArSY7JwpJB0OGxrx7YQYCIAACIAACXU0AMhQy1C5DK9XaiFxcdwpjJBALo3LBvW94qiIW610DtZBfGFN3gtav3qI8M/MqjeY3Do77twQMdPV9heBBAARAAARAAATqEoAMhQy1y1CtJkU2lGSou3O0b/hg+ZBfNcojUp7qhkJxmg31ntFgPWRo3XsVBiAAAiAAAiCQMwKQoZChpgx1tab738BIhalJSnmODsjjbnazfGhYPd1UGF32yVDXTDih9KfQtf7m6qYibYpF+ZzNMhgOCIAACIAACFgJQIZChobLUL34TgKxMOo+OK+eJXJsBjYZ6lO2fUPTRnN1aVIvkKHWexWVIAACIAACIJAzApChkKGmDA2qQBKIJEN1OtNNc+psqFqI9z6wyTCjm0fX62RqZWyQLf0HA6CGKIAACIAACIAACOSGAGQoZGgiGWr5kFFHJUd92VD3M0RZNtTdP2p+RqmSnuxhJjyilJ8rMzfTJQYCAiAAAiDQWgKQofl5s2/Vx9cHk5HBbGilWqNKV2PStlH/x9ebZoF1fNVc5Vl1VtVxHMjQ/FyZrZ2z4A0EQAAEQCA3BCBD8/Nm36QMbdU1raWku17fKrfwAwIgAAIgAAIgkDMCkKGQoS0j4Et86qxnzm4YDAcEQAAEQAAEQKBVBCBDWybCWnVKEvtJPRvKZChSofm5rhJfkGgIAiAAAiAAAtEEIEPzIxdSl6HRlxqOggAIgAAIgAAIgAAnABkKGZofAvzKRhkEQAAEQAAEQCDjBCBD8yPCkA3N+M2G8EAABEAABEAABDgByFDI0PwQ4Fc2yiAAAiAAAiAAAhknUF+G0iePr1q1asOGDVu33rZQWkowqhtuuPGGG25M0DCiSWmxvGXLrVdfffXq1asvvfSyD33oQxHGdQ+1I8K6nbbQANnQFsKEKxAAARAAARAAgXYTaECGkh797OduSRDWjTf23XhjX4KGN91081VXXWVtuHnzn1FUqmA1o0rDlfEycYTkP90CZGi6/NE7CIAACIAACIBAQwTiytBKtfbyifmtW29zHOdd73pXQ300aRyhL9etW+c4zk/2/HShtHRw6lcf+chHo/syXBkvo9tm/yhkaPbPESIEARAAARAAARAgAg3I0Eq1Nn/ylOM4F110kWqvZNxjP9lzzTXXrF27Vn7B4/KOu7+ycePGtWvXbtiwYfjOu5bKVW5MHX9/9w+uu/76devWvfOd7/z0Z/7LmbMldWjPTx//4Af/5Vve8tZVq1Zdc801qgv6l5qrwtvett5xnE9+6j9TczII+icn1kKlWlP1yoMq//jvH71c/jw8/kNVv1Su3nrr1iuuuOLNb770m9/8NjV5evLg7/7uv7r4kkvWrFlz7bXXUhidLECGdpI2+gIBEAABEAABEGiSQAMy9MQrJ7dsudVxnI0bN6pelQhbv15oQccRrv7my9tVmf4dvvMubqzKX//G35KBKnzirz5ZqdZ27dr9ute9zjjEXxqjHRoaVkfXr1//jb/9Ozpq9c/9BMtWGXrFFVcoy/d/4APK+Z13baO2KherBr5x40aqVzUUTMcKkKEdQ42OQAAEQAAEQAAEmicQV4ZyjXXvvferjlXlxz/+5y+fmH925nClWnvPe97jOM6Xt+84dfrs177+DcdxNmzYwI1VWaU57/7KztNnFn74yI8cx7n88ssr1dpv/dZvOY7zH//jX/zj8y+WK8vBhqqG//vtb9935ZVXqki++MUvRftXZtQ84qU6tOv7Dzzyox87jrN69WrVSsnNL37xS6+eOvOtb91LHt74xjc6jnPLLZ9/ce4I+e9wATK0w8DRHQiAAAiAAAiAQDMEGpChF19yyW//9j+n5WlKH5545SRFsHbtWsdxTp0+W6nWTp0+6zjOunXr1FFSbJVqbdWqVeol/7dSrf36r/+64zjcIfVCXQQLi0uV//rZzzmOs379enU0zD+PIeiZH1XlpXJ1qVzl9WvWrHEc59VTZ9QOhDe84Q0q9/nXf/Pliy66yHGcVatW7bj7K8EgO1ADGdoByOgCBEAABEAABECgVQTiylBrf1yfKYN/+kQnx3G+svOrp88s7PzqPY7j0EZJbvzud7/bcZy/++//QwlWcq4WwT/xV588cvTY3JGjH//4n5NY3DfxNJlR4V//3u89+eTeM2dLP338Z47jqP2plWotzL+KgVxZXyrnPFpevvzyy9UAT50++9V7vsYPzR05+vnPb3Ec5+KLL6YIO1novAwtHxy/7Y4dW3c+eVSnruuOt1x5dtft9z16zE1117Vv1ED6377rYIv9JxhpdOTEgQrR9smORjuPPpqsx8StiPCR8rO7bm/9GYwILFMcIuLM1CE6X/Hv/ZbE37GTFd1R9NGWjJQ76XB3vGuZcImatNONzQg1Cy8bAtKQcRZG144YWixDh++8Sykz+nfnV+9RcXPF9oUv3E4GvP6ubf9vsF4pP25GIAzjP/7jf68Ohfk3XBkveRdh5Ztuupk6fetb30ZmVOk4zvve9z6KsJOFJmWovB+233bHDvW7tZ5YLFdOPLqzYblAdx0VkiHizXk5mbfoVslGWs+nO7O3Nfho59FHo+M3jipE+soZPxD7zxLlpx2EjQiNl3zsvGyY5eZla8fY+fNFJ6K1AyG3wUJ0R9FHg94S1PAueDmBqyabRPcefbTJrruxeUNAGjLuRhpxYm6xDF0qV4fvvGvDhg1r167duHEjLU8vLlUcx3nd616nYlpcqtxxx3+7+uqrL7roossue8u/+f3fp1jvvff+/+W6637jN37jzW++9A//3b/7pw2jD/zgwauuuur1r3998NGfP/3Tj61fv37VqlVvf/vbb7rpZrVWXqnWwvwbroyXpCkpBaui4vXzJ0999KN/csmb3nTllVfed993HMdZs2ZNpVq77vrr165du27dut/5nX/x9ORBGk4nC62QoV6eUmU7ItKKye4fakWFZIh4c15O5i26VTv8k08qRMeQ7Gi08+ij8XuUfrbfveeEalI+9uSjDWajWxVJgzG7V3vne48fZ6ssWzvG1npraIwd6zq6o+ijDY0ozJh3wcth9u2rj+49+mj7osqs54aANGSc2SE3GVh9GdpkB6r5Az940HGcd7zjHS3xlgUnL84d+bcf/rDjOC3/aqjEo2utDBVrMQfHacGd0l0qSypvHjd1unX3s8qYMqlKvPIbjMqq8Pe/euLu233N+aiVAhbL/be7eTWz92NPUvNb732Yylt3P2t09OhB15Lr6QO73a7v3vMk7RAIdqpCkg7NUMkD4yOzm7I7qqRBkfPb7thhwKGAydhbBWPBkwfrQIweKTwaIO+FylSQPYrctmRu/inCTwQPksoHdnsalCpVgSKhCN1O+dDEPg2PMI+qUq2Rh1hjYfyNa4YHVmbXj3fN6JA8PS3z/XWZRHQUPJV0SUfdMnwUct+LurN8V46OdtfB5eC1YYRkjNd6uvl5USeL3PKY9Yi88xXnRNPZp7NgRKjqqUe6TQznd+85weO87Y4ddLKYZ+9OVH7IbSfvHYrHGAKhMAbCYxOQm7hEqetgF+miMOLh1xUFFn7q2VxtuzFp1NY7i1fyflUrIzA6F/arNKT34EwlbxbLvGqd1nj8vVbuhAylBeub/9P/nQO+NBxV2LVrd0YG1XoZyvZxHti93ZWbx568W24GdW9ductT3K673R2iQrxK+eg3MNeg+VEOUNabq7r1enedy9ued7Sd3lBp6jm65z56JxBluffA2ilFZYTKPXiBSS1FnqmtOxOFwzGcq4ay0gteKCGt9a0DoTAq1RoPzz9AM/nHuyYP4v3PO7/mieDjYqHazXgknn8GKvpSaXwsLjEVmNejHhEPno/doE2Egx6kpTnYoFmgIy8wYhJ+y3jGdW3Um3fw2giGxMer3gVttzPv+tld+o9APhxVNrzRoHye2YkOerBFaJlD+DVQrpw4cFDJUDdOun64f+NspnLv8Hj4EML4hA+E37OWUQcx8q6zhoLHw7FYr3Nu4Jb1PrF6o7ZcSLJr884lVjwwfi6sHVkr+S0gypGhhhlTPL1W6JAMvfTSy/7DfyicfPV0Dvhed/31a9asWb169XXXX/+9730/OyNqnwyVdylNiCce3SnKvJJDoHoqBNRhrObk0+/H0rvfgMtQitlSaY2KOuUFq39lIA+J2Y3b8LZGmcyCBW5JR3mQvMwNdL0lDDKjgjb2nQL/UQthHptRlmkby/zOfepOzQjJhgra0hee6pFsqBDHWNq4I+KRW52EORRvkyHXvN9PnY64f2sw3Bs34A25jbXsr7REXteAd2eEoV76PXh/BOqG5ok2nPibR0HjlnW7jjYgV1Rg9paAyYwKenS+i9N/NGosEd1xJ8qM9xVW5q3oEqXmYa14Pfeg6zuMwp2iKWwKiQqMm4+8DNgCnFzpEZmtuIHhPKwJ4eVRWSsb8sCNg1H1Tk0nZGjv0Ex3pO2RoTQructwtEbJb0j11yotyrMUozvLkHGwEIQmbUR3bBUyqnfyye/q8EoxItVpwMbrlEcVMLN44Da8rSof3XNfGBxrQ15pLcvKsDDC6qPPhUlYw7QzoTEakYTV0yiooP2bbxJkYHj214eORQUgjS0j8odnOgmEZPFAniMuTuqFO9SBeW+cEVcFeYi2ISa8I4pQXXIhN6M5NO5Kh+pulqA1SoqKG8tynUuOGhqeeYThc4jnnA/TKFMXgdjMsxwZsNcX+aEC75EqZcGEScHoJnHdBhqawWuHoj5e13U9hMUWVm86bBCF21wOpO69EBZDFHDrhaS5iYYxrudQvFbmsjJuqGHG/NT3WhkytJabU95yGSrWDtRaMFudJ1w0+4g73LeL1JJ6JONggRwahWhLOqrnl9DJkRvwVryeujYMVD2v5GXtQUxARj05FDaRcKwNeaW1zCsjwiAzKmhjmmd9BR42lXlbqqSCTAlYPjDBaCVfmqDIhgrW8FRfZEOFOMYUp1GwOolwGNac+zFs1EvDQL6UHCKvCrdtPRvunMpU4PHwSl4mG2slB0KWRqXRUL40TzRvazSnQ9G3iWfG5iKja2XDK61lXqmDsQRMZlTQxr5bhh+lIHnBMJAvze4Mm2QD4Z0m82CNzTpqa6V1FDwqw8Drrt51bu2Oe+Zl64VEBkYMqp5XUpkK1JaHEVFJDakQx5jb9FoZMhQy1CVg3DN8gwvf0kR3CLfndz41VAJFPUPAKi0ilXzyAtc3tB2HDHy9296Zwgy4K1HWm3iUZ96ptS8Xhf6oVPLGu6OGrk82ycbkwL2FlUXXgTCMM0UDjD4XRiszfrklXzwKwzhzG7VDkXIM9KS8NULuhMpUMCZ6wutG6G7kFbv+w64rCoy3pUoqhPXI6yM88OskwkwPx91XzTmH3DL+Be7IK0c7N/8A471YxxvHgDW0fC4bp+R6C1yKhg05VIUgNCsQHirbG2oZMvnn/YaVRe+BgHlfbjne9RYcCwXjDTbQXVhs1DbMgNdHd80tw8qdRCFjiHsvhJ0Oo55wUSHsQlIG/M71mrCZjYOy4q1bKQz020p8Y94vBdYjhSgZWiqfe+GV888cXTk0h9+UCTxzdOWFV86XyucirstWZEPZYoeeN1WPagZxF9HkIX7bqHtbHaUnmsXbpH7Olyp5K7XgqBKuNC7eET0Gyyvp/YM3pzL5p0Lg3dp9dFGuznBN7I6dOvWH5L7zqUp6KJKC4d1RQ1WwwiF7KvBWvDKsrKZjfkaC3e066Mma6HMhe3EJqEHxGsWER8KjFYT5g73syokGRQ6pEOdk1b2uNAf2AD4LiSIPXjOB3k0PQSa6iQ8ddaGP3vfoHvFFD2JDi44k+qrQQ/CuVesdFM7NjJxWKtn6hi9m7kqH3a47wvCvrzfLYKWlV2/8LWTErKGxaz5EXrT73uEXgCrHvBGMhgkuUe6B8wkrdxKFG0O8eyFw6o3T6rt6/aP2Lhj/XRPreg6AMjuSBsFKr1PfrCuuwFjGvF8+nF4oh8rQUvncNARoxvT39NGVCCXapAzthcvdGGPY4zWGGV5mgUCXnqxefnfJwmWDGLJDoJl7oUtv/+zAz3IkoTL0hVfOIwmaQQIvvHI+7HqCDA0jY61X6SgjF2u1RGXqBLr3ZDXz1ps6dgQAAi0kkPhe6N7bv4X0cuwqVIY+c/RCBkUYQnrm6IWwyxEyNIwMr6fVMfpAQX4U5UwRyMHJSvzWm6kTgWBAoHkCjd4LObj9m4fWCx5CZSgEX2YJhF2XkKFhZFAPAiAAAiAAAiCQQQKQoSk/e5RA7IZdRpChYWRQDwIgAAIgAAIgkEEC6cjQnX/EvxFz06cfb0ALTn1rs+M01iSB1Mtyk7DLCDI0jAzqQQAEQAAEQAAEMkggNRn6/i1FJfU6ICtFF380nmVl2VBsYZcRZGgYGdSDAAiAAAiAAAhkkEAGZOiLxU9f55AqbUiQxTSGDM3glYeQQAAEQAAEQAAEepxAVmToH3xrZUro0U2f/ta294sV+807X1Q1evn+um0PvyjW7qdeHP8DeVSXXYM/+Ja7si/96FbO5q2f30QvyCamfs2mWdgli2xoGBnUgwAIgAAIgAAIZJBA+jL04S2bfKLTk5siS0qL6cJMHiIZquSmSqPKSrFh1NWgegn+4S3bhJzFonw1P99ZmsG7CCGBAAiAAAiAAAgkIJCaDKUMpdKgMrUpdCclLKce3/Z+nfXUR5XQdLOhQlxqzXpobmXnH4mVfVHJWql0JmRogisDTUAABEAABEAABECgrQRSk6HBzaDuorx+at5QmXTUy4YKxen7cWUo06aQoW29euAcBEAABEAABEAABBITyLYMZXlNuwy1Kk5rpV6mz+Z2z4aiCjvZ2BsaRgb1IAACIAACIAACGSSQYRkqn6D37Q2VUtLLhopnlcxH7OVRrxJ7QzN4zSEkEAABEAABEAABEKhUa9mVocaD8LQNlGSoaaBTp0qJuqv1MjNKNbTxtKHsY9aMwy5cZEPDyKAeBEAABEAABEAggwRCZegzRy9kTX6peLgMzWaEbY3qmaMXwi4jyNAwMqgHARAAARAAARDIIIFQGfrCK+fbKqcSOxef3JSjjZ6NcnjhlfNhlxFkaBgZ1IMACIAACIAACGSQQKgMLZXPTR9t4KveG5VTCezlJ4y6n2yfoHkOmkwfXSmVz4VdRpChYWRQDwIgAAIgAAIgkEECoTK0Uq2VyudeeOX8MxkTozlQkwmG8MzRlRdeOR+hQSvVGmRoBm8whAQCIAACIAACIBBGIEqGhrVBfTYJQIZm87wgKhAAARAAARAAASsByND8fMslZKj1EkclCIAACIAACIBANglAhkKG5odANu8xRAUCIAACIAACIGAlABmaHxGGbKj1EkclCIAACIAACIBANglAhkKG5odANu8xRAUCIAACIAACIGAlABmaHxGGbKj1Ek+lcqFUnpmdmzhQ3LtvGr8gAAI5IzBxoDgzO7dQKqcyvaBTEMgTAchQyND8EMjInblQKk9MFo8dn6/Vzq3gBwRAIHcEarVzx47PT0wWoUQzMusijO4lABmaHxGGbGhG7sOZ2bljx+dz986LAYEACPgIHDs+PzM7l5FpB2GAQJcSSEeGjhQcxxkYqSwb1MqVsYLj9A1NG/URL8uHhvv6hqcCrjSsMvUAACAASURBVKiJ9GnpiwxyU4AMzcip3D9ZXEYe1Pd+jRcgkEMCy7Vz+yeLGZl2EAYIdCmBFGWoRW5ODfU7kKHVhAlayNCM3IR7903n8C0XQwIBEAgQ2LuvgaRJRiYohAECmSKQmgwtFAYcfxZTpi37C4V+ZEOTXSKQocm4tbwVZGjgzRoVIJBPApChLZ8/4bDXCKQnQ0enB/ucwqi3Li9SoYWxqSFPhpYrwsb9YZpVrd2r+sKQuyhvLL6XRwecwlilWuP1voa6a5WCld66e+0eMjQjdy9kaD4VB0YFAgECkKEZmXURRvcSSFGGLgulqMWlVJz9g4eWSYa6GlRKyUq1JsSiNFb1lDEV20zd+rEC228alKG8odSjojuxtVS3Ko+OBberdtGphQzNyMmCDA28WaMCBPJJADI0I7MuwuheAqnKUJnsVAlRkqSeDGUCUSY1pwf7TOEo6vUjSjzrKeoD2VDqQp2tkYLYnCplqHDbvaeQIocMJRTpFiBD86k4MCoQCBCADE13skXvOSCQpgx1c5yFMZWnVHrUk6EsV+qToUZ9QzJUr/Cr/1VKVSpRUcF3CHTjqYUMzchZgwwNvFmjAgTySQAyNCOzLsLoXgIpy1B3cXzIW533yVC9XG7KUF6vVWmj2VDjnMnm3a1Em5Sh7i4IxpYnlQ1ceBlBoJ4MLW7bJP7s6b/r65udzeMrKyvjmx1n07ZixPt0cdumaIOIti06VCfIcXcsLeoNbkCgKwhAhkbMhDgEAnEIpCxD3YQoy0R6MlQ9n8T3hnqPHLkf9uQqp8CeUbfesxfPHimhSZtKFZ3y6IC7K4DtEIgDLoM2LZKhjnq0i/jwlxkcdQZDipahQoRK8Snlp1uq944bW4bGVIMxzeqFxY633iNzjiIIZJQAZGgGZ2CE1F0E0peh/CEhpUpJKSrh6C6k64eZRIpObBtVP/2Do97H1/vqh+o8Ka8+P5818cmv7jqLKtqWyNDC6FjB8TbL0hbbbgSSVsx1ZahObMaXbpChGVUhCKvHCUCGpjXNot/cEEhHhuYGX6YG0iIZKj6swPsEA/2kl7tAT+pfPtQls87yLwFVL7b5iu/Bkj/ep1+xSnfbg1T/ntjNFMbmg4mQoWo5XgH6vx4mGUoFJTfF+rf8oVwpk6HyoBayPg3gLvZ7LcmtNNOvAmYrKyusznMtOx1XIW9+WGwd0PFQgN5eAnbUFxRegECeCUCGNj9hwkOPE4AMTfiVRRm8blolQ9WWBu8TDPS+iJEh90tT6TMH/JsilAB1xaX6FFi9qZc2Ubip1p6VoUrxaaVH0o0KSg56a/Za+GkZKo7r1tY3d/Ikjvpe+F75jshOtcJkPch6rzevzfg2vZF1fLMOxztqjQuVIJBLApChGXwrREjdRQAyFDLUJWCqT/msknVRXmY31XZb91O01EVP+3rdjRNqz65+hkzZqM/J6q6bpNFoI7KhMWSop/tEjtJ9RYlJdtT6ru5Tg74XoTJUqE0tQoVP6tU44Pfm9k6VVLCGhUoQyCcByNBGp0fYg4BBADIUMtQiQyvVmvu5qnxR3tuS67g7a8VzXd7aeqgMdZeY3f9o769xLebmZXtkqKDnF6He0rh3wKcGfS9CZaiX0VRCgctQ3iHzJvOk+qwqCcuO5lNvYFQgYCEAGZqbeRsDSYsAZChkqF2GypRn/yA96TU6oKSnXGd3v7DK3RuqP/w/VIayx8vSutA72W97ZOimbUWhO7kwtLwr+tSg70WUDA3NhvLetDcRBWVPdaXPuyUuVIFALglAhnZyakVfuSQAGQoZapeh+gtU+/vU516xtXWx71Mt2cfJhsqHlowMKPaGyrfkoIajTKQ87r2iUj0lSi6FA5G01EJSJjCD6lGbkbBkK/HUqQyGhCbLnjKnvo5VA/wLArknABmaS2GEQXWSAGQoZGioDHWfQHI/fnV6UH9KVt/QcCG2DNXZU72EqxqK9X1vNb+TV3wH+mpbNlS+p0vpR+oy8DbvrtS7glMZq/X8bd6T7uoT8x0vq+m28i/8h8hQ9lj9pm3kFDI0cCpQ0QMEIEM7MKOii3wTgAyFDM0PgYzcq9EytAfemjFEEOgVApChGZl1EUb3EoAMzY8Ia/IDm7r3Is5a5JChvaJBMM6eJwAZmrXpF/F0HQHIUMjQ/BDIyO0HGdrz4gQAeoUAZGhGZl2E0b0EIEPzI8KQDc3IfQgZ2isaBOPseQKQoRmZdRFG9xKADIUMzQ+BjNyH+yeLy7VzPf8GDQAgkHMCy7Vz+yeLGZl2EAYIdCkByND8iDBkQzNyE87Mzh07Pp/zd2AMDwR6nsCx4/Mzs3MZmXYQBgh0KQHIUMjQ/BDIyE24UCpPTBaPHZ+vISfa80oFAHJJoFY7d+z4/MRkcaFUzsi0gzBAoEsJpCND+dftKHDiu8vlB0nS95U3D5R8Nu+qKzwgG5qd07RQKs/Mzk0cKO7dN41fEACBnBGYOFCcmZ2DBs3OlItIupdAVmQoEWyhDCWfPVKADO2RE41hggAIgAAIgEA+CECG5mdJGjI0H/ckRgECIAACIAACPUIgKzKUkqC6MFZwv/3R/cpH+cWS/YOjw/IbJQdGKstyzV0Z2W0eLD+kvnPS+D7JwuiyOrvyu9GVB+Gw2085ZGi3n0HEDwIgAAIgAAI9RSCbMtRx5DePC/ko9oxK0VmR32neNzyl9eLIkFsWNrLe/Q50baMV7bKq7xua1npUyNay+FpzV32WR8cgQ3vqusdgQQAEQAAEQAAEUieQTRnqZjelahTqszDqSklKZHJwhtwkG69e61TVaqTg9A1NSxnqdcQddmkZ2dAuPXEIGwRAAARAAAR6k0A2ZahvidxVjSIb6lONUke6K/csY+rZ+GQoGcqCmxkVCVHxQ8q1qy8CyNCuPn0IHgRAAARAAAR6jUA2ZSiXkjwbyur1Yr1eZ6eFe2ZTGVN7Q2nV3np2pVrNgxKFDLWeX1SCAAiAAAiAAAhkk0A2ZajjFMYUL/EUkbfvk0lMts4unzSKlKFCj4qFeH4OyqMDKgmqdo7mICEKGcrPL8ogAAIgAAIgAAIZJ5CaDPUtkvcNH9RPtbsr6SLZqX70U0T+RXn3aSRp0jc07GY9TRs3G6ozptqleuZJr8iLWq16M362osODDI3mg6MgAAIgAAIgAAKZIpCODM0UgtwEAxmam1OJgYAACIAACIBALxCADMXH1+eHQC/csRgjCIAACIAACOSGAGRofkQYsqG5uS0xEBAAARAAARDoBQKQoZCh+SHQC3csxggCIAACIAACuSEAGZofEYZsaG5uSwwEBEAABEAABHqBAGQoZGh+CPTCHYsxggAIgAAIgEBuCECG5keEIRuam9sSAwEBEAABEACBXiAAGQoZmh8CvXDHYowgAAIgAAIgkBsCkKH5EWHIhubmtsRAQAAEQAAEQKAXCECGQobmh0Av3LEYIwiAAAiAAAjkhgBkaH5EGLKhubktMRAQAAEQAAEQ6AUCkKGQofkhkJ07dqFUnpmdmzhQ3LtvGr8gAAIgAAJtIjBxoDgzO7dQKieb/0uL5cPPHdnf/XP1/gPFw88dKS0m5JCMXktaQYbmR4QhG9qSW6J5Jwul8sRk8djx+Vrt3Ap+QAAEQAAE2kbg/PnzL718cmKymECJlhbLE5MzM4fnFpcqFy5caFuMbXd84cKFxaXKzOG5icmZrlOikKGQofkh0LyCbImHmdm5Y8fn2z7xoAMQAAEQAAFJ4KWXT87MzjU6gR9+7sjM4bk8IZw5PHf4uSONckjXPh0ZOlJw+E/f0HS6FPLRO7KhGTmP+yeLy8iD5mlqx1hAAASyTeC18+f3TxYbfQt4+kBxcamS7ZE1Ft3iUuXpAw1zaJRba+1Tk6GtlZ7l0QGnMNZaNF3nDTI0I6ds777pxmYOWIMACIAACDRHYO++hvNZe/dNd/VafBDYhQsXEnBI960TMjQ/S9KQoeneS9Q7ZGhwckQNCIAACLSVQAL5lcu5OgEHevNKpZAhGSoymu5P/+ChZYWjXJke7NPVzsBIZblcGaMl/cKoMJsa6ieLQI1okgrZzncKGdp55tYeczm1tfX9A85BAARAoEkCCeRXLufqBBysb2Qdq8yQDB0ZGp6SklHo0T5RdjWoXm2fGhp+sHxosM9RC/pSj7qClS/Klw8N90nBWqnWyqNjkKEdu5jQkSKQy6mtyXcINAcBEACBthJIIL9yOVcn4JDue3dqMpTyl47j5T4VC6kvZeJT5Ed96UxSqMpypKAlKdsbKmWo6TNdyp3pHdnQznCu20ucqe0XT/zDpz5zx01/uUX9fml456unTrd1joZzEAABEMgxgQTyK85c3XXEEnCo+6bWVoPUZGjwESUpH0mdahkq06KEgC3cu5ZuZpTJUJEEFQlR8aPW6Kl5vguQoRk5v3Gmts989otTvzo8f/KM+n3ofz625f/ZNn/y1a6b8hAwCIAACGSBQAL5FWeuzsLQGoohAYd03zqzIkOlvnQTn75saFCG+msUPr4oT0DVLtLeUaLNy1BFTAt8d4+E8elaRn6aEtKk/oN/YNAZ6ZFCnKntpr/cQhpUFR7+4Z6bP3Er5Udv+sstn90yfGDqmZAJqLht0+Zx+7Hitk3uOXQ2bSvabVZWVl59/J7tt92xQ/1uveeXr4Raxjwwu/v2R8LCtbloeQC2Tp59hIb2zA+88d52x46t/mif+cH2nT/XfwbM/3Ln7eyl6fjVx+8JG6k3KOrXaE1hbP3BrHHI/vLZR4xQpVlYDGH1dt+oBYHcEEggv+LM1fH5jG/WE6/83zJBF7dtUnOyMI2aneN3GrRMwCHdt+YsyVCtL+UjRzIbKp9GIlkj94Y+VHDchXgOjsvQ8uiAkp5qaylkKAcVUVYalNEeUA+KcaFJD4QRVTraa6I/gmScqS0oQw1VOn/yzNNPT39uy3BwlllxZzvLLLeyIg/qI0KQ6rLPj5RZXAa98vP7t95+/+NNfeh+IzK0LQH4hui+8MtQT2iurLzy8/tvu2PH7mddQyZDZ3ffvp3qTafPPhKUsGTzzA+2E1WBNCA0eSXrkRwEC0LXmjI0LIaw+qBX1IBA7ggkkF9x5ur4nMY315OWJEO50/HN9lma2zRSTsAh4u2sA4cyI0PZE/F9Q8MFvSU0mJ/z1QTMCqPLtCIv/iDRjzd1AGXqXTSZDZXcfDtx1YhIaNIA6e+ESrWmjirFTxKWLHuzEGdqiyND50+euekvt5jzj5CWm7YVw6Yu/zznf6VdCWXDBZmqFwqpqZxofBnapgD0+Pj/4TJ0RSpRUnhaFNpjc10K9Xz/4/NhI3318XuYlJ//5U6Tp7+h8BaWVXU7lLL1EV+aOSyGsHpOA2UQ6BICp06fDUZqrSSzBPIrzlxN/usWIEOTveOnI0OTxYpW0QSalaH+3DP1FZSh8i8B9yEwdVQIU6b4paLtxafEFLQ4U1tyGerOhWEydIVnQO3ToqtXgpPq7G43ISrl1LNiYdpVaTLNJrOATGaxZf2ttz8yvcI1lkgoquV+S1qxfgDKlevEn6YNelbij4z9wi5Shq6ImN0RKRnKs5VBQLqGj1TXyf95c61rmYEpTP2ylRm6RQHqkWd8YMkoLIawemqIAgh0AYGdX//OE0/t54E+8dT+nV//Dq8xylmVod5a/eZtelFerFqJhSq2g6plKdEEHOjtPpUCZCg+vt4joBPJvpyoTYaKD3NV6/LiaF+/+oAtuoIhQ435MfiSy9DaudeCBvVqQmXoCpva7JuPmDLz9yISgVI1igLPjD7zc71z1GsrbfSi8ys//yWToTyh6Ok8ry/PiVcnSxSA0JSUp1zxNkdaPctIdFqRL4sLn6wviy6USloJZXH0npj54Cipp9b6b7tjRzDfLILRxPR4uayPoOHX1sIwLIawesM5XoJApgkslBZ37LyXlOgTT+3fsfPehdJiRNAJ5FeclEFEj8YhT2+KpVi1HcpdvVKWbEcom8BZ0XCY7GUCDvTenUoBMtQTYamcgBZ22mQ2lCJRzyTRCntdGer09fcFPnWLvPVgIc7UxmXoyspKYXvphk+d4b/9nz57w6fO/O9fWPjFM+dsk1HY1CX/utb7QX1TIHlhyozqZIFUIBX8x8UrrXI8aUg27BBbjLaIv/oBGOJVx+NvqD37c4pGxpE10fYUsPucFsnQrffcL9fcuYG1rEdqHpSCWAtNyyaHRmQo09PW7qyV7ASZseE1CHQZAVKicTToyspKAvkVZ66OT82y+iSmYD0dqwyBmxtgEzgrxu8rwjIBh3TfpiFDIUMtBFRa1Mt3Dvm+q5cnO5VI5R90kO4FnYXe40xthgy94VNnXjp9nv9+bPvin+1cPPD8ax+6fcE244RMXcas51ui127cpV790vufxJ9f2K2srIgm7iI7LdPzdKn0oYWRXsGnx/DNvGD9ALQrHZurIO2e/dE2JENFJL5FeZZ51X1b/jfDc03McWn1TB6M2EQuNiQbytSzJ/3JjyiExBBa72uMFyDQFQSUEq2bB1VjSSC/4szV8UFZZKhR5W3WZxM4K8bvK8IyAYd03zchQy0iLN1Tkrj3VmVDxUcvySfGVEI0mA0V6VK9E5SOikr9WQeJh5CPhnGmtnbJULHqw/74tspQuRJtSkP1vI6bxfTLI1/iU6sfn05SU2LEIWPOFPosMgASxKqh1nOWTlVGk4k5v9SL3qzJMo4rlCsVlSyba4QuX+qRGsd8oHypVm3ob+gPVduYn6XlfqKWlsvazO9K14bLU88CJRDoIgILpcXotXgaSwL5FWeuJv91C4bmFPbGhOxZMO3JinW7iGOQgEO677yQoZChLoHyoeGCznoG8510mcole2/zKMlQ/s2rvDk17J1CnKmNf3z9ysrK/3bL2edefo1nQz/614sNLMp7q+9s95G7SZSrUj2JyewmF4JCrnlCJyBDtSyTZmqfoti+SR78e0N9h3SX/v/rBCD3hlpWt62e/dH6tJ3Wr7JzEpoqFCE39Y7SlRVPhqpPVPVv4vQHb2QcvZSqLzyPlWcgeiHPRjxGH+ylVXFaKyOypMwfiiCQRwIJ5FecuTo+Kk9kem34hCymaf2RTkx7sqLXrolSAg7pvjtDhkKGahkqn5Snj9/lnwxKlU7gQ1tJhsoc6lhBWAwfnBrq5d2icaY2/mWe/7To/Rf3LH7n58skQ4+cPP9/fGnhwPMRjy75py5Phrp/gOtTZtOg7gQnJBqtm/vzf35hx56I3/nzX7IPDxKqy83V3fPLEz5xxg4xqeefWiMCkBpLL8FzsSizfbpT17M/WilDT+iYSfMpoUnjDT5C5BeFIn4/Ex67XwIylWkLT21poHytN2oS8dy1rezvzrWwVkKG2vihrjcIJJBfcebq+PCE5GQ/7i5QKT5l9aZt4+aT8tK52y5iso4fQ7I9spCh+RGC6Z7LFi7KpzuQbu89wdT27NHXPnjr2e/+fPm5l1/7h9lzN39j8TPfXGpo6smXcZjGytcoMRoQAIHWEUhdhrZuKE15SsAh3fdcZEPzI4IhQ9O9l6j3BDJUfLLQ0df+4p7F//WWs38wuPC1H1WSfIhTU3NXphr3lAz1MseUWm76i1UzdTYRDAh0gkAC+ZVsru7EYJroIwEHevNKpQAZChmaHwKp3ELBTnM5tTUxKyZo2lMyNAEfNAEBEDAJJJBfuZyrE3AIvot1sgYyND8iDNnQTt45EX3lcmozp3y8BgEQAIEsEUggv/bum75w4UKWBtFsLBcuXEjAIeLtrAOHIEMhQ/NDoAM3TJwu9k8Wl2vWz5xvdopBexAAARAAgSCB186f3z9ZjDM/c5unDxQXlypBb91bs7hUefpAwxw4k86XIUPzI8KQDe38/WPtcWZ27tjx+e6dyBA5CIAACHQXgZdePjkzO2edkCMqDz93ZObwXHeNNDramcNzh587EjHkDB6CDIUMzQ+BjNxgC6XyxGTx2PH5GnKi0VMmjoIACIBAcwTOnz//0ssnJyaLC6Vyo28BpcXyxOTMzOG5xaVKV6/OX7hwYXGpMnN4bmJyprTYMIdGubXWPk0Zyr8xMs6o5DdG9g8eWqav+Ql+jGUcP3m1QTY0O2d2oVSemZ2bOFDcu28avyAAAiAAAm0iMHGgODM7l0CDqveL0mL58HNH9nf/XL3/QPHwc0e6ToNWqrU0ZehIwSkUBuhrIa0aQkhP/b2R3GBqqN9az22Mcpgrw6x7X0KGdu+5Q+QgAAIgAAIg0IMEUpOhZfGdPQMj7r8iwWn9DdOOU0P96hvPra2slWGurMbdWAkZ2o1nDTGDAAiAAAiAQM8SSE+G6jSn/9sgpwf7+gdHh/vEV18N7Bzsp2/GKowuK+X6YPnQoDysDon60QFt5i7Z81V7ech0VanWRD7V/fG+Ib2rrwPI0K4+fQgeBEAABEAABHqNQGoyVKzIj8pdnqMDTt/wVIXt+NQvhZrUalV/ZbkrGXk2dGRIN9euypVpIVX1av7U0PBIRapVXSO3pbquyqNjI7L3bj/3kKHdfgYRPwiAAAiAAAj0FIF0ZKhPBYp1ed+DR0qeqtMQR4bSCdML/So/auY4fa4ODffpTql5txcgQ7v9DCJ+EAABEAABEOgpAunIULYgrhfGZZ5SZjG9hfWY2VD1xL12JNSnUJwsparOKJehwrNQouKHq96uPveQoV19+hA8CIAACIAACPQagRRkqFox5+JPCETxuNJyAhlKbfmqfRwZqs60TKDmRIlChvba3YvxggAIgAAIgEBXE0hDhoo0pG/FnIRpQhmqE58yyark7FjBcehResve0NEBd2eq3EXKNXH3nk7I0O49d4gcBEAABEAABHqQQAoydKTgPTxExNXngFpkqNg56i6d09ZP9Zy7UplKwkoTp29oWH4IlHrayW0oDkmdqhKfahWeVuSl6zEKo6sLkKFdffoQPAiAAAiAAAj0GoEUZGivIe7YeCFDO4YaHYEACIAACIAACDRPADLU/rH5zZPtvAfI0M4zR48gAAIgAAIgAAKJCUCGQobmh0Di2wANQQAEQAAEQAAEOk8AMjQ/IgzZ0M7fP+gRBEAABEAABEAgMQHIUMjQ/BBIfBugIQiAAAiAAAiAQOcJQIbmR4QhG9r5+wc9ggAIgAAIgAAIJCYAGQoZmh8CiW8DNAQBEAABEAABEOg8AcjQ/IgwZEM7f/+gRxAAARAAARAAgcQEIEMhQ/NDIPFtgIYgAAIgAAIgAAKdJwAZmh8Rhmxo5+8f9AgCIAACIAACIJCYAGQoZGh+CCS+DdAQBEAABEAABECg8wQgQ/MjwpAN7fz9E9bjQqk8Mzs3caC4d980fkEABEAABECgrQQmDhRnZucWSuWwd6XM1kOGQobmh0BGbrOFUnlisnjs+Hytdm4FPyAAAiAAAiDQZgLnz59/6eWTE5PFrlOikKH5EWHIhmZEhs7Mzh07Pt/mOQfuQQAEQAAEQMBH4KWXT87MzmXkrTBmGJChkKH5IRDzom+32f7J4jLyoL65ES9AAARAAATaTuC18+f3Txbb/R7XWv+QofkRYciGtvbeSOxt777ptk826AAEQAAEQAAEAgT27ptO/OaVSsP6MtTRP6tWrdqwYcPWrbctlJZUrOpIQ3EfnPrVBz/4L3/zN3/Tcep33ZBnq3Fpsbxly61XX3316tWrL730sg996ENWs5iVN9xw4w033BjTuPNmkKGdZ27tETI0MDGiAgRAAARAoBME8ixDtRx1Pvu5W9S7bxwZetNNN1911VX0bv2Bf/bPyA9Vtq+wefOfUXcJojWCv/HGvhtv7GtftE16hgxtEmCrmkOGdmKuRR8gAAIgAAIBArmVoZVq7eUT81u33uY4zrve9S71hh1H2Bk2r3vd6xzHeXbmcKve8qP9rFu3znGcn+z56UJp6eDUrz7ykY9G2xvRGi+j26Z+FDI09VOgAoAMDUyMqAABEAABEOgEgTzL0Eq1Nn/ylOM4F110kXq75SrtIx/56DXXXLN27drLLnvLh//wD1+cO1Kp1pRB2L+Vaq1cWd5x91c2bty4du3aDRs2DN9511K5yp0/9pM9yi15e/xnP3/Xu961fv36x36y5/77v/uWt7z1He94x8PjP7RKkLe9bb3jOJ/81H8+c7ZkGHx/9w+uu/76devWvfOd7/z0Z/7LmbOlsDhpmFSgYH78949eLn8ogKVy9dZbt15xxRVvfvOl3/zmt6nJ05MHf/d3/9XFl1yyZs2aa6+91gimJS8hQ1uCsXknkKGdmGvRBwiAAAiAQIBAnmXoiVdObtlyq+M4GzduVG/VpLFIlqkax3H+ze//frCSjlLDv/nydqNy+M67uPP164WOVBtJVeGKK65Qhfe85z0q2ek4zvve9z6rehgaGlbG69ev/8bf/h3ZfP0bf6vq6d9P/NUnqWwt0HB4eBTM+z/wAVV/513bqDmFV6nWNm7cSPVt2hcLGUrnN90CZGhgYkQFCIAACIBAJwjkVoZyCXXvvfdzKabKC6WlJ5/c++1v33fTzf/JcZxL3vSmoI2h5CrV2nve8x7Hcb68fcep02e/9vVvOI6zYcMG3vDjH//zl0/Mq0V8FcOu7z/w2E/2qPL3vvf9v3/0MZ6gVW35v9/+9n1XXnmlsv/iF7+kDl1zzTWO49z9lZ2nzyz88JEfOY5z+eWXB8NTrcgbf6nKu77/wCM/+rHjOKtXr1ZmSm5+8YtfevXUmW99615q8sY3vtFxnFtu+bzKE5PPFhaal6FTQ/19Q132kB0BLFfGCs7ASGWZapIVmvcTW4YWt21SF4jjbNpWbHyCKm7blKidtafxzc7mcesRXtnSLrnj3JbHNyc8u7klgoGBAAi0kUCeZejFl1zy27/9z2n1mYu23Q88eOmll733ve/9kz/5Pz/xV59UG0CVCCAdZn25du1ax3FOnT5bqdZOnT7rOM66deu45YlXTpKYUK4WlyrlynKwxIqKkwAAIABJREFUTGbBwuJS5b9+9nOO46xfv14dXbVqlX7/9/7nI1Jm6hg55C9VealcXSpXef2aNWscx3n11Bm15eANb3iDyn3+9d98+aKLLnIcZ9WqVTvu/gr5bGEBMrS7ZKjQJ1r4CUGqy/Hnp5Zqws7K0Hi9xUfROcs4kcexaXfEWYih3WOEfxAAgQCB3MpQq1oi+aWWzn/xiydPnT6786v3UD0Ju30TTysP/FClWvunT4ByHOcrO796+syCakj7Jg1LchX0E7SkaP/17/3ek0/uPXO29NPHf+Y4ztq1a9Whd7/73Y7j/N1//x9KAZO9cmVEa7yMDuDyyy9XIzp1+uxX7/kaj23uyNHPf36L4zgXX3wx9djCAmRoV8lQv4b0vwpMLPaKRI3srlZW4smWVnUZr7ewWNOsjxN5HJt2jyELMbR7jPAPAnkncOr02eAQrZVk1qMyVGkvJbmuvvpqrr34IUNKVqq14TvvUsb0786v3hPUecEa3gUvG6qO3KrCH//xv1cGX/jC7cYhVW9Ea7zkHYWVb7rpZvL81re+jcyoMmInqxF8oy/bJEPLowM6+P7BQ2LJu1yZHuzrHzw0VnAPeEvhckXbrS0MDff1DU9Vlo1lbuGwMKZGF3Qu/ZNnh5yY9aPm4jvvxReGtBwpOHy/wdRQv+PFpgOWluSnfGi4z3GH3NC5iLkozzOg45uTLMvbNaHIsqofWrGXhuN6C4BIu5IR5WCVbKF6arvCjJ3N29g+ALJlsbN9BuSZpke3wGxECtgcu3w948pi6iMkHus2AmrkBaZQ0QGKLax+ZWWFhak7Z1U6eU0udV8BG64H2UHtU3a0aVuRHFFsPAKv0qQpXlNbNyrWjY6TO6M6my/UgQAIZIfAzq9/54mn9vN4nnhq/86vf4fXGOUelaGP/OjH11577erVq6+7/vqnJw+q90D1zv3ADx686qqrXv/61/PHjOhNfalcHb7zrg0bNqxdu3bjxo18tZo7Ufa8JqxMnlXhT//0Y+vXr1+1atXb3/72m266Wa2VV6q1xaXKHXf8t6uvvvqiiy667LK3qAeqKtWaEa3xMqxTXj9/8tRHP/onl7zpTVdeeeV9933HcZw1a9ZUqrXrrr9+7dq169at+53f+RdPTx404mzJyzbJ0JEhISWFChwd0NJterDPcfRGzJGCo2SllKeu2lNlbe/btcllaJhzJRn9TkSnun6sEBCInnwUKtm0lHrXlcvKbWF02R+w69Pz02YZypWOp0mMGSXypVWGjm/T20w9fSdliduHkizuC3HAVTiqXssd8UqVhQmFJ6r1C0tHzN3K+LhVIroD4trM68tFIjuOE483Qs7JEpgrwthQ3aIkwxHwercsG+tRu/JY92fry8gs01BlXxafITHEhSnsdHQMCHUrQjW63hZ1avTQ8D8IgEDqBBZKizt23ktK9Imn9u/Yee9CaTEisBzK0JYopB508uLckX/74Q87jtOxL15qkwylc+fpMzcb6uYjRdZQZRaFbmOZUar3PzzEZajFeZgTLYJVEyO7qXOloneSy9ySpKewpMBsPmmYFFujhXjZUEMZeFIiYn4xDlllKLMhJeIzDHnBFIxwoUWQ/t9162tMXemOhLFWRHTQWtAt5EHWh1cMicdf7X8V7Im68cftvfJKojG98sJQPumAITF5j9SXYaPrQ30y52YMMWD6EXivdLciRJ/Q5zGjDAIgkHUCpETjaNCVlRXI0Px8RXuj4oPsVXKU/t21azcdamuhTTJUrk3TaKTOC5OhflXnqb1wGWpxHubE2xvgBsMX2U0ZSvHKgrIUC/FyMwBJWJki9Zn2DU13SIZaRIlOynmzosoIyghtgsSvX3Qz4Zl+VPLNZxjygssW4coVNJ6ukf55Y0tHbt7N0alUHVPgf39vBIO591vweGhwYWAsgTHHXOp5wtM/OmPU3MyIy9JXiAwN9RkWWzyY7BpRYNwrhcdpdh04HagAARDIMAGlROvmQdUIIEMhQ8X6+5o1a9QWhe997/ttlZ7ceTtkqH8t211bl5lFb9OkJzcNBalfGsKOsqF257qVGpqwUalWXeBD5mXqhZrwo24SVCRrvR0CVkvyYzSP/zJWNtRMUJESa2Au9OsX2dDnlpSIzzDkhSFVdDw+hyQGZcGTzdQRBW80o3pdMFuo1zwGXmbZWaNa+/P+9/VM3fgGzVRlSL3PiU+3+hblfWbUV7gM9YhxnyExhAzJq1alMCAsHP0nhdkUr0EABLqFwEJpMXotngYCGQoZmhqBdslQqQIr1ZrIJso191AZKhQebcqU+0fdx4D4Zk1ZL7OSXAUy52FOvHqrIiT5KAtuGIblSMEpFNgDUixgsvT8tHdvqJAwlOKUOTW9bZCmk3oFv36R1kyUMJ8+w5AXIh6SSaKtl1XTRSHfdNDWjsY36zEIS1HW/5tD4SJJB755M//o0jjxmF7Fa2tgTHgKGw+BVwrU+2nogZkyVJ9CiUYb+UZHL3wmDExIDHFh+i4kjwh160Khk7hS3LbtYdG9Dt1rgxIIgEDXE4AMTU2EkYzo2UJLZKhvwbNv+GD5kHwaSVT3DQ2rT0QKk6E646h89A+OuntGzfohVwiq/ZrKmpybxtyJVI06Qm8TqjrjJB+FhxBLIXz9zzYFLcmP3DDgJX3jX1exsqFirpNKyx2PVjCNzIFS12gejhCIM0opyrpN27ZpWecTOiEvpGzxImLxeN1s2jZOT8rzWt2RV6c1nE8M8bG5PXndyArvpZJ71njqcPOCCCMQQ4b6z45PsPHIrX15beVwOAJvPEwE+k6IF5vnOy5MedoJIY/TC0nYbNo2I5z7RsXPDcogAALdSwAyFDI0NQLNy9D4SiuOpdB8+oOZ4thbbVrixOq5fZWxZWj3TnRxIx/fHFvrsCym9M7VW9zu8m3XAMx8g8DoQAAEwglAhqYmwtqnKrrFc5MylGXVvGLisassYyHw6Z4NOWyJk4Z6bIkxZGj4DBl2JJidgwwNY4V6EAABEAglABkKGZoagSZlaPMKjC+yO46TTIO2xEnzY2nGA2Ro6ARpO2AsHmsTyFBNAv+DAAiAQGwCkKGpibBmdEM+2qYuQ/OBsflRQIbGnjBhCAIgAAIg0EoCkKGQoakRgAxtXkG2xMP+yeJy7Vwr5xX4AgEQAAEQAIF6BF47f37/ZLElb2Qdc+J0rCd01G4CkKHtJhzT/8zs3LHj8/WmCxwHARAAARAAgVYSeOnlkzOzczHfqjJiBhmaWvKy5VcAZGjLkSZzuFAqT0wWjx2fryEn2soJFr5AAARAAATsBM6fP//SyycnJosLpXKyd660WqUjQ30f1qg/HX2k4D2gLUu+D4akL2Ckz5U0vssxLYLZ6RcyNDvnYqFUnpmdmzhQ3LtvGr8gAAIgAAIg0FYCEweKM7NzXadBK9VaCjJUaVASkVNDA4OHlivVGhea+jt7vKet6WiXfohPBxQSZGgHIKMLEAABEAABEACBVhFIQ4aK70j0ZTrVYEho0tjoCx5JpKpP8yEJS5YoVKo1yFBcBiAAAiAAAiAAAl1EIA0ZavsibxKanJ1MfLrfpqhEqhCm/i/mkVJVreZbpC33lvsyZGjuTzEGCAIgAAIgAAJ5IpCCDKXNnY4/JxrMhqrcp/oUdHG0r9/RG0nVOZDf+u2qz/Lo2EhFLO737C9kaM+eegwcBEAABEAABLqRQDoyVJFSzyTRCntdGer09fc5bnJUeZAy1FfTjeegVTFDhraKJPyAAAiAAAiAAAh0gECaMpTSol6+c2iaj5mrTCVSy6MDRg5V2ohF+WRfHcm76/YyZGi3n0HEDwIgAAIgAAI9RSBtGVqZHuxzVEI0mA0V6VK9E5SOikr/0ryQs3K/aY8rUcjQnrp1MVgQAAEQAAEQ6HYCKcjQ8qHhgs56BvOdBFQu2XtPHZEMVRtGlTwtjw4o6cl3kZKHXitAhvbaGcd4QQAEQAAEQKCrCaQhQ2Xmkj6qnlKYaqso1dOeUcWXZCjlPp2+4YNTQ33UQOdNu/p8NBM8ZGgz9NAWBEAABEAABECgwwRSkKEdHmHvdAcZ2jvnGiMFARAAARAAgRwQgAzNzwc8QYbm4IbEEEAABEAABECgdwhAhkKG5odA79y3GCkIgAAIgAAI5IAAZGh+RBiyoTm4ITEEEAABEAABEOgdApChkKH5IdA79y1GCgIgAAIgAAI5IAAZmh8RhmxoDm5IDAEEQAAEQAAEeocAZChkaH4I9M59i5GCAAiAAAiAQA4IQIbmR4QhG5qDGxJDAAEQAAEQAIHeIQAZChmaHwK9c99ipCAAAiAAAiCQAwKQofkRYciG5uCGxBBAAARAAARAoHcIQIZChuaHQO/ctxgpCIAACIAACOSAAGRofkQYsqHZuSEXSuWZ2bmJA8W9+6bxCwIgAAIgAAJtJTBxoDgzO7dQKmfnfTBmJGnK0Kmhfof99A1NV6q1cmWs4AyMVJbDBlDXgDcMM54a6lfdkXF5dMBx+gcPLYc1Icv4BfIZv0kzlpChzdBrYduFUnlisnjs+Hytdm4FPyAAAiAAAiDQZgK12rljx+cnJotdp0TTkaFS6jlOYYze+8uHhvvky7oqsK4B+YwQtUEZSq0a8k+tslCADM3CWahUazOzc8eOz7d5zoF7EAABEAABEPAROHZ8fmZ2LiNvhTHDSEeGjhR8GpTHWlcF1jWI4w0ylFNCubUE9k8Wl5EH9c2NeAECIAACINB2Asu1c/sni619R2u3txRkqEh8yuVv69i4yixXpgf79LJ93/CUXKnXBmMF94hYSVeu5CK4qnUrtbG5xB+UoWSpC6Z/GUz/4OiwjEhsG7B1Nz3Y59k8WH6INhhIt27EhVE3HrYtIWofghVUsBLZ0CCTVGr27ptu+2SDDkAABEAABEAgQGDvPrG/sYt+05ChowOO1pRBUloFLrsaVC/cC8UmW2k95+o2qQXd8siQlqq6C/JmdFRPhjqO3p9K/t14WOS27qRu1jbUu2rLNr/KTahCjtMoxiK2wxrBh72EDA0j0+F6yNDAxIgKEAABEACBThCADK2vwYWw00KtUq15GUFPZQpxJpOmrkqTuzxlotF9hIhlQGXGlPKLSnAw/Wd/4KmeDLX4V1LS6CjQnZChZOOF4R/ySMHpG5qOzgonUE6QoQmgtaMJZGgn5lr0AQIgAAIgECAAGRpDhrIsIIkAockMGeqXblIFyiRi4FF6peqEVBWe6Udq2YCx6rGeDPXkb6Vac1Wj0LuePA3pzmfjk6EUlyy4mVEdMClXApKgABmaAFo7mkCGBiZGVIAACIAACHSCAGRoDBkq85fm5yVZZahes46TDaXVc2nsJkFJCBpqo54M9eQmJUFJBytXId2Fy1CWADaCkUF6OVTjaPyXkKHxWbXVEjK0E3Mt+gABEACBPBJ4/sWXHnjo8e8+8Jj6/fFP/qFcrsYfKGRofRnq5RH1vk+3xsiGqueTtI1Yu/c+0cl70N7bM8qyp3Khv5lsqM2/PxvKtxaw7kJkqEjKioV4rn7KowMqCUpKlx9NUIYMTQCtHU0gQ+PPmLAEARAAARDgBB4c+9mp0wtU82zxxf/5yBOLSxWqiS5AhsaSoTq7yReq3QQkz1+qNKFrpLOJroH4tHn14y6gKzGnqvqGhtUj6twbFxxSOGoHjuP0DR/UT7VH+jezpIHu7DJUJ2ipRymR9Yq8qNVqmwfZaLlVMtQHR2NvNJi69jKdLHiGnaO6HjJrABkaPUviKAiAAAiAQBiB7z7wmHGoOHtk14M/ofzodx947KHx/+/4yycNM/USMjSuDM2shujewJqXoVIRClGuPhtLqGedsm0flk7KUKF9m1D8MZtDhlonR1SCAAiAAAjUJRCUocEm8yfPPDT+i2D9ysoKZChkaGoEmpehEV8rABmqRHkcFQsZap0cUQkCIAACIFCXQBwZurKyEmYGGZqaCGufTuoWz03K0OgPkOJ7Hihd6j625X6kv9ha4OZTxT4D2iyhHhcLfh2A5TEy1tx9ZsvfheuTzkhIVL5P6aIUJt9sUBilzQChgaleQpuLPRXeJg0KqVKtQYbWnWdhAAIgAAIgYCUQpi8N4zAzyFDI0NQINCtD2TNeXFR5G3n1crbQc+7zZN7H9WsF6SozYcMfKSNVKjb1yq2x+rO0aFFeaUrzQ/7Vk2psnwDF5mpQS1R2GWqkM3XAWi4HAjNkqNkcMtSYFPESBEAABECgaQJh+tJwHGYGGZqaCCN10rOFNspQIbm8TKSboRRPF/keyeIfg+X/IFgva6i0I0tGUlZSfjkqk5vs41rtn2Yl07fWqOLL0KjAomVoxGWGbKgxXeIlCIAACIBATAJh+tJoHmYGGQoZmhqBZmWoX2tymSUWpplAJPVJBWUcLkM9sci+DsBclBe9+H/Ed035lW68qOLL0KjAVF+0KG9kQ3kkRhky1Jgu8RIEQAAEQCAmgTB9aTQPM4MMTU2EGVKgB182K0Pl8rfx4aYKoxSInmIjaUgFZRYuQ6OSjt6ivF/sul1Hy1B7jja+DI0KzBu7XvfnklQdtf4LGWpMl3gJAiAAAiAQk0CYvjSah5lBhkKGpkagSRkqsn0iIer7EFP1gU1Sbnr1bN9nzEV5f1t3X2kgG2r9kP8IGSp1Mz267o/K/bIAI3KuI929oVpiGhte9RZVuflV2/iaY2+oMSniJQiAAAiAQNMEjI+vt/o7dXrhwbGfWQ9BhqYmwqx5qZ6qbF6GCiWqtB0tjpMCkxrRrdYL9LGzoQMj3oK7m1X1kqD6WSXZOz237j5rb3RhnFD9mJGMS0fl6WlR3T845H1WKNl7m1MDgcVtDhlqnQJRCQIgAAIg0AQB48s8+afWU/mBhx5//sWXrJ1AhkKGpkagJTLU0HnNvyS52byr1npoX2BYlLdOjqgEARAAARBoNwHI0NREWGs1Sjd6gwxt6KxBhrZ7NoR/EAABEACBDhOADIUMTY0AZChkaIfnO3QHAiAAAiCQKQKQoamJsIYkSC6NsylDc4k6elBYlM/UpIxgQAAEQKB3CECGQoamRgAyNFodduzo/snicu1c78x6GCkIgAAIgEAWCCzXzu2fLHbsza4lHTkt8QInWSAAGZqFs1Cp1mZm544dn8/ClIQYQAAEQAAEeofAsePzM7NzGXkrjBkGZGhqycuYZyi+GWRofFZttVwolScmi8eOz9eQE+2d6R8jBQEQAIH0CNRq544dn5+YLC6Uym19g2u5c8hQyND8EGj57ZHY4UKpPDM7N3GguHffNH5BAARAAARAoK0EJg4UZ2bnuk6DVqo1yND8iDBkQxOrRjQEARAAARAAARDoPAHIUMjQ/BDo/P2DHkEABEAABEAABBITsMjQcmW5Ul0uV5aXystLS9XFcmVxqbK4WCmVKgul8tnS0sLC0tmFpTNnl86cXTx9pnTqTOn06dKp06VXTy+8eursyVfd3/mTZ/BrJSAQnRSUXj119tXTC6dOS4BnSqfPlM6cXTxzVuA9u7C0UFpaKJVLixL+kjgLS0vVpbI4NWV5goyzjmyoAQQvQQAEQAAEQAAEskzAIkOzHC5iiyAAGRoBB4dAAARAAARAAASyRgAyND9L0pChWbu7EA8IgAAIgAAIgEAEAchQyND8EIi40HEIBEAABEAABEAgawQgQ/MjwpANzdrdhXhAAARAAARAAAQiCECGQobmh0DEhY5DIAACIAACIAACWSMAGZofEYZsaNbuLsQDAiAAAiAAAiAQQQAyFDI0PwQiLnQcAgEQAAEQAAEQyBoByND8iDBkQ7N2d7UqnnLl2V233/fosWXDYfng+G137Ni688mj4rN+07mSw2JT8UQfTRBzTIdkJgvbdx3sHJ/O9xiNkVBEm1mPpjiWZsK2jiVmJfXb+bE32WOrZgMiEJNYbsxo4E2eiNwA6dhAIEPTefNuxwmGDG0H1QQ+aTqjtsEaOhSnYG1erpx4dGdHBZY1VGtsZBl9lMziF2I6jGlWt99W+anbkWEg+91+2x07xJ8Ztr9ADPuIl40OoVH7iK6bORQMQ13wign9G/9vsKBDa3gxzaxteWWr/HCfEeUmZwMeLS9H9Ji/Qz078NRPJWQoZGh+CKR+O6kAgtNZsKahUK3NrZUNuW2JcXQY0UcTBBDTYUyzugG0yk/djgwD3u/RPffFF1uGn0q1xl0FjwZrGrUPemhJTUQYEYciuo7ZKqZZREfqUKv81O2oJd3xaHk5Zu/5MOvZgad++iBD8yPCkA1N/XZSAQSnM16j1s5klmv8gFxMpzSPkfc6sNvNh92950ljUV461Nmy3c+qfsmeVIvb78En7759O1X6gpSHbrtjx66DyxQYX8IO+jT6oth8Y9S7CPyVIn0bkd6jALbeLsj427rbEviIOMO6UfGGCkVd7Dse/sndtzcM+UjZ20Fh7cIYporc+Lfu2OlsNnmCDG7GkHkYlWot2Benqq4iYyBCB8utIyp/qS6tiFbUBV1XFof66qJDdTlPHn0ieCqpOR8a9Utj59Fm88qRETZ8odJOnvIxMT+4qffdz/Lx3nbHjrv3nFCgrJA5Qz9GtxWdULpiuf+tO5907xc2R1k7oqvINzno6UtVUjDRnRoXKhlHn/q6rah3F5e+7Hls1JdJQ264cskc01MfYxJkG4eSEVJmX0KGQobmh0BGbjOaTSgeqpEFV33S0QO7t2+VUlK8H+iNnjwHJsqBlVnyqfxwe8+heMM2Baiyl83dQ2qKd2M4OE7zptVnpVrj9RQbj4fKVFDTaHCYBEFa+sjwtlSWBW9EZiScniQW1jAsHnJYrpw4cPAENY8PmTfxToQ+s/Kob5hEgBe4EyrLgjd240RQX0Z99AnixsEhU9fczIeOXWBlduXQWMSb5W537zIZ8IFQpdEFhU2uqMCjUpU0drqDpI2Pc7AVOaST7sbQhVeOMTo+Ig8OO1k0dlXgzWXZmxloNvD86IvZcEKdqgvJOKFec38YvDvl0LPUHUmb4Nn07gXqOk6ndS85osFjq9uK0wgGHBmYu+/f2q9ySwMktnEo8ZCyXIYMzY8IQzY0I3cazSYUD9VQIXhIrp+eeHSnmJIMM+OlassreVmvw4pZ26inTrWNOf3xeqOtfGnxSWZUsDrxH3WHGRZPxAC5H2tHRluyp4JhIJ3YsXP/Rlm/jA8ktAsOgco8WvYO5OVZdQDeg2uySfx4/Nll9vQb75rKVGD0zL4MGxoLFciACnwUvJLXU3MqRFjKFJHlDopwGOaN6qmgAuAvY3bHm+hITHq63gw+ogsCwtsaZf3S0l2c5hQ5FaTDhu/fiDC4Z21G81LoXRPWylZvjp1sqGCcWaqnAg+MV/L6MJ6Gc/ay4cCoCx5DzCuE2mawABkKGZofAhm5wfgcoULiNbIslsDYAqW7IkYL1tJGTFLB5jTGgE+LPbehhkGf3IzKshDmM6ye3j9MlSO9mcO0hWSQCXWoR8HfqKKionHphiJP7D3p4iXAPCfGe0wkEDdO3iRsyFTPNz+EoeAbD2xD8KKlo7IQVm/l6Rnz+Hm5IZ/GWI7uuc/GuU4kNBzDG48q4lRqM/vlxH3WHZoRiXyZuSuHB1l3RHz4jKF5RjRDUW8dNfdjdKrbepcWRUiFYNe6lYmX17Np0w1YHo07D2hXNKioCHmoVJYFSytOQ/diXH6WVuRWN6HA+Oie3SX3KVEXslV9SmSf8QJkaH5EGLKhGbnZ5J+nvmfY5e4rbw6KmHHUEPjcxI35ALkNL2t70Z1RH6c5NaECC8nik8yooAPwzaf8KA8jWCZLKlgdNhoV98Yd8gAMG8PMOCpfxgXCe2GRe+80hoHRl7WJYdNQPNSWChQAr6EyFVgk5tgNG9fy4HhwGxy3pDIVWBd2PvEt+Rk0WlnHa7U3Ghovw6LlZrysuzDp6XrfXUNB8oLhLRiAYSBfWroL88mbU5kKvBUvBw2MGvnSEobNzH7eIxBFOjc7pR6pYDCkeirU67o1AVN3VDACI+CGAdWH2RsGWXsJGQoZmh8C2bm7xEIq+/uV9vFQhFyqBo/y7Xduud7eUOFE74wkhxGzFT8UVrb6DItNjUg90CCHb76hUlQEwVogMuEO3a20lkjY01pqNy0NjQrUqTUeqgxulHS7qweZd0TeqFMq0DCphhe4E6oPVgr/gXgsWNxcr3hEzDhB3Dg4ZN6jtS9uwMtezEyGWq8K3orjEuXANa/c8iaqhjekrrWx+7lmwVZkyZtTv2RPBat9sDKIsQNXjhGkGEXgwjBsKHKusSLKnBJvS2Uy8O1frBdGMCryQ56pQHeNbBU+D0R2ynvkfYmytypiTl91W1GQvEABh18DlruS96W8UZw+tnq64z3KM1j/mjeapPsSMjQ/IgzZ0HTvJaN3eihSrKvq+ULNnmqNkj2C6i0Q05uHmr+U5a6Dvk2BqiPrVKXsmRNLw2Bz7oqX1dRp+KRpLhgbPc0afOZUv725C0kUIUGzk9FPm5oO94jP7Rdg9ftNWFQ0HCpYeyQ/fuxiU4RaU6YzSKeVNfFB5h3xQSl7XqMuAHqqhgLTrMwUC/dMxsF4wlCI+gDPgLFvyEaPwb64AS9TeJyneRL9TwcHIvFRJYfSzDwku/ZdWryGbjTjVJJPHiTdazQcKjD7ujesD6NqGE3PGBePP+zKoXiMtjG74835dc7HGyj7IBse/BjdDUUNjVo5jDN2NzDbPGCdtQIDcW8uf8zudUXGVDAIW1txGrKhy4ouP2tgwnPgruT9aiZCWeopV7DlXYRdIUE/PMjslCFDIUPzQyA79xUiAYGYBMoHx/kbVcxWMAOBXiaQHYEV3HDVy+cl2djTkaEjBYf99A8ecv9yijOGcmWs4AyM6Kc3qElYPRnkvoBsaO5PMQaYPwIHdptZz/yNESMCgdYSyIgMVWlRWipp7Rh7x1tqMrRvaFpRLo8OOE4DSjRMbobV9865hAztnXONkYIypCIoAAADwElEQVQACIBAzxJIV4bSTgO+4apnz0XzA8+ADK1MD/Y5pErrDilMbobV13WYGwPI0NycSgwEBEAABEAABHqBQFZkaGF0uSz0aP/g6HCfWLAXy+6yRq/e9w1Pud98qBblx/TCvptJ5TJUlt2GhVG1n5c7d5zCGLPxlvinhvp1f15lt1wHkKHdcqYQJwiAAAiAAAiAQKVaS1+GSuXHRKcnN0WW1CmMqfMkzOQhLR9dmSjX9FVzd8+oEq8qvSqNhU51Fa3Pg6tfhWfZS/nQcJ/edVoeHQtuP834FQMZmvEThPBAAARAAARAAAQ4gdRkqE46uolP+QEEQneq5KV4yUShPqoE5ViB7SVV+lImU7UMHR1QglWNc6QgVvylmas7K9Xa1FA/bQMQHSl5Knr0bDimrihDhnbFaUKQIAACIAACIAACikBqMpRUIJ0JQymKNKfOjAZkqG/FXAtNJkOZyHWcuDJUa1/RmNQwhZf9AmRo9s8RIgQBEAABEAABECAC2Zaheok8IEO9nGXdbKgaqqFxrdlQgqLW/btOiUKG0hlEAQRAAARAAARAIPsEMixD5RP0vr2hagen+NzQsD2jtEnUfPQ+jgwtjw6w55m6LyEKGZr9+w0RggAIgAAIgAAIEIHsylCZAaXH4R1aoJepyoER8Wmj6kc/q8Q+1l4/xuQZxJKhYm+o/tGPRhGp7BcgQ7N/jhAhCIAACIAACIAAEUhHhlL3KLSQAGRoC2HCFQiAAAiAAAiAQLsJQIbm5xvVIUPbfbfAPwiAAAiAAAiAQAsJQIZChuaHQAtvDLgCARAAARAAARBoNwHI0PyIMGRD2323wD8IgAAIgAAIgEALCUCGQobmh0ALbwy4AgEQAAEQAAEQaDcByND8iDBkQ9t9t8A/CIAACIAACIBACwlAhkKG5odAC28MuAIBEAABEAABEGg3AcjQ/IgwZEPbfbfAPwiAAAiAAAiAQAsJQIZChuaHQAtvDLgCARAAARAAARBoNwHI0PyIMGRD2323wD8IgAAIgAAIgEALCUCGQobmh0ALbwy4AgEQAAEQAAEQaDcByND8iDBkQ9t9t8A/CIAACIAACIBACwlAhkKG5odAC28MuAIBEAABEAABEGg3AcjQ/IgwZEPbfbfAPwiAAAiAAAiAQAsJQIZChuaHQAtvDLgCARAAARAAARBoNwHI0PyIMGRD2323wD8IgAAIgAAIgEALCUCGQobmh0ALbwy4AgEQAAEQAAEQaDcByND8iDBkQ9t9t8A/CIAACIAACIBACwn8/9VgszRdftwPAAAAAElFTkSuQmCC;" vertex="1" parent="1">
          <mxGeometry x="410" y="330" width="570.98" height="220" as="geometry" />
        </mxCell>
        <mxCell id="VKCgRyMsW_sbwXQrN_D4-9" value="" style="curved=1;endArrow=classic;html=1;rounded=0;exitX=1;exitY=0.5;exitDx=0;exitDy=0;entryX=-0.002;entryY=0.682;entryDx=0;entryDy=0;entryPerimeter=0;dashed=1;strokeWidth=2;fillColor=#dae8fc;strokeColor=#6c8ebf;" edge="1" parent="1" source="VKCgRyMsW_sbwXQrN_D4-7" target="VKCgRyMsW_sbwXQrN_D4-8">
          <mxGeometry width="50" height="50" relative="1" as="geometry">
            <mxPoint x="200" y="410" as="sourcePoint" />
            <mxPoint x="250" y="360" as="targetPoint" />
            <Array as="points">
              <mxPoint x="260" y="420" />
            </Array>
          </mxGeometry>
        </mxCell>
        <mxCell id="VKCgRyMsW_sbwXQrN_D4-10" value="&lt;div style=&quot;color: rgb(8, 8, 8);&quot;&gt;&lt;div&gt;compiler JDK 是 1.8&lt;/div&gt;&lt;/div&gt;" style="rounded=1;whiteSpace=wrap;html=1;fontFamily=Helvetica;fontSize=11;fillColor=#dae8fc;strokeColor=#6c8ebf;labelBackgroundColor=none;" vertex="1" parent="1">
          <mxGeometry x="-120" y="350" width="120" height="80" as="geometry" />
        </mxCell>
        <mxCell id="VKCgRyMsW_sbwXQrN_D4-12" value="ModuleA" style="text;html=1;align=center;verticalAlign=middle;whiteSpace=wrap;rounded=0;fontStyle=1" vertex="1" parent="1">
          <mxGeometry x="-120" y="320" width="60" height="30" as="geometry" />
        </mxCell>
        <mxCell id="VKCgRyMsW_sbwXQrN_D4-13" value="&lt;span style=&quot;color: rgb(8, 8, 8); font-size: 11px;&quot;&gt;compiler JDK 是 11&lt;/span&gt;" style="rounded=1;whiteSpace=wrap;html=1;fillColor=#d5e8d4;strokeColor=#82b366;labelBackgroundColor=none;" vertex="1" parent="1">
          <mxGeometry x="40" y="350" width="120" height="80" as="geometry" />
        </mxCell>
        <mxCell id="VKCgRyMsW_sbwXQrN_D4-14" value="ModuleB" style="text;html=1;align=center;verticalAlign=middle;whiteSpace=wrap;rounded=0;fontStyle=1" vertex="1" parent="1">
          <mxGeometry x="40" y="320" width="60" height="30" as="geometry" />
        </mxCell>
        <mxCell id="VKCgRyMsW_sbwXQrN_D4-15" value="" style="shape=image;verticalLabelPosition=bottom;labelBackgroundColor=default;verticalAlign=top;aspect=fixed;imageAspect=0;image=data:image/png,iVBORw0KGgoAAAANSUhEUgAAAtwAAAB1CAIAAADyR6ExAAAgAElEQVR4Ae2dCVATZ//HdzqOeR0YHXF0qh1lPKa1HVvN4FEcRAUcxaNUxduxr69aaj1QtJd9rVVrr79Vq1XeXmp5q1JftZoECCGQABHCTcIVECIoAlEQlRSLQvY/u5tnszl2NxCuwM9hms0++xy/z+85vnmOLfbX36b2/mXU18NfNxBor1/geSAABIAAEAACbk0A60Dpu2E8hiwy6us74BqIAgSAABAAAkDAfQmAKOm9sz7uW6ug5EAACAABIAAEOkAAREkvFSUY+a8DHoUoQAAIAAEgAATclACIEhAl7d5U5KZ1HYoNBIAAEAACvZwAiBIQJSBKgAAQAAJAAAj0CgIgSkCU9IqK2MvFOxQPCAABIAAEuoEAiJL2iRL1A4Oq7kE3HA6CPSXdUPshCyAABIAAEOhVBECUWESJ+sH9S1fzwq9WqR44lh3qB9X7t0iwN+V7sh0/0IliBURJr2onUBggAASAABDoBgIgSpiixPDFdhG2vUjJKkruHd4Z5zFHsS8XRAks+gABIAAEgAAQ6GQCnSZKFDnSC8VdPlR34lSEfVLqBzyixD6K63fEijhJtQNuMFPSDZIcsgACQAAIAIFeRaATRIki5+oH784e5fHq+0rz4HrhmAybl3k8IWfu0hhPv7hJ27N/KDHQ47c6I2ecMG6T6Na7YTKvmTEvLUsJk1TTKybqB/dlqoLVmxJG+0uGLZQHHCmKrrKM2TwpP3ggVxesfZeIO3iePOibkiuM8Z4jX3Vy5gihCPMRW/0JxaEx5qzVMekD6AfmZv5qPZWi5s73QV3Ub+m+b8V6ThMN9IubtC3rmPY+TeP01mGDX5634aTERpqAKOlV7QQKAwSAABAAAt1AwCVRguTIsInLPzoiL6GFBSEd5ib47szcf0N37ELOnPkiwTuaG2ggJ8VB7MRNqnf/q/teXLg1LA6brtiPZlnSiwr8fMXe23MOiXTfRWXPChIN310iQ3G5U04vKZg9U+y9LfuQSHc0KmtmgGjkR6VyFJcjX7W+KjKm9GSMbuNaEbY28yhxXXoypuziLSRKKqp+TLgVmXDr84+lmJ0o4c43RaYeLoyZdbTwe9mt06KCNaslLyzLjUalSr+d/f3XW6aO9rCRJiBKuqH2QxZAAAgAASDQqwh0UJQoc68RsyOeL05a9e9vUspuoiGWmgAgpIOP8mCFeURXXFG9IFR+Rg/wxEyJKOBiLfWwWl/oLxTN+6OO+vq/03Jsjjqyxhw36YpKwIjLnfKV03Jsrjrynjmu/IrKw0d5wLl8M+rrnVm+iT6ZYC9KuPO9ckaOzcn4GSFSlehPxugl1kd40qtyTn4bNt3b0yxN7j0AUdKr2gkUBggAASAABLqBQAdFyakwL6/p7395syINjbX0ekRGfT0hHYIyz6EgtSprpDB+WyaadSBESeymVPT1Qfn6IInvr3epFE59KsE2aCR03KycCcK4LSrzw9wpE3H/qblRbVBSf+qciYy41EwJW76uiBLufFPi04cLY32/0HxxvexX9V0Z0ltMYtS1+k7e6W83TBwy4V05iJJO3jzVDW0JsgACQAAIAAEXCXRQlFz+Yen4IR6jZm7c80dG0n2zYqBHWUI6zMs8TwuL1KxRwvj3M5AKIfeUbEaihI5FXRz/SIy9o4mh42blviyM3ZjMECXsKRNxbfeFWOJSe0rY8nVFlPDk+6Dut98y5m1IGO1PFO+FmbLFUZX0UhdtvvpO3pnj23wnDPGa/M9vNCBKQJQAASAABIBAvyPQQVGSUV+vKpId2L14/JBBL775z12X0uUGizRxNJ8h257llChxNFMifZdrpsSSMhF3TdaZVP15y99tEdon23WihDtfi+x4cD+l4m7k/8kHTk85orfgSr+dffKbsGnenl6Tl793VikjV3Zg+cZFuQ3RgQAQAAJAwO0IdFyUUGMtLU1GTA87WsCYz7DaU5Jqt6ckjm3Gwrw/A61xKK6qBELF52h7CiF32FMm4i7O+h3JI7X+7rnkSgnaYuKMKPlypwh7v1CB5mloPUFfsO4pYc/3uiQv7OfyOJSmOi17jFC2A0m0q+c3TxntwZQjVF4gStyuLUGBgQAQAAJAwEUCrooShjT51ydoRYZcvknw3UGevrno8PQNqyhJLy6cNVM8dkfOYXHpd79n+88Tjdijszp9M481ZeoUzMQ9eV9Kyr6/olm5OmbAW9n/pTUK57IRZQhR8lmKsCs68vTNrcuVZpklyy6PpE/f+Kd+RF5Hptyl5At3vtI/Uj18pPNPFROnbySF726Oxeakn0ZnlX/6Yh09O0JLn4z6ehAlLtZsiA4EgAAQAAJuR6BzRAlzNDVvdA3OOh6fPSfE/J6SU3bvKWGbKVE/eJCQVrBmc8LoWZJhwfKAI8WX71hWOgjRwJEy8b6QwrVbiLiDA2RvfpQXWWJ5IwjvTAmxraRSv3eXfKQvuTdFaFFOJ/fZ7VbxEWOLsy+Q8x/ke0rY871/L/KHmz6LY4j3lMyMfflf6f++aT5qZMON+RVEidu1JSgwEAACQAAIuEigy0TJ/Kzf0IIFc6x18ZoQJV2TsosF6/ToIEpcrNkQHQgAASAABNyOQJeJEsYZmU4csMmFIcu5nk5MubclBaLE7doSFBgIAAEgAARcJACixPI/5OtVugREiYs1G6IDASAABICA2xHoElHSq0Z3Ny0MiBK3a0tQYCAABIAAEHCRAIgSmCnpdy/ncbHNQHQgAASAABDoIgIgSnqpKMmor+8il0OyQAAIAAEgAAR6JwEQJSBKYKYECAABIAAEgECvIIDhTv97UP/I6WfhQSAABIAAEAACQAAItI8AiJL28YKngQAQAAJAAAgAgS4iAKKki8BCskAACAABIAAEgED7CIAoaR8veBoIAAEgAASAABDoIgIgSroILCQLBIAAEAACQAAItI8AiJL28YKngQAQAAJAAAgAgS4iAKKki8BCskAACAABIAAEgED7CIAoaR+vvvh0W8vzvmhWP7OpWbZzlGDyVxpTP7O7c82FttC5PCE1INBuAiBK2o2sb0Uwnt8Wg/kqT1VYzCr+JQnzEZv//PKSLSFw1SECrYaUrxePEQgEgrVXjXYpcIfaPc5yo+nPfw0X+B0vZwmG204QgLbgBCR4BAh0MQEQJV0MuLcn33xpb/zgANXPektBjdUNyZmG5ExD9BE5BqLEAqZDV425katf9Rj8emjIdAeihDvU+Qzro0MHD1r4813nY8CTdgSgLdghgRtAoNsJuL0oMerTtXXdjq1/ZFgRpQRRwuvqu3lp1U9Zn8o9/Ibna6sjsx4+urzWXpRwh9onylbbq39ZNGjw8kv37WPAnc4hAG3BGY7cbcGZFOAZIODGosSol5/eGTjW4/Uv80k/Nt9ZJZTvOa/1nRs7+dM7BdnFcwJix20uSG6kvdxaIi1cuz7hJT/J8ODEhYfLMxpQUEvd+7NFE47XWxbkW+9HBIpe+b6BvtOou71ne9LLsyVeCxSrTlaXM8Yh7X/k2AKtJK0oZGnsUH+Z797iJAMdD2XB/vmorGpfuOLVAMmwefJ5n5Um17UxnjU1FOp3bSXyHblEEfpdVTE9/89nL1Wq2MyS5aFxQ2fFz9hdJGemrModKBSZ12gCNWpGlvQlR0fMQQPXlUwSxn+mMBzaIX/RL3b8yvTDqcZndKI8Fy05V3KDl0qHThMJZsW/uatActc5GjiedVKGhRRp6fQzNV5Cxck76DtfqTi9gHPYK981fMjERR+eTXUoTcrjLmbUEyY8diRKuENR0YlP29rODMP1J/wFwzZee0Lf5KsbOA5tgVGvoC1Yt9Auagt09YQLIMBBwC1FCeqgh/usOfhHtsE84BEdcazP52WSOI3v1LjXPy65LtctmSPyPWfuq5+m540Sylb857b4Zp1MVhG+PsZrx+17ZjZtskOx2KKCXKQlWnO13kLZAa35u6nu9tt+4om7ii8oasRXCxcFicYeqKHVDjH8ByUuiNCcTayRXNXOCxB5humdnUk3VK2YI/IOKzibWBMnLduyQiJYWZTXYi6WqUa/eKZ44u6SC4oaybWiJfNFoz6urqcC+ewlShWYtHCv9nxSTYyoZFmwyGNzeRVdFxofp5JrNFGfJ2DtFCXcNEhRIp36XtbBP+9JlZVHdsRjM1TnaumMuS6eqvNHCePeOlMpVRsSFfqI9ZIBK3TFKAYXDadECXupuL3A6X3TkwrpqR1zvT04pAmbKEGWOZYsVKjj2k7HxHGT9uspglE7ZX9Z7vHVDWgL0BZYW2jXtwVLRYUrIGBHwM1EifE2OTviOXLGO19d1dRbnRohOmLJtlQTjhtPrBMtu9GC48//iBAN+cK8utP6tOXhk+fP2tqam58bm58/js8a4KO+gnryv1W5w4UJR3RmQhknZNjCgmykUcrOK7DAPOXf5tBHsszBPqooNNFCDP+Mr/cuqzBh2kXL71Y76owb1dGpmG/mDTT/0VZSNEko/STX/ETpOQUWkKdEGuWJLNNDqPqNypfPXrJUN39H0qlJmjmAjssoALGttZ2ihJsGKUpEoWJU6MbKEKFodYxTcyW3flNiczU3UfGe1T2UqRqqkZu5aDglSlhLxe0FHnvJ0pqMetmZ8MBxnqQ0UVWjqoJM4ZIdbJKFq7bT6eKt6n+/Jhj/wU0mYL66AW0B2gJbC+2GtmCpvHAFBOwIuJkoSQgfNmJmxOWixlY7S3CyIw5Px3H8rzMbRaskLTjeemWvyPMQ+pH+9PF/j6SMnYHWLHzEmDDlR3o/CrmCI/yRGsMfHlgsevl7y2pOwmEJtuVWFalmjM3PjboSH2H85wXmQpAzJZoMukjq/CFCxSnnpkrSj8VjK3RICxFJtLaa2pAYIvLdVI6mc3C8rOQNOl8+e4lSzddm0aXSFowVyr8upb+bLzogSrhpUDMl+zV0Rvc/nB+zMBrJLvq2o4tmYjZLGnz0VnRinVrXVI+EDfUsFw2nRImUrVT8XmD3vpUdxsrEM1uEQ185mG11m0120A85XNzhqu10zBblLm/B5EM5jNUIHNqCTduHtmC3lNmTbYGuvHABBOwJuJko0Z1fNWmoh/fsrSdjS5+gkdtsFc8gbco4kYD5KvbcqFNrG7K0DVm/pw9kihKcXMFZoSNGbV0xsSsCrd3gOB57AB2Rpc/KCqWfUntZcJzo8hYwhn+b3Qz21Bl3VP8nxahMGTfpSyLfzRVIVeF4uW4KnS+PvXal0haOE8q/YsofMpsOiBJuGtSekgOWzR20Nc5ctGRf0azelDRhtgTzEb/gJ9947RGtTLhoOCVK4tlKxe8F2u/UBe0Fpk3GyqSf9gS/MmSET9g1O0nqUHbQsR2GctV2FNMoeW+EYPoxG7fy1A1oC9AWerItoMoLn0DAAQE3EyU4jrfUZETtWzZp6KDRs8KOS3SP6F+IPB1x4xchohFH6ugplraUnAFWogQnV3AU31fhhT8lYsHaLDplHCd+o28oTKLUjPm/jXfQj39XRAnxGz20xGZMoR3laG5AdrCQDOexlxQldjMl35TRaZsvOiBKuGm4Jkro4pmaG5uUp5MF09P/eGS+yUUDx3NPJ2BLCi0TNMR8lfJMNUqQ3OjKJkr4vcDufRzHTU8q4k+HB4zzHOGz5ov/5VsvK5oL4FB2oMKxLu6w1nZzzMbLa4cOCoq0lUA8dQPaAjFrCG2Brn7Mi25oC8zs4BoI2BBwP1FCGUB31i/NDBdTAw9PR/zk6CqR14Ea9LPbpIlMtFq+IfQOcQYn4ILhxDrRyyfIIxOIFrGrIKRQQ8uUR02Z+Y330L4BZ0SJqbY6YmvK8h/qHqA0qc+75J6S60jfkHtK4ug9JebdDKjQTQlZHkJVFLXExGMvKUp8mHtKMtq7jk6WLTfRusA4jnPTcEaUsNGoTNUdvmgw0DkWF70ilH+L3gjGRQPH71+7iU1Li0YKpvJCCjYtS0LvtOAUJfxeYPd+xZXts8Z4cMgRypqOiRIqroPaTgXURS3x8FgWRa9BInA8dQPaArQF1pmSbmgLqJrCJxBwQMBdRQllCtlZv/8TtVLA0xGbND8mvTBNvuHcnbjU6qhI9VvrkjysZ0pwcgXnhfVKP2H8fuvXdZPnTSQ++0ovp9TFS8t3ro8duLQoH826OCNKbv+eTJy/FaZdstkAa6gKnU2dvqmlTt8MXFGYg+SOqfb2W37i1/aUXFLWSq4XhSwQjd5Xbd5fy2MvtXyTtDCCPH0jpk7fVNCnb+or7lNvSCNO38zOiCRP4iRrmpoYlaRVUzBOKF15rjqJCi0yUueguWk4I0rYaNyPUQ/2ka359U682pCYUnlwqxQLyE1Ep6+5aOA43lC9dq5ozHsFUYqaG5c1/v6iV78xILGH85SK2wvE6RtW76uObWKbHcFxvLE0NYH8d2N/oEAQeEBCfEksNOsu7lCGK4hLq9pOhlVGBgm81l1Fe5ktz/PUDWgLIo/N0BYs9cXqqsvaglUu8AUIsBBwb1FiZRRPR4zjfzddP542dX7M4NmygM8q8uV5nraihFrBEWHB2kx6UgTlQbypYlvSBH+JV5B8wQGdos6ypcUZUdJSUhoUGDM+XF9uiWdOulFX+XG4YuJcIuWgT3WJtVZ5PyzW736fyHfkYkXosTs6epjls5co1aKC2PTipcvihpDvKUlgvKdEdojYtGH7x3zPB1G6lqwLWX7BMeY3mmy8RS+GcNDgGf5Jo1lpmJqVZ7PmhsQNmSYS+EmnhOWeLULTRGREVhpk6KPSyg+2k6yWKNdF3tMjbUcEcs6UEOqB0wtc9pJZs/0n++Ckf9j98wpPoJ7nDmVLE93XfTtDMHJrDDpAhm7jTmx0hbYAbYF911cXtQVGBYVLIMBKoA+JElYb+2kAIUqCC+xOgfRTGn3P7LacQ5ME3nuTrURb3zOzUyyCttApGCERINANBECUdAPknsnCdv6mZ0oBuXYRgWcpH0wQvLY/G60hdlE2fSNZaAt9w49gRX8gAKKkz3oZOuI+61owrJ0EoC20Exg8DgR6jACIkh5DDxkDASAABIAAEAACTAIgSpg04BoIAAEgAASAABDoMQIgSnoMPWQMBIAAEAACQAAIMAmAKGHSgGsgAASAABAAAkCgxwiAKOkx9JAxEAACQAAIAAEgwCQAooRJA66BABAAAkAACACBHiMAoqTH0EPGQAAIAAEgAASAAJMAiBImDbgGAkAACAABIAAEeowAiJIeQw8ZAwEgAASAABAAAkwCIEqYNOAaCAABIAAEgAAQ6DECIEp6DD1kDASAABAAAkAACDAJgChh0uif120tz/un4X3K6mbZzlGCyV9pTH3Kqu42BtpCdxOH/ICADQEQJTZA+ttX4/ltMZiv8lSFxfDiX5IwH7H5zy8v2RLSPVdthQm6YwmPWronN2dzcaFUrYaUrxePEQgEgrVXjXb5cYfaPc5yo+nPfw0X+B0vZwmG204QgLbgBCTiERfagpM5wGP9mACIkn7sfML05kt74wcHqH7WWzgYqxuSMw3JmYboI3KsB0TJ8+jdImx3lf3wbSliD1x1tFSNuZGrX/UY/HpoyHQHooQ71Hkz66NDBw9a+PNd52PAk3YEoC3YIXF8o6NtwXFqcBcIWBFwe1Fi1Kdr66xMgi+dRaAiSgmiBMFk7Yjv5qVVP0VP2X3mHn7D87XVkVkPH11eay9KuEPtEsPZanv1L4sGDV5+6b59DLjTOQSgLTA4drAtMFKASyDASsCNRYlRLz+9M3Csx+tf5pPmNd9ZJZTvOa/1nRs7+dM7BdnFcwJix20uSG6kjW8tkRauXZ/wkp9keHDiwsPlGQ0oqKXu/dmiCcfrLQvyrfcjAkWvfN9A32nU3d6zPenl2RKvBYpVJ6vLGeOQ9j9ybIFWklYUsjR2qL/Md29xkoGOh7Jg/3xUVrUvXPFqgGTYPPm8z0qT69oYz5oaCvW7thL5jlyiCP2uqpieQOCzlypVbGbJ8tC4obPiZ+wukjNTVuUOFIrMazSBGjUjS/qSoyPmoIHrSiYJ4z9TGA7tkL/oFzt+ZfrhVOMzOlGOi3ztaLpI9PqRULxdRcdh9yCO8+XbdltRuHxF/DC/uKnhJSni3IHC1F8ZozirRXylku8aPmTiog/PpjqUJuVxFzPqCYc+diRKuENps3Ect63tzDBcf8JfMGzjtSf0Tb66gePsJKEt0BgZF9AWCBiutQUGTrgEAqwE3FKUoA56uM+ag39kG8wDHtERx/p8XiaJ0/hOjXv945Lrct2SOSLfc+a++ml63iihbMV/botv1slkFeHrY7x23L5nJtMmOxSLLSrIRVqiNVfrLZQd0Jq/m+puv+0nnrir+IKiRny1cFGQaOyBGlrtEMN/UOKCCM3ZxBrJVe28AJFnmN7ZmXRD1Yo5Iu+wgrOJNXHSsi0rJIKVRXloP4WpRr94pnji7pILihrJtaIl80WjPq6up8rMZy9RqsCkhXu155NqYkQly4JFHpvLq+ia0Pg4lVyjifo8AWunKOGmQYoD6dT3sg7+eU+qrDyyIx6boTpXS2fMfvHosVJVK1NVf/qOCHtHKyaua2WqugKkHTk9SIkS1nxbK0p9p4pfjSi5pKy5Hp2/amXCAIYo4bKIr1SmJxXSUzvmentwSBM2UUKzcChZqFDHtZ2OieMm7ddTBKN2yv6y3OOrG5wkoS1YQNJXbKKEq+aYhTJrnaQTd3DBV+s4Pdjb24IDe+EWEEAE3EyUGG+TsyOeI2e889VVTb3VqRGiI5ZsSzXhuPHEOtGyGy04/vyPCNGQL8yrO61PWx4+ef6sra25+bmx+fnj+KwBPuorqCf/W5U7XJhwRGcGk3FChi0syEYapey8AgvMU/5tDn0kyxzso4pCgyUx/DO+3ruswoRpFy2/WxFsR5/V0amYb+YNNP/RVlI0SSj9JNf8aOk5BRaQp0Qa5Yks00Oo+o3Kl89eslQ3f0fSqUmaOYCOyygJsa21naKEmwYpSkShYlToxsoQoWh1jFNzJWS5WCeHuT3InW95lBLzz5YhD1ZEJWMMUcJjEVEs1lJRLE1GvexMeOA4T1KaqKpRRjRpDtnBJlm4ajudLt6q/vdrgvEf3GQC5qsb3CShLVjoois2UcJTc4hZQ2gLCCJ8AgEnCLiZKEkIHzZiZsTlosZWe9vIjjg8Hcfxv85sFK2StOB465W9Is9D6Ef608f/PZIydgZas/ARY8KUH+n9KOSstfBHagx/eGCx6OXvLas5CYcl2JZbVaSaMTY/N+pKfITxnxeYC0HOlGgy6CKp84cIFaecmypJPxaPrdAhLUQk0dpqakNiiMh3UzmazsHxspI36Hz57CVKNV+bRZdKWzBWKP+6lP5uvuiAKOGmQc2U7NfQGd3/cH7Mwmgku+jbrBfswz+3B4kBQMqW782jUmyFzmJ9ag5zpoTHIqKo7KViGmKsTDyzRTj0lYPZzLvEdQdECVdtp5NvUe7yFkw+lMNc88P56gbOTRLaAo0XXbCJEp6aw1knUdocn+y1jtuDnPn2eFvgMBiCgICbiRLd+VWThnp4z956Mrb0CRq5zV7k6YhNGScSMF/Fnht1am1DlrYh6/f0gUxRgpOz1tS4pSsmdkWgtRscx2MPoCOylr0O0k+pvSw4Tgz/CxjDf6bGS6g4ecep2qX6P+vB0joSke/mCqSqcLxcN0WI8uWx165U2sJxQvlXTPlD5tUBUcJNgxQl8Qe01pa04xtbR8znQaIjZs3XljOxpcayp4THIqLwbKViGGasTPppT/ArQ0b4hF2zk6QdECVctR1la5S8N0Iw/ZiNW3nqBh9JaAsIL/3JJkp4ag5nnaQTZ79gq3V8HuTMt8fbAru9EAIEcDcTJTiOt9RkRO1bNmnooNGzwo5LdI/oX4g8HXHjFyGiEUfq6CmWtpScAVaiBCdnrRXfV+GFPyViwdosOmUcJ34PbShMotSM+b+Nd9CPf1dECTFTElpiM6bQFZPI13amRHawkAznsZcUJXYzJd+U0WmbLzogSrhpdJko4fMgZ0dc8GMiNk+biaxvuJHGXL7hsYiIxTY8EGGmJxXxp8MDxnmO8Fnzxf/yrZcVzVl2QJRw1XZzqo2X1w4dFBRpK4F46gYfSRzagpkv/cEmSnhqDmedpBNnv2CrdXwe5My3x9sCu70QAgTcUJRQTqOlyUszw8XV5D2ejvjJ0VUirwM1aKeDSROZaLV8Q4wAxBmcgAuGE+tEL58gj0ygGkKsHIcUamiZ8qgpM7/xHto34IwoMdVWR2xNWf5D3QOUJvV5l9xTch3pG3JPSRy9p8S8Yo0K3ZSQ5SFURVFLTDz2kqLEh7mnJKO9e0rIsuUmWhcYx3FuGs6IEjYaZFat/9srwsIrm2zz5fMgZ0fcnJ73kjA25KxB3/D3Pd2dPRtimcs3PBYRJWErFV5xZfusMR4ccoSyo2OihIrroLZTAXVRSzw8lkXRa5DUXZxv+YaPJLQFBJL+hLZAo3C9LTCSgksgYEvA/WZKmBaQnfX7P1ErBTyDtEnzY9IL0+Qbzt2JS62OilS/tS7Jw3qmBCdnrV9Yr/QTxu+3fl03ucde4rOv9HJKXby0fOf62IFLi/LRrIszouT278nE+Vth2iWbDbCGqtDZ1OmbWur0zcAVhTlI7phqb7/lJ35tT8klZa3kelHIAtHofdXm/bU89lLLN0kLI8jTN2Lq9E0FffqmvuI+9YY04vTN7IxI8iROsqaJKQVaNQXjhNKV56qTqNAiI3UOmpuGM6KElQbpXYKnv+qwtIY8fWPQmYnxeZBTlOD4U9mx5BHkkeMBAaoffspiihIei7hKhauObWKbHcFxvLE0NYH8d2N/oEAQeEBCfEksNFDVmDuUWdXRrAmq7WRYZWSQwGvdVbSX2fI8T93gI0kkRKxmQlugkUJboFHg1IK1gxbK0xaYKcA1EGAj4N6ixMoqno4Yx/9uun48ber8mMGzZTca7SsAABOdSURBVAGfVeTL8zxtRQk1ay3CgrWZ9KQIyoN4j8W2pAn+Eq8g+YIDOkWdZUuLM6KkpaQ0KDBmfLi+3BLPnHSjrvLjcMXEuUTKQZ/qEmut8n5YrN/9PpHvyMWK0GN3dGhOhe/XMClKFhXEphcvXRY3hHxPSQLjPSWyQxLLu+TpjTIhRdZbQVqyLmT5BceY32iy8RY1J0WMtew0nBElHDQIKE0Npz9SeM8k9/Ewt4lwe5BHlBDLLM2NxuKyJ4anOJ6czVy+4bGIchRbqVANcfiZfXDSP+z+eYUnUA9zhzpMkHFT9+0MwcitMegAGSME2oL1JneihUJbYFSQHmkLVvnDFyDAQqAPiRIWC/vtbaIjDi6wOwXSb3lYGX7/2k1sauZ1xhvwrILd4UtbzqFJAu+9yWhtzx3K3FNlhLbAQb4PtAUO6yDI7QiAKHE7lzlbYNv5G2fj9dnnWgyN1IpVglS3cqFoWHil3V4MN7L9WcoHEwSv7c9Ga4huVPTuLyq0BRvmfast2BgHX92bAIgS9/YfR+mhI7aBQ/wiJLb1iDwD5IH7y9To3Xc2j8HXvkcA2oKNT6Et2ACBr72HAIiS3uMLKAkQAAJAAAgAgX5NAERJv3Y/GA8EgAAQAAJAoPcQAFHSe3wBJQECQAAIAAEg0K8JgCjp1+4H44EAEAACQAAI9B4CIEp6jy+gJEAACAABIAAE+jUBECX92v1gPBAAAkAACACB3kMAREnv8QWUBAgAASAABIBAvyYAoqRfux+MBwJAAAgAASDQewiAKOk9voCSAAEgAASAABDo1wRAlPRr94PxQAAIAAEgAAR6DwEQJb3HF1ASIAAEgAAQAAL9mgCIkg64v63leQdi9doofcycXsu56woGHmwf22bZzlGCyV9pTO2L5urTfcxNfcwcV73rhvF7qQdBlLS3LhnPb4vBfJWnKtobkeP5tsIE3bGER+39n9B3xv9mzIE5xb8kEf/jOurPLy+Zo+BUkCp3oDDlR3f+X+5ym/hQlGYBQmERireruCN1Qahjzg482AV5W5LMPjhJMOVIAX0j5YMXBbN+0JPfq3+eJxD8w+6fYO1lIxmu/2GuXeA/Vl58SCfGedFquBm5c7GP9/ChI8ZPX7r3XF4j5+OsgU1//mu4wO94OesDXRHQFW6CfqMrPNVpaUK/0TGUIEray6350t74wQGqn6leuL2xHT//PHq3CNtdRXXcjh9xdLczRIkDc4zVDcmZhuRMQ/QROQaiBMeJzkWYeiSNYIL+7us6OCI6cqST9xyLEgcedDK9jj3GJUqeVuelUP9+3PCS4PUdv5u/Fda2kpnpf5greGnDj+a75o+CmmfOlKS18NjMIR6TVn19MSZeEvX54vGCF98+f9eZmDbP1EeHDh608OeORLVJqT1fu8JN0G+0xwPd/iz0Gx1D7vaixKhP17r9b3QXOpfgguyOed6JWBVRShAluFmUZPzZ3oksJwi37xHHoqR9aTjz9N28tOqnrA9yiRJLpIxPxgnePFpiuUFeEaJk3CcZNned+5p7+A2B9y7l3+anH1/bOEQwJ7KSNTJbz1D9y6JBg5dfus8a0X0CoN/o1b4iRQn0G+32kRuLEqNefnpn4FiP17/MN5tNzRzEZpYsD40bOit+xu4ieV2bBYmuZJIw/jOF4dAO+Yt+seNXph9ONTJ+o5kaCvW7tia9PFsycoki9LuqYsbEheyQxGoC327+oFF3e892Iq7XAsWqk9Xl1n36o7KqfeGKVwMkw+bJ531WmkyXKl87WiiyStlHjDm9NEDYu7BAlqVbsSJuqH/8mxHFiQbLMnnWSRkWUqSl7c/UeAkVJ++g78QIh7IO1KjRbeYnuyhp1csL3g6VevlJ/T6+lSPLHdSO5ZuWnCu5wUulQ6eJBLPi39xVILnL8BHO5QUei3j8i7N6gbSZw4PcnQtV6yRpRSFLY4f6y3z3FicxvIDj3Ply2YvjnJw5PchXqrbbisLlK+KH+cVNDS9JEecOFKb+isZp+a7hQyYu+vBsqkNp0lOiRPPlFMHrB1Fbx1uTIl4UBPyHrs+MimvfMzAC9Sf8BcM2XnvCuAX9BvQb7OMCd/vFod9wst9gNDieS7cUJajTGe6z5uAf2QZaWBCdS2DSwr3a80k1MaKSZcEij83lVTQBYtCSTn0v6+Cf96TKyiM74rEZqnO15mBTjX7xTPHE3SUXFDWSa0VL5otGfVxdj+LWV9xH8/YOFjVMdbff9hNP3FV8QVEjvlq4KEg09kCNZXbfULVijsg7rOBsYk2ctGzLColgZVEe9bP70WOlqlamqv70HRH2jlZMXNfKVHUFDShjzk/C3uCkRXss9nq+W0H30jxDeOPjVHIxIurzBKydouT5Ld30qeLJH+kuJ9dcj85fvzFpsNOi5Kk6f5Qw7q0zlVK1IVGhj1gvGbBCV4zM5PYCj0Wc/sU5vIDj3B4kRYn6j8fPjc3o7+82Wv0RXghKXBChOZtYI7mqnRcg8gzTW9YGuPPlrHU8nDk9yF2q1opS36niVyNKLikJD65amTCAIUpMTyqkp3bM9fZwKE16SpS06c8vGfXS20cV5YaGOl38/sDh4/551WaSlK1nQPULN2m/niIYtVP2F30Hx3HoN6DfYBsXoN9g9mau9BvMFsd97WaixHibnB3xHDnjna+uauptDsEQnYvPzd+RHGiSZg4Qqn6jB3hi0BKFitEsfGNliFC0OsYsaUrPKbCAPCUKfCLL9GDGZVC0nz8oO6/AAvPoieVHsszBPqoolG91dCrmm3kDzbu0lRRNEko/yWWkiLswDctuL88QjvIntrW2U5ToziqwOblJSAyWRykxp0XJrd+U2FzNTZT7s7qHMlVDNXIktxd4LOL0L7cXuD1IiBJ65y918Z4eTSuQQxrD3fcuqzBh2kX0S5w7X257neTs0INkW7BUQptSES7zz5ahpZCKqGSMIUoo55iMetmZ8MBxnqQ0UVWjh10WJR8kGxn//mqhtpuQmZqePWUEGY1/o4pBFakh7dtFY4mNtAKBx6ur/qNpQtUIx7l7BvRcq/rfrwnGf3ATVV3qPvQbzH6Sp5UhlA5rHRVo30NS952szygHq0/oN5ijhjv2G1bu5PziZqIkIXzYiJkRl4saGR2ZxT6ic5mvzaJvaAvGCuVfl6Lv5C/p/Rr0Fb//4fyYhdFmsZBwWIJtKr9HB5aVvCGM/9xyxoAOwO2bHBF3y60q+me0rsSHETf9WDy2QqezJIC3tposP7SJ+y6IEjt7vykz59R1nUvKN3HYah19eMGUmjPAaVHSnJ43SigNPnorOrFOrWuqRyqQKjS3F3gs4vQvtxe4PUjOlKiO5jZkadGf/ik9rhG1Lkhj2Sehzh8iVJxCUyX8+bLXOic5OxweuEt186gUW6GjWwZOeNCyfMOoqjhurEw8s0U49JWDaO+Si6LE5vSNwHNbgiW/++fesjq8s+k6kkI4/lfOd3NffHFWeKRYmZp47dSWacPGvv1zKVIt3D2DOYcW5S5vweRDOcz1QvNMiV07gn7DDM1m2Rc5y2GtowLte0jqvpP1GeVg9Qn9BnPU4O4nneTs0INd129YuZPzi5uJEt35VZOGenjP3noytvQJPYGOLCSALmCKksJxQvlXtBwgBq34A5ZNFiga+Rl7QIxtrkCLOTherpsilH5Kr2AznrVvckRcm1/SjLiq/7MeABhJoUsXRAm7vTxDOMrbYdWkAu0tpe4nfxOLrdFZzkS3bwNmS/YVzepNSRNmE9t0XvCTb7xmOQvN7QUeizj9y+0Fbg86s6fEIoWtO3H+fNlrnZOcHXrQti1wl4rwoCNRYqxM+mlP8CtDRviEXUMyy0VRIhi+/pdsxr8cPZrZxHH8maGUEZSdXdFAN/IH/10+eMiyKAOqt22VkYGCYVtE5tkS7p6BimSUvDdCMP0Y3SGgpGxZaaHfYN+LhqA5rHVUIPQbFAfoN5j9Bqo4/J9uJkpwHG+pyYjat2zS0EGjZ4Udl+geMX71EJ2L3S8eeuYA5xy0HGlP2cFCBwTtmxwRd0NhEv0zmrhovIPWa4jfyqEldj0hM2UXRImdvfQvvNzTCdiSQsvEEPELXnmmmpkvcd2BzsVJJW6bk+13U3Njk/J0smB6+h+PzGHcXuCxiNO/3F7g9qArnQt/vrYzJZZa5yRnhx60HWitRUnBj4nYPG0m8kjDDeLMM71hDcdx05OK+NPhAeM8R/is+eJ/+cyF0vwjUwRvHLbUK+We4YK5kZatW1Si7KdvXoxIQfm25zPns4mCKV9assXxtA/HCHy/szQsjp6BzKjx8tqhg4IikbiyZA79BnNGmaeVIWwOax0VaN9DUvedrM8oB7ZP6Ddw7n7SSc4OPdh1/QabO+3vu58ooWygO6CXZoaL0UBLALXaY5HBXCvlFiXmXQVoNaEpIctDqIpi/Iij2dk3OSJuSKGGlkePmjLzG++hiee75J6S60ijkHtK4qz3lLT+b68IC69kLJHTuREXptrqiK0py3+oe2B1m9rNwNxDY2Xv/Ws3sWlp0Wi8r7yQgk3LktCrDigph1WTCiRLnpuInqQ/nVkbZitzZaru8EUD/XsXLy56RSj/Fi0FcXuBxyJOUcLtBW4PuiJK+PMNtOxksql1znBmk5XcnUtzet5LwtiQswZ9w9/3dHf2bIhlLt9UXNk+a4yHvRyhKoAhaqlgyLqrj83VofqnYIHHJglqOKiSdLooqSVO8r51tgZl0FpxarZg8IYrtk3UYc9ARKqLWuLhsSzKZmssEQL9BrOf5GlliD/0GziOQ7/hfL+BKg7/p7uKEsoysgN6/ye0IkN2xEkLI8jTKGLq9E2F5Scc56Blqr39lp/4tT0ll5S1kutFIQtEo/dVo72qVhztRQl5dkPis6/0ckpdvLR85/rYgUuL8ultL4aq0NnU6Zta6vTNwBWFOUiyUEkTJfdXHZbWkKdvDDq0TZIKvf17MrE8JEy7ZH2fiBUgD9zNYm9D9dq5ojHvFUQpam5c1vj7i179xoCkEU6fJyJO38zOiKReC6ZpYgqjVk3BOKF05bnqJCq0yEiddH5eppvmQ56+Sam5EZ2/dq3c/o2ubGW+H6Me7CNb8+udeLUhMaXy4FYpFpCbiE5Q83iB0yJu0YlzeoHbg6QoYX15GlnrGIuG1nMSPPly1jpuztwe5CkV/lR2LHkEeSZ8QIDqh5+ymJ2L6tgmm9kRqwZguLJ65KCJK768FBsv+e3TBWMEE3bEI4lCP9jpogR/mBA+UTB8Rtixy7HxkgvfrJ8y1HPqZ5lWx2jo3Kn5VEvPgON4ZWSQwGvdVVsNQ0QhWUG/gehxtjLuWkclAf0GxQH6DVSl2vfp3qLExlaic1lUEJtevHRZ3BDyPSUJ9BtBcJxn0MLxh8X63e8nTfCXjFysCD12R0cP4NbZEOqYcX6ECiROq28j4noFyRcc0Cnq6LVwIrxRV/lxuGLiXCI06FNdYi09qYKSbmo4/ZHCeya5N8Vu40tLSWlQYMz4cH25VapUZ6oVqYpCljqyF8cflVZ+sJ20aIlyXeQ9PUMJ2b55hdoTw3yvCVG0lqwLWX7BMeY3mmy8heakWssTtCHLifeUTI/QpcU4eM08W5lxU7PybNbckLgh00QCP+mUsNyzRVa/srm9wGERr3+5vcDhQaJzsd0zZHnNPN/wz+N9Tnu5OHN7kLdUOG5qbjQWlz0xPMXx5Gyb5RtULx1+mhpyz+8OmTFx1PDRk2aGfhJdYq2VyTidL0pwvOWO7LuwBVPGDBs6YpzPkvAzqjq0zdVhMa1u6r6dIRi5NcahhoF+w6qfhH7DqubwtF/oN5jLvtbkOvitz4mSrnzDKcn42Z8fW5/T6SB5iAYEegsBYsZ+auZ1NF/VW4rVeeVoyzk0SeC9N9lK/tLJE6IE+g0aB1wAAecIdFG/0edECfM0inNknXnq8Z365EyD8mb1ue9VY4Rx78j6bv/tDA54xv0JtBgaqfcBJkh1KxeKhoVXOtht4f5mkhY8S/lgguC1/dn0iqq1XbazStahrnyDfsMVehC3FxLohn4DRIlTficOo/qIX5gR99ra9P1xj5kbL5yKDw8BgV5GgPiVQ2xUEnkGyAP3l6kd7p/qZWXuouJ0nSiBfqOLXAbJ9hSBbug3+pQo6Sk/Qb5AAAgAASAABICA6wRAlLjOEFIAAkAACAABIAAEOoEAiJJOgAhJAAEgAASAABAAAq4TAFHiOkNIAQgAASAABIAAEOgEAiBKOgEiJAEEgAAQAAJAAAi4TgBEiesMIQUgAASAABAAAkCgEwiAKOkEiJAEEAACQAAIAAEg4DoBECWuM4QUgAAQAAJAAAgAgU4gAKKkEyBCEkAACAABIAAEgIDrBECUuM4QUgACQAAIAAEgAAQ6gQCIkk6ACEkAASAABIAAEAACrhMAUWLPsK3F+f8jun1s97vT3+ztWg81y3aOEkz+SmPq1Gz6m4/6m72dWlkgMSDgzgT6oihpeXzxcOrE2ZIXhCLMR+wfRfzv84p/SSL+92PUn19eMqvPjOe3xWC+ylMVrE/YB1RHp2LTsmX2AW5wpyP2umpWqyHl68VjBAKBYO1VYzsT44r7vCb5h22LhGOHe7348ozQD37La3ReGbTV55yPeNv31VEjvCf7r/nsamkH/6eLTX/+a7jA73i5jVlQJ22AcH3tiTrJVR4IAwJAoPsI/D+hPKVGipctIgAAAABJRU5ErkJggg==;" vertex="1" parent="1">
          <mxGeometry x="400" y="180" width="606.87" height="97" as="geometry" />
        </mxCell>
        <mxCell id="VKCgRyMsW_sbwXQrN_D4-16" value="" style="curved=1;endArrow=classic;html=1;rounded=0;exitX=1;exitY=0.5;exitDx=0;exitDy=0;entryX=0;entryY=0.75;entryDx=0;entryDy=0;dashed=1;strokeWidth=2;fillColor=#d5e8d4;strokeColor=#82b366;" edge="1" parent="1" source="VKCgRyMsW_sbwXQrN_D4-13" target="VKCgRyMsW_sbwXQrN_D4-15">
          <mxGeometry width="50" height="50" relative="1" as="geometry">
            <mxPoint x="150" y="445" as="sourcePoint" />
            <mxPoint x="419" y="490" as="targetPoint" />
            <Array as="points">
              <mxPoint x="260" y="360" />
            </Array>
          </mxGeometry>
        </mxCell>
        <mxCell id="VKCgRyMsW_sbwXQrN_D4-17" value="" style="shape=image;verticalLabelPosition=bottom;labelBackgroundColor=default;verticalAlign=top;aspect=fixed;imageAspect=0;image=data:image/png,iVBORw0KGgoAAAANSUhEUgAAAsYAAABpCAIAAAC233LwAAAgAElEQVR4Ae2dCVAT1x/HMx2nqQMDgw6Ox6jjMZV2bGsGj+rgAegonvWux2itWuqJV1tra72qVv8erVTpqZZ6F60mAZIQCEeEQLjCGRAiagTCISp4oMj+Z3fzNpvrbcJRI/4cptndt7vvvc/vt7/33XdseQT8AwJAAAgAASAABIBAqwnwWn2HjnGDF43PO0ZFoBZAAAgAASAABF4OgddBUrzIi9EeibnfaJdww+k1kbyR8aGlds+ABCAABIAAEAACQABP4HWQFM8vbBTyNt5qsEvi8fktUo8A5e86u2dAAhAAAkAACAABIIAnwCEpGnQpOZX4O7h+KqekaPsq3MlK1j9p+9vCHYEAEAACQAAIuCwBu5KiQSc/vj6wn9t7+7KNhc/5Rc6blBOVVjh7TrTXaOmIjfnyyhemimkLBwuk3ykMu9fJu/tFDZiXsiep4Zkpubk2T7dhVdzbY8U9pinmHL5VwOo04LgzQdRpb25eS17bZZJi/jF9Cbu1xuSbndNbIOT5isz+BKK1SlQsZeabzAmBGhU6zPzi8iUaMyIyg2ZKvIYJ+aOlH27IFd8x0ZBv8Pb0mfLlySQQFgxM2AACQAAIAIGOTcCGpEBiwtt3wa6L6QZGFpANf2Dc5C05p+PKI4WFs4KEbitKbjF4yKZdMvRz9a5/70riy/auk/JGKE9VGJOby3VTR4l8NhaeVZSLr+RPmyjsuVVfg67F37m58uZHfiKfDQVnFeWiy3lTxgv77SivQ9cSmHzvP4hXVsiU+m+WCnlLc0TkdoVMWZlbiy6ue5CUZkhIM4TvjOFZSQp8vk9U2T0F0dNPlElUhliFbtNicae52gJ04+aHpZLQdf593UBYICTwCwSAABAAAh2cgJmkaLhJ9Uy49xixdP9lTY3FGgiy4fe9fgY15vWStE4C5V9M80w27cI5IjQJsq5shkD4caRRkBSdUvACsuJR4kNZmhvrWvydi08reIFZ8U+NlrgvS/PwVYY7li91DffAR8EfcdaSAp/vjb/ief6a68g9nlXekylr9ebImht0shMhgf3dKWGh1KMqoIvgFwgAASAABIBAxyFgJiliQrp2G7XpUn5dk60Kkg3/xBw1k5ST208g/6EI7VO9Bds1aJeo+nJi5OQLxuGNmD1i3vKSu0xiceH7AunOXOM+/s7ktStv3Hr8vIH+0xb6sq6leyns5Utl0EJJgc/3cUpWT4Ek6NCNC7GVKm19DVJLTBVNGw1lsSdWCrwG7Uo3HYMtIAAEgAAQAAIdjICZpNCenj/Yy63v2FXHoooeNlvWlGz4J7ElRV5/gXy/Fp1GSgrpjhy0a/4btUPEW1GKhkEIokQ7RCD5xnyWBkusmN2ZvNZyPoTpWkpS2M2XKkULJQVHvkRjeoTm4+VxA8eKeb6iN/zky67YWqfaUBb32+agQZ7dfIOv3DGHAntAAAgAASAABDoQATNJQRBEY3lq+LZZg7069x4dfFSsvW+acUjY7Es4UIxgYCWFrV4K2a4847X4O5PXLsmLy6lVm/7qbjOzO7H5Uhm0UFJw5IvqTRDNj+vq448n8IenXLzPOvqwVHo8JKC/ezffBd//k205jGQ6EbaAABAAAkAACHQEApaSgq4TIyx6jQoR6Y31JBt+s7kUqVZzKez2FhjnJaDRgfoYtZtAGY6mZeDvTF47I0/DiJv79WnZdXeZeQnckqLpny1CXkhZvX172Z1LYT/fsiTtnnMGA3PPgvxBAvnBEuN+acTa0X3cQEwweGADCAABIAAEOjwB25KCrjYlLFb/hsYyyIZ/UtzkTdSKDxG94qPUfMWHXUnRXHFzup/o3c2F5+MrxFfzZ0wS9t6mZ2ZY4u9MrbwQ+24rupRYKZWUrF8c9ebM/Gxmuge3pKD6V8Yo90jKqRUfBu1Do1lrSqsSmBUfY1PDqO0ETT0tPvD5VkWqPHxlC/68LVUZYhPLdq2S8AIyY9HqVuWR5dAz0eEfHqggEAACQAAIsAngJAX7PIKgGuYpuVEpBTNnRXtS36WIsfouhb25FARB3CvQbVwdN3CMuMdUxZwjt7XMyAXnnenvUqwhr+0yXj5ph1ZRyZro4YCkIOprj3+l6DuKmpPBmvAh201Og7D8m5GPRBT1PQx7+TY/jj+p9p8R7TlMyPeTDAnOPJmPOmEswMEuEAACQAAIAIHXgICTkiIotz1WLZC9FO1z59fAglBFIAAEgAAQAAIuQcBJScFe8dF25acGPlhrSdruznAnIAAEgAAQAAJA4L8hAJLiv+EMuQABIAAEgAAQ6OAEnJAUHZwEVA8IAAEgAASAABBoBQGQFK2AB5cCASAABIAAEAACiABICkQCfoEAEAACQAAIAIFWEABJ0Qp4cCkQAAJAAAgAASCACPCqa1gfkUZH4RcIAAEgAASAABAAAk4RAEnhFC44GQgAASAABIAAELBNACSFbS5wFAgAASAABIAAEHCKAEgKp3DByUAACAABIAAEgIBtAiApbHOBo0AACAABIAAEgIBTBEBSOIULTgYCQAAIAAEgAARsEwBJYZsLHAUCQAAIAAEgAAScIgCSwilcr9DJLxqfv0KlfX2L+li2vif/g/2a5tcXQRvUHLy9DSDCLYBA6wmApGg9Qxe8Q8PpNZG8kfGhpaayFfwRx/MVGf/8shJMKbDVAgJNhuth66f69vX26jZg+Mwtp7LqWnATgiDq//3Um+93tKRlV8NVJAHwdvADIOAqBEBSuIol2rQcj89vkXoEKH/Xme7aoK9NSDMkpBku7JXzQFKYwLRkqynvyChPt8HzfzgXKRWH75w6gN/9o9N3WnCnmgtzPDpP/r0ll7Ygtw56CXh7BzUsVOsVJOCikqJBl5JT+QrifBWKXBoeD5KC01B3spL1T+yelbnnfX7fDfFPjSc8uLLMkz8urMzu+fb8Wf/HlM4es89X2b0QElpJALzdEYB4b3fkDnAOEKAJuJykaNDJj68P7Of23r5sqoSPb88XyDefzhnpH/XBN7dz0wvGBUT1X5GbYOpnbiqU5C1cHNPLT+wdFDt5T0lqLTJuY+XqscKBR2tMw9RNVZsChYN+qmWO1Glvbl4b9/ZYcZdJivnH9CWsViTnFzlvUo44OX/GzCivMbKRWwriDMx1KAv7v/eLb20LUbwTIO46QT7hu6KEyhesc5tr83QbVpH59pimmHP4VkEDSuSqL12qqLTC2XOivUZLR2zMl7PvrMx8UyA0jm4EalToruxfTJDF0CC0hYMF0u8Uht3r5N39ogbMS9mT1PCMfV/cdmNGRGbQTInXMCF/tPTDDbniO47RIAj1MRlvRn4Oc/M0TReB4thttM9VKqwVCEx95Ru8PX2mfHkyyaaw0Owbwn9vF+2hBEE0xW3qzg/4hSkVKh3ZKW/hz6wkgtD9OIbfddmVh8xBLusTBHg7y3PA282fwXbydsY9YQMIcBJwIUmBgq+374JdF9MNxuaKDLJRvjuLxdGakUOj39taeFWunTZOOPKUMQ4/ScnqKZDN/eWm6HqlTFYasjiyy7qbd431fiHbHcWbkpuJlEBTZk5fgWxHjnG/ufLmR34inw0FZxXlost5U8YL++0oZ7QK2XiPj520SXMytlx8OWdCgNA9WOdoD7Xh1txxwr7BuSdjy6MlxSvnivnz8rMajcVqLtdNHSXy2Vh4VlEuvpI/baKw51Z9DZ3IVV+yVIFxk7fknI4rjxQWzgoSuq0oucXYue5BEjW6Eb4zhuekpMDToCSFZOjn6l3/3pXEl+1dJ+WNUJ6qYDLGbTxRZfcURE8/USZRGWIVuk2LxZ3magvQFTgaDkkK+6XCWwFr/eaHpZLQdf593WwKixe609N69vrokKLEUFuplW4P9O7/yWWLbjXb/oxqTRBEc84PQ/g918semY5xWR+8Hbzd7jPYbt5u8k/YAgJcBFxCUjTcpHom3HuMWLr/sqbGbKUCGWTFa5KaCaLhx0XCWdcaCeL5xU1Cz++NAbzpSeO9h8+fvXjx+PHzhsfPH0jVnXxVEShKP1Vmegti9mqNGFJ/lPEm56YjhVF8WsELzGK6r+/L0jx8leGok4NsvFm7dy8peYLkc6Y3Shxa/YUk3si0a6jv4UVh/mCB5OtM4yVFpxS8gKx4pDAeytLcBMq/6Hy56kuV6voZJHzqJWmdmGtZJSInYzopKfA0KEkhnCNCha4rmyEQfhzpUD/Fjb/ief6a66h4zyrvyZS1emRmHA2HJIXdUuGtwFFfqrTNDTrZiZDA/u6UsFDq0UgHQRC1yQen9OO/9dZbfL7bO/N/0dSj6hEEzp9NZzWpvn2XP+CL62yEXNYHbwdvt/cMtqu3m9wWtoAAloBLSIqYkK7dRm26lF/XZF1WKsiGpBAE8ejEMuF8cSNBNEVsEbrvRi/ITx78vTex3wjU2+8r4gkSf2VeGKmxD8GvdAt8b8dU4ds/mcZBYvaIeStv3KK0SMPj5w3aQl+BdGeusRBUL4UmlSmSKttToAh1rJsi5YiUN1eLlAx5i6am5hdIypD5Li9BXSkEUVz4PpMvV33JUk3MUTOlysntJ5D/UMTsGzdaICnwNOheiu0aJqOqLydGTr6ARBNz2NbGY7InSRJ06MaF2EqVtr4GyRL6XBwNhySFxF6puK1g3/pm9Wgoiz2xUuA1aFe68fCjjMP+3buPDgkTxSfFXgldOaxrv49+L0IiCefPzH0b4zf05X+wO4PVj08QXNYnwNvB2+08g+3n7YzPwgYQ4CTgEpJCe3r+YC+3vmNXHYsqeojaXWPROYJsc+qPMbyRis3XKlU5teqcWvWZlDfZkoKgxj7mask2V1tAzgZAox4EQUTtQIsqmdWVAsk3aIScbLwnsRpvi1F8LFrl/yQ8OlNbp5H5rihFmoggSrRDmHw56ktYlionr79Avp8tXqgcWyAp8DTouRQ7TJMabFXM7rHG9AjNx8vjBo4V83xFb/jJl125z+gKHA2HJIXUXqm4rcDYnd5grMCuSENZ3G+bgwZ5dvMNvmIUlNV/z/bwnBVuQKe9KAsL5HddKTT2VOD8GV3SIP68G3/4EQvDcVgfvB28/b/3duSy8AsEHCDgEpKCIIjG8tTwbbMGe3XuPTr4qFh7n3l34wiydd/PEHbbW8l0b7xIzOhkJikIauxD8dMtIu+3WF5Qjpq5M0GQ78dL8uJoLWL8b91t9OJt2Xg7IynIN4Y5hRbtBWMOW+/lsl15VDpHfSlJYdVLcaCYubdxowWSAk+jdZKCKV7z47r6+OMJ/OEpF+8bD+JoEETm8RjetDzTixnZVxR/Qo9uSE3PtCcpuK1g3/rkXIeHpdLjIQH93bv5Lvj+n2zWgFzGdz78IftMhSKI5C/78EceNhncrj8bC153aaFX5/Fhln1eHNYHbyf75MDbkfeb/babt5vlAjtAAE/AVSQFXUomEPcaFSKimw2OIPvw0Hxhlx3l6JW3WRMWazbwQaoVct1HwFnDj4uEb/9Yw1IUBDmaPiNPwxy6X5+WXXcXjZc7IimaK/SbViXO/rmy2hzzHWouxVWkTqi5FNHMXArjKD4qdH2M2k2gDKcHZzjqS0kKX/ZcilRnR5epsmXGmheYIDhoOCIp7NEoS9LuOWdg3umJgvxBAvlB9HUnHA2CqLpynTcs+QLSH2VnE3nD1GJm/gFWUnBbwb71SyPWju7jZiUmaGoV5NrP6SfLEcOm0tCxfI8lEWiGCzpuw5/ppMrwaW5us8KZ8Tl0AYf1wdvB2+32UrSbtyPnhF8g4AAB15IUdIGpQLz6N7qPnSPINmt+jXtjmHzJqdvRSfrwMNX0RXFu5r0UBDX28cbieD+BdLv5Z4+pNQ5i321FlxIrpZKS9Yuj3pyZn416PByRFDfPJJArNgXJ5y2mbRpuzRlLr/iooFd8vDk3LwOJleaKm9P9RO9uLjwfXyG+mj9jkrD3Nr1xVihHfemBj7jJm6gVHyJ6xUcps+KjprSK/p4VueJjbGoYtfojQVPPmjtINGly+wsk807p4+jU/AZ65SyehiOSwh6NqkiVh69swZ+3pSpDbGLZrlUSXkBmLFqvi6NBToPUL/QX9vk8N1xRfu2SZswY4TsHDEiqERylwluBXPFh1/rKI8vNeybMHqZ7MSE+fO8RwUcuRUnFZw8sHuLlPvS7NDQp2OxUYw8c8mcqrSxsPL/LosuWCoRzLgV4u9BtBXi7hX+h3XbzdpQB/AIBbgKuKCnMSs3VxBJP668eTR46MdJjrCzgu9JseZa7paSgxz6EvKCcNKZDAuVBfplgTdzAMeIu4+WTdmgVlaapHI5IisbCovGBkQNCdCWm64y3rtOWbQ1R+PiTdx7/jTa2wizvewW6javJfHtMVcw5clvLNJJc9SVLNSU3KqVg5qxoT+q7FDGs71LIdpOTFSz/2N91IEvXqD6r9guKNH7BYtkNZhgBQ4Oj8aYqbZdG8+P4k2r/GdGew4R8P8mQ4MyT+aiLhrrQLg0q9X5R2RdrKVbT4heF3dUhZUYmYnspCILAWwFXXypr+/9pvC07HDxpSJ+uXt36+04LOaGsRJMz7V+DUrQHR/B7rIq0oUC4rA/eDt5ub5ivPb0deS78AgEuAi4vKbgq8Lqlk5IiKBetPHjdat8R6vsiY/dgft8tCWaiqiNUrB3qAN7eDlDhlkCgHQmApGhHuO1xa8u+k/bIA+7ZjgSeJX4xkP/u9nQ0vtaOWb36twZvf/VtCDV4vQiApHjF7A1B9hUzGBS3FQTA21sBDy4FAi+BAEiKlwAdsgQCQAAIAAEg0PEIgKToeDaFGgEBIAAEgAAQeAkEQFK8BOiQJRAAAkAACACBjkcAJEXHsynUCAgAASAABIDASyBASopHT5tf4l9oURHmL7WmBv6AgEsRwD8sLlVUKAwQ4CSACb+hRUV4b4dUIGBBACQFSBYg4BwBi0fIYpczgsMJQMClCICksHiEYbc1BEBSONecuFQsgMK8FAL45+2lFAkyBQItJgCSAv9EQ6pTBEBSgKQAAs4RwD9gLY7scCEQeCkEMJKCR/3DOzykAgE2AZAUzjUnL+WZh0xdigD7+bHedqmiQmGAACcBkBTWTzEcaTEBkBQgKYCAcwTwDxtnBIcTgIBLEQBJgX+iIdUpAiApnGtOXCoWQGFeCgH8A/ZSigSZAoEWEwBJgX+iIdUpAiApOqakUFUblJXVLY4ycCGGAP4Bw1xoMykx4rNu/MFrEqtspsJBRwiAtztCyd45ICnwTzSkOkUAJEUHlBSqav32lWLeh/LN6SZVceFYDM9XZPwblRJWbUqyF2va8Liquur85ayQy7eU/22++Cq0rFSPnjY3PHl2UxG2erJvH2+vbv2HT994MqXyBf3g4XO0SFVVlx1Y2JU/Yu9lV8JiUUgX3wVvd9BA9rwdJIVTTSacjCcAkqJDSoq7e9ZHu41TbMs06QZFji4s5kZYzI3vt8t4L0FSGL5fK+StzY93pbZTVd2SUj162vww8/CHnm7vzt1/+qok4s8dQf353aafKn5CqgoH4zt9mqr490CPzqOOapy6Ck5mE1BVg7c7FMTseTtICnwbCalOEXBRSfE/+aWvr2tDi4rYsQO224TA5TA5SAqapL0gm1pTI1JEi/UmQcYm/+hpc/KO9/l9QiT3jT0TlRc/8eSP+6nIrqRQZEjOFti4m/jHCZ09pn2vtZHEzhG2W0wAvJ1BZ8/bQ4uK9ly9+H0OGW8t/mARqVOtKZz86Gmzy0mK/8lPz1sy0ttt0PRrpIur9AXjBdKFx9PeGxc5cEvBudh033GRPZeqw3TGKKyqNlyMUE/8WOI9Suw1MWbkN5qTN1BSRfHsMcLe+3Qp6M1YZShZ4C/s84PxiKq6Wq7KXfhZTO8xYo8J8vEHCiNYrcjZIzLehLTDkvQx0yPdR0veW59+QuvEgLdcnf/Janm/cWLPQNnwL7PCCg2sZ7tKpsz9eDmZb9fJ8oC9+RduoTJz1Zcu1dGYDP+Zke5+0YPXpv/MvnNkSieB0Di64Z/2J6o4k3VqTY29IIunoUrN6C+IXi688VmwrMuoyF6zEoPFekdGMVQJad2YIjEjLwLRnEhUZfsWTK2pweerqq76V6j2nxntOSrSZ1XGL+dSOgnivili7mzXvpylOr6qq8fbE5YcE1sLC7IrYvcQ/uCdKqpbguy0kG7sxg8IvWFDUigyLn/x2diebu+sjjeWirGFqjpj40i+14K/4pCZwNstnm7wdvZT1k7eHlpUtG5ZF/cB48bvP2chLEBSgEpwloALSQokJrr0mbb+0yvJR7WMpIj02Zp95J+094ZGDtiYcfBK5uixwveO36ZDc6I0xVsgCTySeyi6+FiEZt7HYo/gPDEVo1XVVce2RfKC1OFVxmierFD3EEhWJBmVQUph7thRor5r0ncLtYfC1aMChD2+KpKj+E6Gs4CYD9elfXtVezg8bfg4YedPc4QolWkYbG6otPmBY4U9PlV/e1X7Y0T2jFmiN2elh5cbi5GSn+s3UtR3bcZuofZwePro8ULvjYUyusykpMDVlyyVf8zI9Wnbr2mPnM0YN1HIX6q5hkqlKr31KzW6sXOrhOekpMDToJr2KJ/lys/+1v4kylsVHM0brthu683bAohKdysssuhYpHbZQiFvYdohcrvoWGTxOaT8MBZEksJuvsnpWe8NFfVbl7FHpD34h2r8LMkbLEmBqRFnqVJupv/0w8qhvd2shcWjp831hacm9+w17UBc7p1qnUay1d+73+IInfnABxITXX1mf7VXXmgtv1KStg/i95gXcYchRkkKnPUxrMDbnRLQGN/g9DrGXtYbnH6FsSBnvu3k7aFFRT9lyldvXzyol5uFsABJ4WyDCue7hKQ4FPcX1TPRrf/MTStEqT9SYoLugqOCrHi2uEpVfWfjfOG4MxWqasPedUL3b4vp5zlZXxFTZlAaqhL1hni9ITZC+YZv0v47xsY7KSrFSyBZpSJ3VdXVJ/dLeJPUfyGFEXFczvNXhd01niyPULr5xu9ATR3ZeLN2xScVPEHCnjLjydbRhH1E9Ecc70Pl/1DfQ0pKen9B1CcK47X/HJfzxqnCkMKIi1DyBfHfUfly1pcu1a5S460UEco30LXsApCTMZ2UFHgalKQQBpyroHNR6fLGCIQTLlayM8Vs2+t0Ta2pwVsQn29EmJw3+voxZMHLYbE8lqTA14hyCY65FCm3Mo4dDB7e190oLKiM6Kihjz8wqS//rbfe4vPdfOaGpVYbB0FSa2riM6+QPRPu3QfP//ZAYvF1JPjYfFTVhj83+fD7rfu9wuRRnNbHswJvZxOmt+31yeF9A+911rlYHHm1vJ0Z7PgpS75m51KfPkZhsSdHC5ICJIKzBFxCUqxd2sXT99PlkWq2mGBJCtF8abWqWv/FIuH4C6Sk2L9e2HmbcZqFSn9r5/bYHsNRb7+viCeI3VpoDNMqauxj0NEyqv3QrQgS9kajHqk1NaHfiHmfaK5RWiReb4hXZfgIolcqjddSvRRpJ1F7oJKp3AXyzTmmBsAijrB3/9gbzZuVeYm5tro62VCVgqQMme8SDd2VQhZMnTEQ5Us1Krj6kqUan3aKubNS3UMgXZNmWaoWSAo8DbqXYnkSAltdsni8eOSfpjdsdvWttzFBlsOC5IBLlL18f/8+ijcz8x+GhjiZ3UuBr5EjkoKuiOp21vGDS3w8B34mJ6v/6GlzTcqhsd27j1oXFhGTGHXx2LKhXftO/03TYBz4CA3u0mX46n3XS5NRwWwAKRcu6M1/e2ssMypHlofso8JZn4MVeLvV/7jYnqTA+8Zr5e2MpKA3jmUr1u2c18ez/5QrICle5v+j29m23EXOdwlJ8e2BKb083byHL5jzu/Qgq4sCzaWwG2RV1VVkx8OH8oVniv9M0p1O0p3+NbETW1LQYx9Uq6NSpZOzAZSm+RBHv0KLKk1j/FHLEoytJtl4T0g7jVoFVUyqh0C+SWPZeFu3Fqk1Nb/tMWvqLM4h812qiWTurM58W2DMl7NRsSxVkrqnQLo61bJULZAUeBpUkI1egSSFRY04d+1JCm4LUnM47OVrwVlFTiUxzaXA18hBSaG6nXXi6JqRAz27fPDJAcr6DU8Mf8708Pwo/CaaS1FfdMKf33VZxAN6xceln2cO8HTrOWrZ5oupcUhHWiBSnP+kC993A9V/xiThrc/NCrzdYUmB943XytvZkuJYtmL998sH9/fwHDx/ZQJICpAUThNwCUkRWlR0RPnPklUTe3l27jp0/uxfow8UGqcfcwXZss+nCr22FzOvgynke6qplyK1pobqDZZv1FSf/zGGNzHttMHU+pJvKgvUJ2gtYvzvTSEarbBsvJ2RFGQvxcwMppeCaTPoDTJfy14KyWdU7wi+vqk1NbZ6KWRr1aZK0Vm0QFLgabRbkOWwID7fc0djeIFqps9GdiaBPfCBrxGnpEi5mX7sQPCwvu5dPpj9+cl4Gfp0WMMT9deD+O/vzmJeCxqeXN/Ymz/iQAGziFSZL9uxceoAz87dP/xkw/kUOcvrqHx1++Z4dh77PxGSlbTV8NZXVXOwAm+nMbL/i+ulsP/s472OfX+b2/YFNIcF8fm2k7fTkuKnTPmaHeSoh+fgadN+uvZDARmBYeCDecZhw0ECriIpaLdmhEUX36XBScz0TEwvxe2Q2UKPr4rouW+q6qozh2LYAx9k+KZ6g4f+dmPjfGHv/abVH6k1NeR46lT1GRTuVbo7pxLKxGhg3hFJkVKgXbA81v9gsdS8bRD+Sc6lOIjUCTWXIpKZS2Ecx0VzKRSXlXyBYic1PQLfqBglhW88ay5FkrNzKaiypRw3LzAnDXywowOrPRp0471vvZC3Ok9hnq+qmsOC+HypyW6RY36+ceVGuVhVsHBBJHvgA29fTKnIdTGnVwzp7WYhJuhqNjy5eyKos8fUP0tRL8XDgmOj+R4Lz99jJAV9JiMsug0PPpRrkiVElmIAABSySURBVH2qghOj3dz8wwosGiS89TlZgbdb8EytqQFvZ5ioqg02n8HQoqIdoYsG9jQTE3RABknhYDsKpzEEXEtSsITFwgUiRyRF1ZmjMW8Mk04+XvCjWLvjUNLo+TF8814Keib8Gx/LPxBEL0drPejHjJ717bM5a5+4+CdytUhkp+npfyOF4Yik+PdXObli02rapkqbHzCGXvFRRK/46DRLHY7ESkpB3uhR9DqFosNn0sdMEHbbrGWt+LAroYySYkLMyHXUio9zlis+ZOkl9PesyBUfY5K+olZ/hCXeYTfkyYnqnoKowOPaE3TqdX0i1czjaeCbdpqnPRp0KslztCI4Qkut+LhxiZroSqpArAXx+aqq7x7bG+tFLVJ9Y5xiy49KtqTA1whTKnLo6vtF7J4J+mT6v4+eNusj1w/iew9bcfjva5KIvw4s+MDL3Xd74j0bi0hTa2ooYfHp16wxo6v/G8v3mnsALYRmbs4lKThYUSKJXOUE3s4gBW9nUBijh9UzGFpUtOHrOUzPBB2EQVIwbSRsOEXAFSUF26fxQZaMoXfvHNyX4DNe7DZGMvRLzd//pnQ2lxSoN1jIm6g+heQC/ZhRX2LIW7gypvdosUeA7MOvssIKTTMtHJEUypSs4f7iXqtyIqyGzOWpeUtXyfuOI+88fEvW8QLTnVXV1THJuQtWkPl2DZIH7C24dNv4CstZX7JUQeqj0vRxM4zfpQhlfZfi2Dar2SG+It7U9LOsvgFVdeWp365/MFFs/ILFIg3d/Y6ngW/aaZ4YGqSlynRbNsh7jKRKKDBNy8BbkDNfVXVVYumdC+rb0fpqlfg6e+ADXyOjD9gpFTsQW2xTH+R+UiQ+tHzCkN5dvbr185289rj8ViP94FmcbL2rqlatH8r3XnYhgWUU+jRO6+NZ0TehRvrA240flARvZ3ugzWeQHW8ttqGXwqnWFE52xU9dWfg0+3mAbeN7xkT1X1atEcBJramRhMfzhioPsr5X1h5Y8IGDM8eU2K0D+L0Xico5z4QTSAEN3m4155R2jLbydouQy94FSYF/2CHVmoCr91JAVLUgYNF3YpH6Gu4qtTepsZ6S0IiswElCz9V5Ue2st6yfIvYRvAlU1RW/rOvP99n8l3mHGf6q1zYVvN3C9O3h7WwNYbENkoL9aMO2IwRAUjj0f9yxeLBf4i4EWQv45LsaOZ1F2HmcdNgX2X+iL5VZnNaGu/jnqg0zgluBt1v4QHt4u4WMYO+CpMA/7JBqTQAkxSsmKSxCDOz+9wSsnyL2kf++PJAjEGgNAbaGsNgGScF+tGHbEQIgKUBSAAHnCOCfq9YEd7gWCPz3BCxkBHsXJAX+YYdUawIgKZxrTv77Bx5ydDUC1k8R+4irlRbKAwTwBNgawnqb7duwDQQ4CYCkAEkBBJwjgH+o8OEbUoGAqxGwlhHsI3hvh1QgYEGAlBQE/AMCQAAIAAEgAASAQOsIgKRoHT+4GggAASAABIAAEKAIgKQARwACQAAIAAEgAATagABIijaACLcAAkAACAABIAAEQFKADwABIAAEgAAQAAJtQAAkRRtAhFsAASAABIAAEAACICnAB4AAEAACQAAIAIE2IACSgoH4ovE5s90BNjpYdTqARZytAljQOWKPZet78j/Yr2l27rLWnt3BzNTBqtNa676C179kC4KkoH2m4fSaSN7I+NDSNnShF3kx2iMx9xudvGXOL3LepBy1k1eZn26jOgV/xJH/ey36zy8rwfwCG3vKzDcFib9W2kjpGIfuCZNNQGgsAtFa5X9eOducbViwXUuWvmswf8jeXCaPxC+680f/rKP29b9P4PPfsvrHX3ipgUrX/exvlfjWvHP3mJthN5oM18PWT/Xt6+3VbcDwmVtOZdVhT7ebWP/vp958v6Mldk9oj4T2MBPEjfawVJvdE+IGHiVICprP4/NbpB4Byt/pGIpn5mjq8wsbhbyNt+iw6+hFBNEWksJGdRr0tQlphoQ0w4W9ch5ICoIgQ4MgaW8yyQT9VWlb2J45bl6rM21LChsWtLqyLQ/gJMUTfVYi/e/XJb347607Y9zLq2iiiqD72Z/fa8mvxqPGn9zyZ46UrynvyChPt8HzfzgXKRWH75w6gN/9o9N3HLnS4pyaC3M8Ok/+vSWXWtzJmd32MBPEDWcs8J+fC3EDj9xFJUWDLiXnlX8/bkVoCMpNx9utFaml4fEgKQijpEj919lOpFaQt32pbUlh+9zWHL2Tlax/YvcGOElhuij16/78Dw8Vmg5QW6Sk6P91qsVRx3Yz97zP77sh/qnx7AdXlnnyx4WV2b3YXmTQ/zGls8fs81V2L3x1EiBuuLStKEkBccOujVxOUjTo5MfXB/Zze29ftrHQ9Ft7VFrh7DnRXqOlIzbmyytfmCqkLRwskH6nMOxeJ+/uFzVgXsqepAbW+1FzbZ5uw6q4t8eKe0xTzDl8q4DVaSDbLTbr+rZ6d6/T3ty8lry2yyTF/GP6EvOIfL/41rYQxTsB4q4T5BO+K0pgSpWd01sgNLuzr4jncKc6Wd/JuTK1du7caK8x0g83FcQaTMPD6mMy3oz8HKb+aZouAsWx22ifbJ9Q1oEaFTrM/rUvKZp08tyP5ki6+En8tt7IkGV2dmLgozEjIjNopsRrmJA/WvrhhlzxHZaNCJwVOGrEYV/CrhWoOmMsiA8NtNeJk/NnzIzyGiMbuaUgjmUFgsDni6svQWA5Yy3IVaoXNxV5s+dKu/pFDw0pTBRlvilI+hO1svIN3p4+U748mWRTWLwsSaHZN4T/3i70rBNNcZu68wN+YfyZ5bjWkYGVqPtxDL/rsisPWYcgbkDcsN8u4J9fAuKGg3GD9cAZN11IUqCQ4e27YNfFdAMjC8jQEBg3eUvO6bjySGHhrCCh24qSW0xVyCZHMvRz9a5/70riy/auk/JGKE9VGJOby3VTR4l8NhaeVZSLr+RPmyjsuVVfg66tKa1CPd42hgOaK29+5Cfy2VBwVlEuupw3Zbyw345yU7+44dbcccK+wbknY8ujJcUr54r58/Kz6Ffe+w/ilRUypf6bpULe0hwRuV0hU1bm1qKMsb9kfYPipmw21df9s1ImxnI0wHUPkqhu/PCdMTwnJcXzG9rhQ0UffKW9lFB+9UL24mVxHg5Liieq7J6C6OknyiQqQ6xCt2mxuNNcbQGqJt4KHDXC2pfAWIEg8BakJIXq4oPnDY/R39MXjHYjrTA+dtImzcnYcvHlnAkBQvdgnalXHZ8v1us4OGMtiC9VU2nRyKGidzYVno8nLTh/XkwnlqRoflgqCV3n39fNprB4WZLihe70tJ69PjqkKDHUVmql2wO9+39y2aKD0l5kQP5FNOf8MITfc73sEXOEoAcQIW4gIhxPGdbr6HvYexXh8GdUAJu/EDdMrQZB4OMkB2esBdsvblib1SUkRcNNqmfCvceIpfsva2osFl6QOHyvn0GNeb0krZNA+RfTPJNNjnCOCPVf15XNEAg/jjQKkqJTCl5AVjxKfChLc2Nfy+Jh/cAUn1bwArOYLtn7sjQPX2U4yld/IYk3Mu0a6vN4UZg/WCD5OpN1R6IVHZj268sRGlD+5GRMJyWF9qSCNy4zDkm5kvB4nsOS4sZf8Tx/zXWU+7PKezJlrR4ZEm8Fjhph7Yu3At6CpKRg5qvSG5/r0Cs9NaOFZe67l5Q8QfI59BaMzxdfXwc527Qg9SyYnNCiVKTJxqTL0CBCaXgCjyUpaOM0N+hkJ0IC+7tTwkKpRye3WlJ8kdDA+veokZ5mQWXa/OwJK6mh4SlyDLpItckHp/Qjp3/y+W7vzP9FU4/ciCDwkQGd16T69l3+gC+uI9elj0PcYMdJjqcMobTpdXSidYSkjzvozygHs1+IG+xW41WMG2bmpHZcQlLEhHTtNmrTpfw6VhgyFZUMDRNZKyBycvsJ5D8UoROot9jtGrRLVH05MXLyBWNTH7NHzFtecpdJLC58XyDdaZrXziQQ1g8Mee3KG7eYV1htoS/r2pQjUt5crdZ0A6Kpqdn0kkseb4WksKrvgWJjTu0XGhIPRPM+1jIT5puTMjo5LCkep2T1FEiCDt24EFup0tbXIA1HFxpvBY4aYe2LtwLeglQvhfJQZq06B/3pnjCtEul14zWm+QGqbE+BIhR1U3Dna9/rHORsM7jjS3X9kIQ3V8s8GQRpQdPAB8tVCaKhLPbESoHXoF1ozk4rJYXFig+++5oYU35Vp6abLRhZfhUJGYJ4lHHYv3v30SFhovik2CuhK4d17ffR70VIc+AjgzGHxvgNffkf7M5gj7QZeymsniOIG0ZoFgOmyFg2vY5OtI6Q9HEH/RnlYPYLcYPdauDjpIOcbVqw/eKGmTmpHZeQFNrT8wd7ufUdu+pYVNFDpusZFZbEwV5UmZPXXyDfzzTmZJMj3WGaXIAuo36jdoh4K0rRMAhBlGiHCCTfMCO3rHOtHxjyWou3WNa1yv+Zh2/WrdBmKySF/fpyNMAob5uORSda15Q+nnAgirdAa1pF69y0wcb0CM3Hy+MGjiWnp7zhJ192xbR6Fm8Fjhph7Yu3At6CjsylMC3lNQ/B3Pna9zoHOdu0oOWzgC8VaUFbkqKhLO63zUGDPLv5Bl9BIqmVkoLvvfiPdNa/DB3qVSQI4pmhiJWUnl5ayzzk1X/P9vCcFW5AfvuiLCyQ33Wl0NhTgY8M9EUN4s+78YcfYQICupUlK4gbmDlYCJpNr6MTIW7QHCBusOMGchzTr0tICoIgGstTw7fNGuzVuffo4KNi7X3WGwcZGqzeNpi3dgLb5NjSfbJdeab6M1vWDwx57ZK8OOYVltyou41GOsj31DmFVnGMuV8b91Iwb1eZx2N40/JMnTLk23P8CT07X3K7BaHBQRVsmZPlfvPjuvr44wn84SkX7xvT8FbgqBHWvngr4C3YmtDAna9lL4XJ6xzkbNOCls2kuaTI/TWWNyEnDVmk9hq5SpaZZkUQRPPDUunxkID+7t18F3z/TzZ7iDF77xD++3tMfhW/2ZvvH2aaskTf1P6Kj+6bElG+zvxmfOfDH7LPlC1BJH/Zhz/ysOnBwkQGKqO6Swu9Oo8PQ9LIlDnEDXZvLsdThrDZ9Do60TpC0scd9GeUg71fiBsEPk46yNmmBdsvblib01UkBV0yJnz0GhUiQs0kicNsbkEqe4wQLymMo+moH74+Ru0mUIazXqAYItYPDHntjDwNI27u16dl191FXbZ3qLkUV5HCoOZSRJvPpWj6Z4uQF1LGGhpmciM3miv0m1Ylzv65strsMD2Kz547YlbfqivXecOSL6DWuuxsIm+YWsz016Nb2XQsOpEqeWYsOpP5dWRM1F6Zy5K0e84ZmHdNoiB/kEB+EA2i4K3AUSOspMBbAW/B1kgK7nwDTTN4LLzOEc72RCE+NDxOyeoliJpx0qCrfXpXe3vzkij2wEdpxNrRfdysxQTtAIbwmXzPRZcfGN1B/1sQ3225GD04yEnaXFJUkGs/p58sRxk0lYaO5XssibB8RG1GBvKiyvBpbm6zwi0mdJIpEDfYcZLjKUP8IW4QBAFxw/G4gRzH9OtakoIuFxU+Vv+GxjKoMBo3eRO1AkJEr/goNb0+YZuc5oqb0/1E724uPB9fIb6aP2OSsPc2PZphaaJAEDbmUlDrBcS+24ouJVZKJSXrF0e9OTM/m5nuYbg1Zyy94qOCXvHx5ty8DCQ46FuTJR+j3CMpp1Z8GLRoch+devNMAjmwIkg+b36cvCpAHrjRTn1r9Qv9hX0+zw1XlF+7pBkzRvjOAQMSNgSzhoVc8TE2NYz+iJOmni1rmjS5/QWSeaf0cXRqfgO9NvZ5sXaYL7XiI7H82oXshQvl1l/PtFfmqkiVh69swZ+3pSpDbGLZrlUSXkBmLFpzy2EFbI3wkpHAWgFvQUpS2P3UFeV1rBk85v0BHPlivQ7PGW9BjlIRT2RHErpRq4g7BSh//k3NDg3KI8steibMHgBDxMc9OvvM3Xc+Sir+65tJffgD10mRwGBObHNJQdyLCfHhe48IPnIpSio+e2DxEC/3od+lmS3dYHKn+zJNkYEgiLKw8fwuiy5bKhDyEooVxA1ED/uU4b2OvgXEDZoDxA3kUrZ/XVFSWJSUDA1TcqNSCmbOivakvksRw3wBgiA4mhyCuFeg27g6buAYcY+pijlHbmuZ5tc8G1KZstYs0Ink6uQ15LVdxssn7dAqKpkxYDK9Tlu2NUTh40+mjv9GG1vBdGigW9fXHv9K0XcUNSfDasJHY2HR+MDIASG6ErO70qEwR6jMnzHTVn0J4n5R2RdrqRpNi18UdlfH0jGWX9qg54Kwx1DJojWqz6r9giKNX7BYdgP1BzWVxOTMmE1+l2L4Jm1ypI0PctsrM9H8OP6k2n9GtOcwId9PMiQ482S+2Rsu3gqYGnHaF28FjAXJ0GA5V8b0QW6uxpvD+tj64jjjLchZKoJoflzXUFD80PCEIBLSLQY+kF/a/G2uzTy9ccYIn57evQePmvP1hUJzpUtd0/aSgiAab8sOB08a0qerV7f+vtNCTigr0eRMm8U0O6g9OILfY1WkTQUCccMsTkLcMPMcjucX4gZ7wNScHMfeKyIp2vNrkhShZ/9uNV8bwsENkoGAqxMg+7qHpl1FfUWuXlzny/ciY/dgft8tCWbilbkNKSkgbjA4YAMIOEaglXHjFZEU7BUQjnFx5KwHt2sS0gzx1/WnflL2EUQvlXXc6OsIDjjn1SfQaKijv94WI9HOmyzsGlJmY5bBq19NqgbPEr8YyH93ezozFmleL8seHfPU1uxB3GgNPbjWBQm0Ydx4rSUFuXzRV/TGiOh3F6Zsj37AnnDgglaHIgEBTgLkGwY5QUfoHiAP3F6ssjlviPMuHeKE9pMUEDc6hINAJUwE2jBuvAKSwlRv2AICQAAIAAEgAARclQBICle1DJQLCAABIAAEgMArRQAkxStlLigsEAACQAAIAAFXJQCSwlUtA+UCAkAACAABIPBKEQBJ8UqZCwoLBIAAEAACQMBVCYCkcFXLQLmAABAAAkAACLxSBEBSvFLmgsICASAABIAAEHBVAv8HtIH6QmG2vywAAAAASUVORK5CYII=;" vertex="1" parent="1">
          <mxGeometry x="400" y="30" width="608.57" height="90" as="geometry" />
        </mxCell>
        <mxCell id="VKCgRyMsW_sbwXQrN_D4-18" value="" style="curved=1;endArrow=classic;html=1;rounded=0;entryX=0.002;entryY=0.644;entryDx=0;entryDy=0;dashed=1;strokeWidth=2;fillColor=#dae8fc;strokeColor=#6c8ebf;entryPerimeter=0;" edge="1" parent="1" source="VKCgRyMsW_sbwXQrN_D4-10" target="VKCgRyMsW_sbwXQrN_D4-17">
          <mxGeometry width="50" height="50" relative="1" as="geometry">
            <mxPoint x="80" y="197" as="sourcePoint" />
            <mxPoint x="340" y="90" as="targetPoint" />
            <Array as="points">
              <mxPoint x="100" y="140" />
            </Array>
          </mxGeometry>
        </mxCell>
        <mxCell id="VKCgRyMsW_sbwXQrN_D4-21" value="Idea Maven" style="text;html=1;align=center;verticalAlign=middle;whiteSpace=wrap;rounded=0;fontStyle=1" vertex="1" parent="1">
          <mxGeometry x="-185" y="210" width="90" height="30" as="geometry" />
        </mxCell>
        <mxCell id="VKCgRyMsW_sbwXQrN_D4-22" value="" style="shape=image;verticalLabelPosition=bottom;labelBackgroundColor=default;verticalAlign=top;aspect=fixed;imageAspect=0;image=data:image/png,iVBORw0KGgoAAAANSUhEUgAAA+YAAAGVCAIAAAD8K3w2AAAgAElEQVR4Aey9C5AdV3nv24eiTKhQMZCCIqTMrXBcgVA87ANmZJ8Eg3PMITzCDXA4OeRecjkzQB4kGBuQTYwtE/vgmQEnxEYCO0D8wBaxHrM1krCxFZAlWbItyZJmPCON5AeyJVsa2ZLmsbv33jPat9brW49+7N6P3s+/asC9V6/1rW/91trd//72193e1MFDGzfeN58P5vOBHxTxBwIgAAIgAAIgAAIgAAIgkJ5AEBSy/vOmpg5t2Hhf3i/kg4JfgGQHARAAARAAARAAARAAARCogkDWej0ICt4BJtl/nvcLQaEUKdlnZvMHDh3etXfqkZ0T+AOBbiWwa+/UgUOHZ2bz6S+pURMEQAAEQAAEQAAE/KDYHMl+cP2Gn+eDQqG4EJbsM7P5XXumjhydLhZLZfwDge4lUCyWjhyd3rVnCqodB18QAAEQAAEQAIGqCDRDsu8/cHB0w0Y/KBYXFsOS/cChw0eOTnevTsPIQMAicOTo9IFDh6v6lqIyCIAACIAACIBAjxNovWTfvWeqgPi6JerwoZsJFIql3Xumevy4g+GDAAiAAAiAAAhURaD1kv2RnRPdLNAwNhAIEXhk50RV31JUBgEQAAEQAAEQ6HECkOwhPYUCEMiYACR7jx92MXwQAAEQAAEQqJZA8yR7PiaXHVH2jPUhzLcdAUj2ao9TqA8CIAACIAACPU6geZI97vZTSPa2U5RwKGMCkOw9ftjF8EEABEAABECgWgLNlOyFyCfGpJHsY+MHvnfLT65Yev0VS6//3i0/GRs/kLGmgnkQyJAAJHu1xynUBwEQAAEQAAEQqJNARdHv7T8wxR/yWKNkX7f+wW8u++7OXftOz8yenpnduWvfN5d9d936BzOUVDANAlkSgGSv86CD5i0kkPcLLey9U7ruMkpdNpxOWUXwEwQaTiBbyT42fuDqZd+Zn8+bCmp+Pn/1su8g1m4ywXYHEWisZM/7U9+/1LP/XX5/oq7K+w9cxhp88PsHCua2c3TIH/gBN5xkTTXX/V/2i6ZKOuUAG4vjfz0flVk9LoGrZpvKYIP9rNmfmhsOD3+nYtsmr8mo7sTEJS3dhFHUP1npKImvIXP10uX6wa/5X1yull2N/icMrbZd6YZT9YGoNmfQKlMCef/krVc9eP5fbhJ/5111cH/i2SRTZ4Rx7tL2W59u5BG+CW6n7+LZZ4/Mzfvp66epOTfvP/vskXDNVJJ9PXuVUqFYiniVUnJizPdu+cnOXfvCamznrn3fu+Un4XKUgED7E8hesnuel3SyNxWJue18vdtWsk8u/yCpnAT/neFU9VGZVdpJ/deUVjUZbDvJbsJMM6JXvvKVux/fm1wzRkNntSZjuqvwLUgYgpr92icrHSUt2b1LfzCphNH9X1GrLfFbnOB/w3elG05YsnvmuBruVUMMPvPsC7kNW1au3mT+5TZseebZFxpiv+OMCMl+1Xamj8X2ebcczWIU+e17U1rubsk+dfDQjh07spDsO3bsmDp4yJm7bCX7FUtvOHVqJizCTp2auWLpDeFylIBA+xPISLKL8LYK0aVVGwnqpBrJnrY75/BRw0fSZzWr5zSdOlio05pj7Y7BND40oQ6NKz3Mz3/+C+edf/7M7HyCe2S2yWuyUZDrt5OOkvyx61L2Y5b8BsmuL/1gxR+4Evg3fFe64UjJbk960nVaw/2swWBuw9Yjz59wGh55/kRuw1ansEc+mpKdqfbtezMKtEOy+0FR6PXZuaTDac0Lb3ZuPqzaU0r2DbVF2StK9o33/fJLl10j/jbe98v2l2vwEASaIdl50E7Kd7Gt8mcu+4WVDOOoE/WRxfkuW54+McaS7CpMKM/W8uNXHhCHHrVXy5RQOcsTiHT+y/c7kbzL78v/gpJ8wnY81am+/JDZPh7tijwgKg56XKpE5zCEB6LqfPD7ByiAaksxpcz8oGg0l86Q0iUBTW4bw1SW+dDIiJmPRIVaCFKOkzF86k4FdVOpqxMvnjz33HOXXnlVJDdRSJYt9Zb9mjT4W7+hG0DceY/c5dgx69DUJAzfD4rpKImpvPwyHlYXlsWyv/Qrl5NkJ5jmNFEh+WN+X+zVpVZg1BpIHgXtTTccS7KLX2/Ez32mb+Q5OxDFuBRXLvwxpkMNTR/cOFLjJwsaQtyGGVx3tuOadHd5gmTP+0ev+qzMmRFh+AduefDTa04SkP1rtgt9H64pI+XbD376sw+e99m9d63eTrk3whQZoei+zMz57N5f5F+69arttz4tez/vs3sfUD9J5bfvVdVk5owKyUdVNv1fc/DTKucn7K0fFPevkR6a3ZlO1r+dqV4X7oVVe2XJfuDA1PoNNUr2NIkxQrVDr0MKdwqBjCS7OqNrURJ7pozJZaezqTbFtpKUnBI31IKdRMlOnPKm2kJTUn0qj2uYLNnDdphBoRSlOPggj2jKfkyZ6xx/1bikJuBnEalImG9KIpDDaiBChFm9SNViMXcuPLgZU9Eq5kKd8B6VUje6vPRSliAk/4nmcY5FDT8MM/kWCEL0w1tve8UrXvHCsWkqcTYi+NC1k0jUtr1NuIyMMMUGHL0mE2ZNYeL/tXuP2iXn8fsHCkp6ylokkZ0hhz+moCR6ufx+wURfg33w+7/QV8tRBNjwzW83afSkxRm1BhK+As6IUgwnYlVHXLOpJWpIduv7klSu2hpTZh1w1CTpLCNnFOGPK1dvChf6QTGuPLJyNxWakl1oWTNJRgh0Xs4kMouUKwFNDcWGW5OnyJsB+7gou2hOOTP71xzkkp0JfaHUH7jlQdr7wBqZak+/Bsjmocq2VyxfX11dsG3X26cPflpZyG8/SlcIDZzoqYOHNm3aNDExOTV1MPLvqaefSd/dU08/E2lkaurgxMTkpk2bKEOmsmTfryX7gl8oOk4k57KnvP106uDTnSLX4CcIZC7ZSadWK4/kfW8qdiU/Rssj8UVWIonOoaqtpQ9UoW1Q61G7X2lZFNrqims7LZ25ktbqSooYFclWsTrPEAF8W6pntu0cjuijGpf03JXscQNRlmXEVH3kbqfzU4kSownXZ5YppY0EHMMZRUBOmSYsp8MdPsnB9Eq0qoArLQu2YXobMa0GHzlYBl+NKHoJ0XzJNWM0lCX20rKWRMIuw46S7EnfAseNaqPs98vuLpcbl/5gUs6X26m5LKO2+VIx1oMl5WPWQNj5cElNk258d4RL4UmPccmaJgmHL924oalvTfJPZ+FxJUjzHpfsTuiaHQDtDBkRXxc6WGr6p2XcumJNMRGxkt24DJA1mdzXt5/mVUfmhPKrCKbpuUsRlVkrpcLZcJSRaG9ZZW3E7KhR220t2eVDHqu//bRcLkc+5PGKpddDpkP7diiBjCS7DGipM1xcoNrQglwShdUJP7Oyg1qMbjCPWaZuMMv9oKi0Tijqb+k4lmcia6p+hR0ziEjKkjsfK9kdO1YrYyxUnqBTw+NSJaZ0sEZixMKVvlRKwmGe4CfDLnTJVx6Q1XjwVfUuLZMWd6ZJCdyQYzHDT4PCmdZa0pqbtSYdSnoRqqVF473sFyp8HrXLtKO2JdKEyzwTVDpKKsruF8SEilQ0tpCs+RLVzDl1lwGtGb1+zOr8iTS2TetLZHoeuZ1uONImW+1SW6svQgXJzq801JclNHztqjJrjY1/73TXkf4nFMZJ87jyBFPdsctU4WY8m1JQKKFFRKZZMgy/P5WSZCJrOkqaLdSY208dDc1qxkt2LsRlro4Iw8dVdsyakp1GJDZkxJ2pdmY5nLfTqIlu08QY9lz29TU+MUZosvCrlA4eevqqqweh2jtUs/a4282W7DyLQJ2wzTgrO6EqRcK37SCWlIwxSQjisGU2Nw9k1J04u1q/j4cMqjOxOsH7D3yfctkjnNencH40N6Kztv/KBz40SwNZFky3adsZl/ooUzKUw3FBUJnvrhwIMY/3k49IuCeyBTQTM2W/kmQPORYzfJKwCVcvxERsVPXwkNjLyIhpNebRuIx0UCevSTVNEhqDGY86aZfhAA1fME/5CJR0lLRkV86oR68a8yWGLH+3keVqVYjRXfqD7/Ns+ArfMsNmtfOebjiWbpa4xAWnMQvWlyLGJVUnJOUNOzQvxleGfdHM8jTbuP3UoWRKdisxxo6yUysVvT56lYphO+JY1HSUNJu1uiU7s0Cdsjz1xCi77T85SRs0InPDJGCWN2o7U9UeTmT3g2KqxJh6ouxx8g6qPY4MytucQEaS3Qo9iWeuyzOi2CMTRp2Ir6ly1LZtKaSwzaNVuIkZ9NIRdCHRVLRVd8BjnCQgqNyItLnO02/9fId1+2nYDqsjuogRB+ZYzO3wuIQfjgYVhbqX8ADJAUMFJvgpfNACTseAtaIlAraME/pGVNN+VRy+lFashSv0TSC0Xesjuh0xKjxs8JpUs2ZIdhW7NYioJZG0S9M2+HAbKimfgERupKNkSHZaOaHlqq5SeO/ySTJKsptDcJeKMeKQTVqBKS/V0g3HkuxKdvPr1bgDUcy3UrUNSXaiRIMTQ1McapDseMijs4BNyS6FtZTC7IZOEYF2mjxwy4NX3aKf2ChkrlOzCsnObxKl5iqXXaepmAFySo5nwf5kyW6YFWNUuewR48pv32tm8GcXaKeHxrTXQx7rjLLHKbCDh56+cXhF3F6Ug0B7EshesmvJQuf7y36hT6imsjG32QFan1wvv986oXJ5oWQBHbJVczqFsgCzGY8kcSDSTPVH0UIZdMrFqTfSecdJ41Eq4kHCcpjSISWw1LhiRIByI2FcTnjVcVgqY9Ll8vZBrYMVqCix5encIeGAqqyjhqpENheEw5KdwVHyRRIQmsaaSonIbq5dJQiRG2lehOn6wFxp/JoMu+dQUjCjl0QEK1otNI8HZMqKCTPcb7gkHSUt2RMvw8h/ehJRBExTfLv8K62BsP9OSbrhSD9JN6vvL/NWbXvWgShmWcZ9WyOmTAxNrXnq2vEfH9MTcCS7HxRZegx/uIrQ4irN3Xpsy3l25ne4ZoRkV89vCQtiq/lVByflE2PkTyhashtvffr0moPJUXa2eFSuC/N2e/QTY6TuVzXP/8tNdKtreobV1my7VymNbtiYr+lVSu0pueAVCNRDoLGSvdqjQ231RdzXlAW12Wm3Vo0dV6RkrGHISt+kCnvXYB9NQAAEQKCXCcSl5XQ9k8qJMZM8lx2SvR6Rh7bdRKATJTsXkTq21zXHtcaOq37JbqZhIGTYNcsMAwEBEGgfAiKKH47ut4+H2XmSXrIXizU9MaabtBrGAgLlcrkTJXt2R5BustxAyQ693k0LA2MBARBoLQGR8EMPh+lQvV5RcNdfwTuwf3L9+nW+HxRLZ6p9LjsUHgh0HwFI9tYeu9E7CIAACIAACHQcgfoVeUUL3tT+sQ3r1wR+vlgs+0HJYbR7z1ShWOo+WYYRgUAkgUKxtHvPlPMtwEcQAAEQAAEQAAEQSCBQUXDXX8E7uH/nxvU/C/z5UiFCsh84dPjI0elIcYNCEOg+AkeOTh84dDjhO4ldIAACIAACIAACIOAQqF+RV7TgHdq/7efrf1rIz5YK5SBYcDyYmc3v2jN15Oh0EbH27tOnGJFBoFgsHTk6vWvP1Mxs3vkW4CMIgAAIgAAIgAAIJBCoKLjrryAk+10Fn0n2cGKMHxRnZvMHDh3etXfqkZ0T+AOBbiWwa+/UgUOHodcTjkfYBQIgAAIgAAIgEEmgfkVe0QKX7BvuKvgzcZI90jMUggAIgAAIgAAIgAAIgAAI+EGxouCuv4J3aP/WnwvJHnX7KaYBBEAABEAABEAABEAABEAggUD9iryiBe/JA1vv23BnIZgpFct+wX1iTIJz2AUCIAACIAACIAACIAACIFBRcNdfQUTZ72SJMZDsQRFrDgRAAARAAARAAARAAASqIlC/Iq9owZDs7IkxiLJDtYMACIAACIAACIAACIBAFQQqCu76K3DJvp5H2SHZEWUHARAAARAAARAAARAAgSoJ1K/IK1rQkn0Bkr3K6anqFxNUBgEQAAEQAAEQAAEQ6EoCFQV3/RW8Q5Nbf77+zkJ+BpK9K9cQBgUCIAACIAACIAACIJApgfoVeUULjmR3336a6fBgHARAAARAAARAAARAAAQ6nUBFwV1/BSbZN47KKHshgGSv4laDTl9e8D9MYMuWbQl/4fooAQEQAAEQAAEQAIH6FXlFC5Ds0OggoAls2bLt0Ud3Rv5t2bINhyQQAAEQAAEQAAEQCBOoKLjrr+Admti6cfQOkcuOKHt4DlDSUwQg2XtqujFYEAABEAABEGgIgfoVeUULJNlPLwRlSPaGTBuMdC4BSPbOnTt4DgIgAAIgAAKtIlBRcNdfwTs0sYVF2ech2XV2RKvmG/22nAAke8unAA6AAAiAAAiAQMcRqF+RV7QAyQ6lDgKaACR7xx0l4TAIgAAIgAAItJxARcFdfwUh2W8XUfYAT4zB25R6mwAke8uPenAABEAABEAABDqOQP2KvKIFLtnXScmOXPaOWyJwuLEEINkbyxPWQAAEQAAEQKAXCFQU3PVXEJL93wrzpxaCcuDjuew6R6IXVhjG6BCAZHeA4CMIgAAIgAAIgEBFAvUr8ooWINmh0UFAE4Bkr3hUQgUQAAEQAAEQAAGHQEXBXX8F79D+hzeO3l30ZxdL5UKhuij7zt1PrLx3w3w+cPyu+HFsaInH//UNTVSs3GUV8rkBMXb2//2jCaPL+xODfbou3xoY8QtJTcaHeYsK1RIsiF15f7Sf9bdkcDypu4p2Oq4CJHvHTRkcBgEQAAEQAIGWE6hfkVe04B088MiG9fcWC375TLlYXKxqzPP54O6frb/7Z+urUu2WEu0bHkvUoFX50/6V81JSayGecNFigdItkuS4sp9UJw0lSPbwC1Dx9tM0Kwd1QAAEQAAEQKAHCVQU3PVX8HZs233vv99TKhZLxTNBUKqWcg2qXcrKvoF+FhDurTiuDLHz4LrY7huaUNLc1dmq3OvPsVC3Cs8nEWuUZK92GXRN/Uyj7PP5YNfeqdyGLStXb0r4y23YsmvvVFWXwV3DHwMBARAAARAAgU4kUL8ir2jBe3j7w/92+x2lhTO+X8j7Vae4+EGxWtUusmL6hiZkeoxKDjEiuyIrQwv6hF1iXkd4GgePREtFS3pXhaelIKby/hzvpW94X37czj9RNSnJhELjylU/KBo9ehQpNwqjhTX1bnqlCtNJduN3iXB3WrLbPqsuVLce64sKyX95VcCYrHMSY4y+dD4PWSCYnf6bSaaSfdeeqc1b9+TzQTnxXz4fbN66Z9eeqU48ZsFnEAABEAABEOhBAhUFd/0VvG0Pb/+32+9cEJI9X0viclWS3RDfBRU2VhJZ5U/3WQncQlzK1OqoXeGEbyaXSU2SSvVsnSrLIyS7J2tK1bvE7LQ/F2HZiJQbvcX8gGBqXxk+FwM3tLhY6xFDUNcMEbt4d0qyu25E1edgRWK96lr4xoejc9mj2noeb+LuUnY697uaqWQf2bB1Pu8nynW5cz7vj2zY2rkY4TkIgAAIgAAI9BSB+hV5RQve1m07bpeSvZivXrJXpdd1docUfDKabilXTwatlbhnaSG0LeLB9JHtkndzSt1PotNcKKq+LeWV/I2tqQLVpgNGj1YcvRo32ACVSyxiTT87mJ4wVhG3nyqtHDNqkuyOz6Zl1bWgYUpzsW1dI7GLH9mXHK/dhbpeioJpdtop25lK9pWrN6XR66LOytWbOgUa/AQBEAABEACBHidQUXDXX8HbxiT7XQsLZd+vWrJXq9edfBIdCuaCz5SSpmA11KdSjUrLGgJaG/O46FfWzHIhUqXKFNcJvCN55WBU5TWlZBcSVrbS+Tx2RFnpWsOGuvagRewkAtk05CUHVXYImH4yxS9ltNud0tOWzwZAs76ESRc50mZoLqTbarx0IcHNujBN/ztxu1Mku/lbDZ/UiPVj8udfhwp1zPqN3WZLSF3UJXvu7KUvqfCn2lHwJS2+9aP9/Ec2Z1zs+6IWNu0a6Zd3j1BJ8zfI8+Z3He6RT0rE4hHHWEqrCzdECQiAAAj0DoH6FXlFC962hx+5/Y6fLizWItmrfchjlIwWIlJITCmdZSg9KsgdscuON9PiMEPXSshGS/bYmjGSXcllKXnz/uig1tARJzbHJZF1YyryuHtwTXEcI9nd7tRIBU+tp+PGyMwKgH3Dgzx73f7FgxOzCasuomHSYDt0o4MkuymVxPw6AtecgmrFrtk2vM3WjJLg4b3hEuaeqj/Sr+/98IOi47mz1zFV8yjiGoYlO1/e7tfKcSOjj9VSrc2NGnoR11HmehNdm0eV2pxBKxAAARDoGgIVBXf9FeqS7NWClurQCHeRiI+JBKs8EJnmbgaJ43fxsJk4ncgGfUt4eny0yoytGSfZVYyfvLESXXSp+/xKJXapRmjDDviRZLfriVGEfhngbVUX0ZJd2jFo2FcOEqlxeWARs9wQ3SkUCWKx2kXS2vodKtmV9o3VmnGatTba1co+9hWLkeyO5y2X7GNDS8LatDZK1baqlmq19kX9GnphPzv0D4jbV6hTvqKW9Pe3DBd5gg0QAAEQaAcC9SvyihYMyR5UnRhTFSMtQNXJWzSXP4X3jyr5vmQwJ94HJG8DtRRkaJcrOllaDNPKujt2X6YQuJYAJZUZWzNGsod7VJFpGdVWytiV7MZAlPrlKNSVjFbMgozhmKpv3NLq7k2U7EZli4boiC5aSKzoueCvUjKac0/UDFI5waxqSbRh5c6V7EJCiVdfqeljk6UWp84MCe91Vmb/kE4X0YtTrT1aLbZxuUQjV0KyZDc9TyfZ6XqVfaOV8/pyhVQptywuX2OGb4xUfa/pKEEHooG17AFKkfYnBvvoC6WPV87CDjNUfdH3emDFoHy7nKBKnrs1+ddcFUZ3bUyQ9tn5phtzZxy1lHHHf54pxKqZkyvm1LzCCQ/TmU3WRB6caQZpfaYi6TiGjyAAAiDQPgQqCu76K9iSvaVvNVJKQp6GzWlI2GVWwzYI1EmgkyW7FFXiOkpcffEvjtCgUrPG7GVtVROu4ZR6GxmSV55MkKlC0sRKO1Lb0X6l7M2JqCTZtRy0c9ldxamOA7Kca0S2zct1ZXKPyo0NPVJ5M4kaFBuLGqO8FlW7qLkYlGGfs1JqnjmvrmbN4YcZSvuq8tjQMBuFkW5EPYZqkuqN7tpM7MnnRsMvS7Z74Ua0G9K46bygJO8a0kCEwi6Ykj1imCynTk0W/0WOboBRi00uGDlMVTmOpOMYPoIACIBA+xCoX5FXtADJXmyf+YYnLSfQDZJd6U4BU0Q6tQSM3Mt+UDIkb9RNmWRBSlul80jmmt0581iVZKefehwj/PLAuiQQOk/l1Bn+K+1LPuuNxJHSjadkWfhAzeVHbV8qV1kexc0cBdlh0Azgjlk1UjYiU4Lzctkj91BHN1g1rqd5fV1u9h7Ri0ODqeqItgKLyYQm3ZTs1JceppLpzHPyMHIF2l1TZbKJDRAAARBocwIVBXf9FSDZIdlBQBPoYMnO5BcPqMvbhSnpgh4qyiVg5F5bRZmCiUtAMiVlsRWpjTLoHFgrSHbluQjoVpLsWppTfdKIol9yj8r1RsJI2Q0zaoCOgjR2MfVZpWQPMyTJa4Iis5ZkdxxWjsVJdimO+YyZeSzUkdVLjHGqLDboSkbMo6ndTckeHqa8UYFf3VGSDHPA/sfvBbKuFswV6DiDjyAAAiDQngTqV+QVLbSRZG/POYBXPUWgcyU75RJEy0ElOqP3OtJNfeTqilSsoWiVZpX6VeVLxC2VZMlOnpMEj7PDlbcOA5N2JEUuGjK3uUykcr3B9KIW/SYN00lXECt6IfuVhWYkQ7NfGiy57Up20+EUkl06yXy2ss8d5+XcRRknl8QGSXbJf0inSJFkjxymun4YGDEARo9djUs6qULyjif4CAIgAAJtS6Ci4K6/AiS7jrC27TqAY00j0KGSnalepb24rrIepGhJQK7knEi22UToYHmboNLuznNdQuLS7c6ZL1MNU7RV1DE9TyfZdb44MyuyQZjgo3x6nZ+tlbqSjLEjdSRjxMdI++kku7qkYQ7zaTLd4GyryWWXVyPRXedzA+qGY8YhHGi3506zMiPizvSRZFfLQJu1JHtomDTF7IEzlEkVvQKjh+N4go8gAAIg0LYE6lfkFS14Wx9+5N/uuKu0WM4HxfmW3n7attMAx3qHQKaSfWTD1vm8n+YFqPN5f2TD1gTsXOnq9IJICa52s6AyiVcl39VOEvosO0X8409KMaSwKO0bGjbyRuQTP5Q61A8AoSsH03lHslPf4q1nZs0U4xoY0ZkVRrzc9H8oNsqu4r6hkdphXSfK7rbS9isLTXkJxDuMZMj2SNqaaux8KVnseEiZJFZ2ilLJJmFxtWA8McaYO2XcrC+uo0j6c/sau5bs/KpJYDWHydCx+dK/jUSuwLjhOJ7gIwhkSqCiYEKFTAlkOrltbjwlWCHZfyokex6SPUDQvacJZCrZd+2Z2rx1Tz4fJKv2fD7YvHXPrj1TrTrEmIHYVvnQ5H6d2H+Te0d3IAAC7UAgpWxCtYwItMMaaJUPKZEyyS7ffhoUIdlbNVvot00IZCrZ5/PBrr1TuQ1bVq7elPCX27Bl196p+XwQx0TEMuP+P65VynIRhaWoaspWHV3NDGl39EDgPAiAQD0EUsomVMuIQD1z1+ltUyJFLntPB5U7fZU33P9MJXvDvW2UQTN5g1ImGmUcdkAABECgIwiklE2olhGBjlgkGTmZEqkp2UuIsmc0GTDbKQR6U7J3yuzATxAAARDIjkBK2YRqGRHIbmbb33JKpDwx5s67F86U/UIpH7C3f+MPBHqWACR7z049Bg4CINDjBFLKJlTLiEAvL7+USL2t2x654667F6Vkh14HgZ4mAMneywdNjB0EQKCXCaSUTaiWEQGsvYpgvS3bdtx51z2L5XJQWMgjxA4CvU0Akr2XD5oYOwiAQMLu7oIAACAASURBVC8TqCiYUCFTAlh7FfF6W7buuPOnK8+Uy0FxoZd5Yewg4AdFSHYsAxAAARDoTQIVBRMqZEqgN1edGHVKsN5DWx++4667FxbLeb+AVyn18orB2CHZsQZAAARAoGcJpJRNqJYRgZ5deH5QTInUe2jLttvvvKu4sDg7n5/L+72MDGMHAUTZsQZAAARAoDcJpJRNqJYRgd5cdWLUKZF6409M/Pu9q4Mie1wMHvLYyysGY0eUHWsABEAABHqWQErZhGoZEejZhVdFlP2JycnR9RvyQaG4sBgUevppIb28XDB2QQBRdqwEEAABEOhNAhkpUZhNSaA3V50YdUpE3sTkfinZS4t+xpKdXrIoXocuXo3O3rveP9rLU4Wxtw8BSPb2mQt4AgIgAALNJJBSNqFaRgSaOdft1ldKpN7k/gNMsvuFYtMl+0g/k+te3/CYj1c44feNtiAAyd5uBzL4AwIgAALNIZBSNqFaRgSaM8vt2UtKpN7k/qnR0RZI9nxugAv2JYPj0OttoVbbcx032StI9iYDR3cgAAIg0CYEUsomVMuIQJssg5a4kRKpNzlpSvZSpr4aiTGjIsIuMmSoUxl3Z1qeSXmq3zc0Ierkx4f72N6Btfl13MKSwXFpSmTXkAWVezMxyBvwywPWcIRH9FVOjtGc90ieYKM3CUCy9+a8Y9QgAAIgkFI2oVpGBHp5BaZE6k1OHljX9Ch7X98SpqGNFHZS50pbK9Uug/FSagtF3jc0oTS3Ud3zpFlRxvNtoswyU6r5kr4oQd/L66bHxw7J3oQFMDObP3Do8K69U4/snMAfCIAACLQJgUd3jeGvhQTaZBlk58auvVMHDh2emc2Hz7NpJfuEkuyFJuayK6EthbgfFFWeTFiayzB5f450tqm5PV6uQulCptsqn9CQTOfxexmbF/F7tYtZo/rY6EECkOxZT/rMbH7XnqkjR6eLxVIZ/0AABEAABECgNwgUi6UjR6d37ZkKq/a2luz9OSWyVaBdSXYl5vl/pZ4WErx/dGxIx+aVyJap8BR9Z+pfJc8Y0XTTrEi5EZJdNqdgPCR71oqtze1Dsmc9QQcOHT5ydLo3js8YJQiAAAiAAAhYBI4cnT5w6LBzqq1Oss/7hUJpoZkPeVTC2rN0uco1Nwej9LRIYiGRbWnuOMkuVL7sQkp5U7Kr3uUuRNl7/UZYSHbzq5fF9u49UwXE160DOD6AAAiAAAj0CoFCsbR7z5Rzem13ye4HRRk1l3eaqrtIKSBuPPxRx+BVYcoou+pCBO2X8MR1S7JTb2xDGXdQ4mPvEIBkz3quH9k50SsHZowTBEAABEAABEIEHtkpH6lCJ9wqJHtudMO8HzQ5ys4yWHyS6SI9XWXLCB1tCGiqSYkrqkQG3eOi7CpCL25m1YF53TwnHkGjHyZDBLHRgwQg2bOedEj20NEbBSAAAiAAAj1EoHbJ/sTk/tzoeinZgzbNi1DBcn27ap3CQkt2PBW+XSe9zimurTkke23c0reCZO+h8xKGCgIgAAIgECLQtZJdhM9F2J1C7On1QVxNSPY4Mj1eDsme9QKAZA8dvVEAAiAAAiDQJQQ23L995epN4m/059siR9X9kr2Bet3IyZF5NVnLFNjvFAKQ7FnPVFMl+9z273z6Tz/7g92FyKNm5xZ267g6d0bgOQiAAAgYBI5PnxxZv2Xl6k1Gmd7sWsmetYCAfRAwCUCymzSy2K5Jss+t/J/il7aXv+oNb7v0r2/efvyMPviViwfu+dv3n/vaV/AqH7/9uN51Yv1f/8Gb3nXlg3O8aMc/vFlYYXeujHbOU+GfWf4+77//6Hk9rLI9LmNHnZun7/qkd8GQuj/4uR9e4r1v+TPl8mPXanCK4Gu/zE5FowPqs/pvBbD+wVVXffI9bzr7N3/rjed99Ct3jYuZqdNtNAcBEACBNiIg9Prx6ZOQ7G2abZ+FuIHN5hNouGRnmV3q5QM0HHZvBi/keV8Rd2iIxC3xcFJqRRvGTdVcKBk3alOd5A3+CKbW/MRUs2R/yxUbn3nmqf2PrbvuQ2/4rQ//62F9fN56xRte8dHvPDL1DPv3wsyC3mNv+S89x6uM/M0bO1yy2+Nq3KcYyR5IcI8NXeK9+5tbOMTDJ/JCsv/ny9bzAvl/x5NE+OKub73zZb//mR/8x779T2y946/PP+v3LnvIb5z7sAQCIAACrSZAer1cLkOyQ7KDQIYEGi7ZuTi2RLmQ4yLRy3zSkSmyxf3WkZJdvtDAuAzglSvrb+aJ0crsrpnbNUv2t//j4/JQPD74Livq/Iu/OusNS7dax+l93z5PhX3Po6ixqrFj6Tkhyb54bOv3Pv+Bt/3O2Wefc8Env5l7MlCVY/4bXZ/9GvD2b9zxr5997++85nXnXvyFH++dke3PnHhkxd9c+s5zXvPac9714S/fvueULF94/lfDn3vfH/zOa17/+xf++bfu/7VK4fGnVn750re+4TVvvOB/rVgzdLEab8y44vstPbfh6j99xxtf8/p3ffKfVv6f93kfMX+ECI0tRrKres//6CPehTc9qT4Kyf6Wax8zCpI3T/zkY957Bp+QlY7c9t+8Jd87lNwEe0EABECgYwiYer1cLm+4f3uk60iMyVDGNVPQoK/WEmi8ZOdPMjXvxDBF/Ei/198/4LwQgGv6Jf39S8KSXcTXw+VMtVeKtXePZD9++0e8C246UC7v/NZbzjrrrLNe/jLPe9nL2dZZZ531iTvYq1ULJ4+wqO/e713qpZLsz93xf//2u75wx5bx/ZPbf3bZkt9853WPxwbr2RE4pj6Tzm98+6e/Nbp7cuyXN/+P/8t7x/X7+AH7hZ/9+W+//kM3rN+1f//OkX/4wG/97hfvP812HP7Jx171e5+6+cG9+8e3/Lj/7a983z9P8ZSfgzdf/PJzP3Pr5vH9+x78zhf7fk9J9phxxfZ77KefetXr/+TGn++Z2LPhuj9/++9Kyf7rWy6RuNR/zhscK5fLWUv2Mwdu+cBrL/rGfzw7VwyO7Rj68Ovf+3/2FiPPaCgEARAAgc4jcN+DjxyfPlnRb0h2SHYQaACBhkt2Pyg6uTEj/fKdu2JXf469jsDU9CJtZmwoSrKz1/RGBNSFyh8cL/CNgRH9xgNZWYTtReC5P0fVCvxWbON9CEr382uDJYPj1psTxNWUYYq/TiHGpbhLrwZE2Umy+yeeefLJJ5+84zNnve6v7mVbTz755JHThtZ+6a6Pp5LsTKp+6Nbn5HF25mef8t7z3f0JR924+kw6v+7vH5QejN34Du/D/3aMXUGs/f/OeitFo0u7b/3br/77QSmR3zs8KXt64ccf8v6YezF79//w3nnDXln++D++VUl2WeKOK67f0rr+s879hx0i8X9h25XnSMlePPmcxKX+8+sX2e8KtUh272VK9p911lmv+tsHE7CVy+UzR9Z/+b1n84X4qnf2r3rKmKzkhtgLAiAAAt1CAJK9AXItTmSgvHcIZCHZeSqLzI0hbS2Qsih7rsDi365WLkRLdqOmOSki+q60uH4vmBnRN6PsStkXZFq8SpihaL0s96TbdNVhjSU3OuIXeEnEVYTpnrldQbLPr/6MoQA//pMX+CGaSVKdGEOSXR6+IxJj5B5X2oricGLMU/90kY7T87D9WygNR5qy/hNX3/aTbt8sH//RR7z3/YuZUSLMMTsfoRtLg7V/4b31+j3lcvn5H/53o3749lN3XHH9Tv/4o4adp7//RxkkxvwOXS09+eSTTx2TqezR81jYeeNFr3v3F3+yac/43ofu+sofvu6dS7cm5b5b0PEBBEAABLqDACQ7JDsINIBAJpLd13F0U52rKLvUzSLQThXqkOxaQJOUZ9F0I5ddS3YWI9ep9rw+a04bQm0zXc4vKqoV6KZYF9sVJPuZmedV4JeFzE+J57rYkpRJ9vf+0xQduhsj2f/knx43ehZRZ+rC2WBSO6q+7WfrJbt9qcCkv8hlb2RizDnObQQCVeQ8lu7/4qte9+VNKhVmcfc1b33ZZ+6ddeDiIwiAAAh0EIHj0yfve/CRqhxuhGQvLoTPrygBgZ4ikIVk94OiyHURAtrMRBdRdqeC0O7Rkt1W2DQ1FLwnLU67KA8nWrLbYXtS6rQh7JBkZ9Kf+cD+mck81F3FjQqSPfqwZ0thdvvph34s4u+sfrWS/ZEr3+TcfsoSQvq+o1Jhii/9+sCvX1I3grIegpPPn8gbz5WMq2/7qSU7S4x5yzXqNs3izhVfvGwlu+RgdhqVGKN/hdD9Bqv+4mXv4HF7Nord3/r9CokxxXX9r/jPV6tzz8TQed6f3vminpLI20+jJbtuZGwV1v3ly1//lV8qyX5mz7K3eZ+86yWjBjZBAARAoAMI0H2lzv2mKV2HZG9AhLWi2kCFrieQkWSXwemcFdKmKLt6t9eSwSGdIRMt2XnA3hT9YkaMhJbRfiPZXVwk6Pi9SoAhZc90fDVRdloA3EItqr1myR7/kMewZC+eOsqfOchuP33bNx7k2/rpj88uv8R755dzE0/x8mNzZ8rlZ2//+G+d8/Gb7t+7f/+jq772R69689e3K2FZLj+1/JLf9M46b0jcScoPyTH14yR7+fmV//O18vbTx9ZcefGrzvmrX9Dtp2/+9PJN7KGHt3/+Ha983/cOittP/+V9Lz/3M7c9xG8/HXjPOTKXPXpcpXJsv0/e8v6XveXzqw/NBjNTP/2bd51dITGmfOSOP3vVOX/2vQf37R9/aMVnzj3rIuPHjHK5XslePrmu/42vvOBv7tg8tv+JbSu/9r6zf/tTP9OXXilPdqgGAiAAAi0mIJ7eWJteL5fLdUv2fFBAlD2A7u91AllJdiG1++Tj2En4UpRdBtqN0HWkZKcgt6na+f2gMhlGKGl6mCNJ+djEGO6YVZ/L+rgoez43IC8AVLZPtakyNUt2Htl/2W++/q2XfOGftx1bNA7YYcn+zL+8j1c3/+8jP6J3LM3u/sH/03fOb72M7/6LVezGy8UXHrqp/+K3vuHs177p3R+//J4nzAzrI/f8xZvPPucjPzYfRxhdP1Y6l88cf/iWv/rjd/zua17zu+/88N+7D3l8K3sm5IV//q376CGP+f0//fv/9pbXn/2G8z99873fVq9Sih7XsXjJXp7bc8ufvfksz/Ne9QefH/zqRZUke3nhuQe//RcX/v7rz/7t33vPn101csh6anrdkr1cnp24+8pPiFcpvevDX/7RrsqPVjAmGpsgAAIg0BYEVq7eVLNeh2TvdaFJEhAbdRLISLJLxWwocuGnKdm59tVp5XGSnYfkjWe8eB7dusp3jfZ7AyMsdi7+aYNSzXMfKMqumqjqobtghZ/MN53LrioLcd+MJ8a0xTG6Y51YnJ8+emy2VN7/3fd4n77XvBjp2CHBcRAAARBoIYGVqzeNrN+S5nmOkU7WEWWf2J9bt34eUXaE2EEgKGYn2eu8lkjZ3NTiKZs0uVpNUfbIgx4K0xBYnHmB5f88fXD3qi+/55VRj61JYwV1QAAEQAAEiMCa0YdWrt4k/iivnfZW3IBkR6AdBBpAoOGSXUWkI/6bhVaGZK94rOyxCi/d/nG29l72qje+8yNXrD5Y6a2uPUYHwwUBEACB5hOAZG+AXMtCQsFmZxFouGRv8vAh2Zt/8EWPIAACIAACIJCeACQ7JDsINIBAp0v2Jl8h1NAdEmPSH9ZREwRAAARAoPsItEay79z9xMp7N8zng5Rnbh4CtDIEwo925jfhydc3qvr61TApO0I1EKiNACR7bdzSt9q9Z6pQFC9I6r7jMEYEAiAAAiAAAkkECsXS7j1TzkkzCApp/rwn6rj9dD4f3P2z9Xf/jN296nQf+VFJcK3aq5Ls/GF2nvl4u8heUAgCNROAZK8ZXcqGBw4dPnJ0Oul4hn0gAAIgAAIg0KUEjhydPnDosHPGTKPXg6BQl2T3g2JVql1J9qSouRllN4ckXgrDnmg3NGGWYxsEGkgAkr2BMCNNzczmd+2ZOnJ0uohYe5eekDAsEAABEACBMIFisXTk6PSuPVMzs3nn/NgkyV6Vao+T7KqcRd/7h8Tr0NnzpFX5khvHxgfFS9JlgF4+bXqkXwfs6XUwJO77c6Nsv3rUtAMIH0EgTACSPcyk4SUzs/kDhw7v2jv1yM4J/IEACIBAmxB4dNcY/lpIoE2WQXZu7No7deDQ4bBe94NiO0t20tks3E4Km0r5RgXJvjbviHjeSLztRbzQkcxBsuOB66kJQLI3XKDDIAiAAAh0BIGUsgnVMiLQEYskIydTIm1JYgypaS7Z5ZsaZbZMXn60JLup7EVijKqmWrFXMLJ//TnjGoC/nTEjvjDblQQg2btyWjEoEAABEKhIIKVsQrWMCFScoC6ukBJpXZK9qkR249XoUmcL+uKmUkpfMXPZKTEmLNndViqybkr28L2tXTzfGFpDCECyNwQjjIAACIBAxxFIKZtQLSMCHbdgGuhwSqR1SfZaH/JoSXYVL5fp6VKLeymj7LKVEvrMMmXaQLI3cD31iClI9h6ZaAwTBEAABBwCKWUTqmVEwJmOnvqYEqk3PrF/ZN36uXwQFBeyBqSi5pQYwx7/Ei7ku13J7gdF42bTgTS57JDsWU9o99mHZO++OcWIQAAEQCANgZSyCdUyIpBmjrq1Tkqk3vjE5Mi60Tn2wJnWSHaWMKMy0T1vYERuR0h2qxp7nsyE9RgZlblO5ZDs3bq4sxsXJHt2bGEZBEAABNqZQErZhGoZEWjntZG1bymRNlWyZz1m2AeBOglAstcJEM1BAARAoEMJpJRNqJYRgQ5dNg1xOyVSLtlzTYqyN2RgMAIC2RGAZM+OLSyDAAiAQDsTSCmbUC0jAu28NrL2LSVSb/yJybWQ7Kmf2531tMF+awlAsreWP3oHARAAgVYRSCmbUC0jAq2a93boNyVSb4xJ9nVz835QLLWD3/ABBFpIAJK9hfDRNQiAAAi0kEBK2YRqGRFo4dS3vOuUSL2xJya0ZC8UW+43HACBFhKAZG8hfHQNAiAAAi0kkFI2oVpGBFo49S3vOiVSKdlnRZQdkh0ZMr1NAJK95UcuOAACIAACLSGQUjahWkYEWjLpbdJpSqSQ7PhhAQQ0AUj2Fh6/1FvV2IsZ+oYmUnrCn/1qvZ0tZcPsqpkuyUH1De8bG+rzKvvJ31NhVTOtpfQ5bEQ9S9eyHLaWxtto4/5of4rRhXtMXxLJIdKZBJvV1k8wVfOuyIHUbK2GhmyW+0db7gZbk7kB/m1P++2IbNLAOU0pm1AtIwI1LOauaZISKSS7lmtdM/cYSM0EINlrRldnQ37yloJSvFohQbU38CRdp9vJzbmfXlUviKh5aGZDczvZQ3NvSm8jjUcWmsYz2k7Tr1nH3M7IpTY3y79cFa7cmjMEPhc1fDvcJg2c05SyCdUyItCchdeevaRECskOyQ4CmgAke0sOZ0Kjm9KWhwDZ+9Qi/WngSTrSfqMKa/CzhibCW7OhuZ1+LClbRVaLLEzfdc010/Rr1jG3a+60oxuyb5Z67WBrB1LDXEQ2iSysbWgpZROqZUSgtlnrjlYpkUKya7nWHROPUdRDAJK9Hno1tw0LdIoFyvNxbriP/YLOEmZ4Cf/geez3fSMlg9uRu8QFgNw7xH9/V/k24gpB1LOuE4wXKvfnCuGuxQCNXuRFhWNQNLxxbF2/clO5rX5GMN/3zC9LyGbf0LCTYUIDjByLdIlBUP+IiQGNZRQoUI63YQvJ3pIdlWzD+g27be5lE8V4svdVE3D2u0rf8JhfoLGzt1+z11qzHJv+/iWeN7A2v87ZHhxnV3HUxOyXCoWd8Lj0arHJmAbNtqHpls7HTYTjQCRn1peeCJ5NZC9O0an5/7K+8rk/VxgbWiImm89UBNV9nNtglOWxoSXmV+PGsfHwpMjmMT2avvHh6NeQS8t6eccS44OSKzZuvZmTq7hFNCGe4XmMmwJnCPQxpWxCtYwI0ET04EZKpJDskOwgoAlAsrfkWMm0Dldv1DvJO3lq19qOqV7rJG0JICURmGigmkzZs9M5S5zlopDn8lJftMEqGAHIyl3nBkgzmWk85B5tKMFBLintLi0wwS3kDldjcq9wjIxIf+yxaOcVB9WXJwUxjVpVcIYZbyHBW9qV7HZoOgzCI/1sL41OTJBSb/JmBjFkwZZqikIHF+0lO/HjiiUT0zY0CkYytKgUXjJSkbMYiLM4yW3akNXEV4Anf0sgNLPRVF0PmWPMSbrOlLcfmH4ak2JSUtOhejR8Y3o9tPirJ6boicE6k2t0p2+Z4DVpHVobFaeADDobKWUTqmVEwJmOnvqYEikku5ZrPbU+MNhIApDskViyLuThSakkRF9csrunYT8oGpKC7VUqhNdkMl0bqVTT0hmyUx4dJP1BmkDslQaNCCKL+Mnb+HS/lktKiFiFkRbUFYvTqdUwyhpNjdkwcpsKRTCYhplswYgc8wAnhfDHeXQ8we3Y6WCsmDP6MkyGTiXPmGFa/of6DfuZPC4LbGhGdNvYUUQuP3sg3GwCZxqR6Qx1TRtx1aicb9hU4xjyS0RhuZbmhllpxObDBmKXJH0NDWvaGePqnQqTUVC18BoQJeEpIIPORkrZhGoZEXCmo6c+pkQKyQ7JDgKaACR7S46SFFOn3unET+djLmtkDoBdqIKFqbWC6EVkF4h4HvXrB0Uqt3tRXdu9hDWKKb9sC9F+SgshDUoukRHaMLsIV3P2UivaiBu+WYG2aSLCHbFdCW7boIR0E3j7hibGhpYIIZVgP3YgUf2G7YQdTjJoXOxRQ1Y/ahQExzTo1CQjtJyohJrThmmHqtFGXDWzXPDUVCPVMEtMklcaTo9pmjtNhHvhUTslTZfs1sWzcDI8BcTW2Ugpm1AtIwLOdPTUx5RIIdm1XOup9YHBRhKoKNmD/ftLt60oDV2Pv8YSKH7xomVnXzTJwRaHPpc7+zdu++TlpaHrre0rP3Ybr8MLz916JZsF2hY1c1/khYk1yfNjnzxX9EIlYkOUx3ctfROVi0OXb32bU/K53NnMPfIt7KfZr+n5sU+eu4y3JZfICG2Y1sLVnL3UijaoiTN8swJt842E0f2GAB7jttxbVNPBfLvyY7e97aLc2yLmWvGU9BIH4vYb9pOGSWNJNmjOiN3WHUWkwQQH4jhH2rG7jl1F7lgiqIa+IFd+7Lb3fy5sP2ZS3OZmj+R5xOIfZF/edV/gR8ilf3rb2UsmB28oDn5u5Oxzty39R2ZEbdOGU0jNj3/i3Ote/WbRSrgd10QYL/Kuf/SJK2iMtHH8E+dGllMFbIBAGxG4bUVh965IiQLJDskOAppAsmQv3vmT8ptejT8QAAEQAAEQAAEQyI5AafAfw6odkl3LtTAdlLQDgdOz84/vO7jxgR2rcr9auXrTytWbVuV+tfGBHY/vO3iav7a3gU4mSPZH167N7ssJyyAAAiAAAiAAAiBABAq7djryBpIdkr2tCTz19POr120WSj38/6vXbX7q6eedNV3PxwTJfvC6b4ov0pmL391Gv6B1e4oO/QTffOYt7Lr5g0WPvUaApaK97WPH2vgAcuDi31j29o8eH2TpNPgDgd4hcObidwuxUfrRDxw9A8ne1oLVma1e+/jU08+HZXq4pIGqPUGy//qyv5HfouEbem0iWjhe8x67JrvRwq6bPFJ011ME+B2insefgtrYgae8hS6hmp+fuPFCevDOwEi+lFAZuxwCjZ1NWGsVgdLwDXFio6mS3XyvgfpSmo/Kqv0gwk+utTdv1cSg3wQCp2fmnfj6Pav2HS6rf8/tI+2+et3m0zPzCabS74JkT88KNUEABEDAJOAoSHxsMgFzLrDduQTaWbJLnV2n5q6zeedObRd7/vi+gyTKV67eJPT6qckdZiFtP77vYENQQLI3BCOMgAAI9CCBJitUdOcQ6MEl15VDbjvJLp/Iy54dy/7RG++y+KmuK2e0Fwa18QFLnW99rhyn11eu3rTxgR0NYQLJ3hCMMAICINCDBBwFiY9NJtCDS64rh9ymkl28y5BpdvlGPRVx5+9klm/bZm9/4FVy9KZDLvO9JYO5Yb5HvfWNFdNLED32ZnL2Fgz+T72EfERcIvCy9G9E68o10f6DoufDqBD73PgDD1JY3dlYlftVQ0YEyd4QjDACAiDQgwSarFDRnUOgB5dcVw65kmQfWceflVfyC9nei0m57MlR9nyMZKfmQoer/4+T7Ev6pGBnFftzBfEKNNUq4nXlXTn3nTsoS7I/8NSp8rGtO46pTPZjW1dZ8h2SvXMnGp6DAAh0BwFHQeJjkwl0xyrCKNpOspNu5hshzR0n2UW5us9dKnv+omkzl13dDs9kuio3JXvEC42xRNqQgJkYcw+T7OWyuuX0HqbdLdWOxJj2m8GSH/A/fzHwy/Jvdi44+Zw/e8oPFvN+aT4fBIVCaaFUXCgUFoLCgt9+o8g2ioHxggAIgAAIgIBJoI0le9/wmG9mvPDMlhjJLsPk1ETmvYQUv1Uu82qMdHl5vdDPM21MTNhuKwLm7adcsuvEmHtW7Rg/rT+uXL0Jt5+2w9zlAyZw80Ex7xfzfkn8+UEpCEq+v+DnFwsLs8WF8sm54uxC+VSweGKu9OL8mZN++SW//KK/eMIvtcMo4AMIgAAIgAAItIpA20n2cB65Cocbkl2Ez1U+OguZyyi7DJOrRJe0kp3oy4x2Jf2pHBttRcB8yCN/XIzW6I5kx0Me22fiuF6XYp1J9nzJDwpBwfcDP5/3j80ffvJYedlPT/zxdXN/9I2ZvitOvffyufdeHlxw+fx7Lp/5L1ecuuCr+AMBEAABEACB7iTwoetOX3Xn7OHjLFQd95co2ccn1rBc9nxQzDzERcnoFSS7kuk8Hi5T0s0slwp5NTFRdvPeU2ZB3ZMaRw3lLSdgvkpp4+Rc+fRTG3kKO0uMUdsrV2/Cq5RaPlOuA37JV39BoVgoFdjhpbD46Gz5D2989h2XHXrfy+KCnQAAIABJREFU0vn/esWpJV+e/sPLX3z/10++/+un3r/01PuvPA3JDgIgAAIgAALdTeCSa04nqPYOk+x+UFQRdK8/Zz8xRqt5eiBM2ii7JdkRYo+/wnPlV0trPvX08/RCpa3PqbtPlV5fvW5zA/W6HxTxxJiGzT5J9mKpuFgsLJYLC+Wv/OvEH/zDC0vvOnrkxXJ+Qc6mH+SDYrFQWiypEjXN+C8IgAAIgAAIdA+B46cW/u7W2Qu+euqqO2fjzrbtItnj/KuhnAL24lmQNVhAk04hcHp2/vF9Bzc+sIOeIbMq96uND+x4fN/B0/xRRw0cCCR7/TADcY3nF2WgvVDwS4FfXPAL5f9145Hzl57e+oxPB+Az5XJpYWFhcXFhsbx4hoqxAQIgAAIgAAJdSODYyYULvnrqT647HXe2TZLs+5qYGBPnX8pyLdONzBjcRZqSHqqlIQDJnoZSbJ1CMRB/QTEIigGT6qV8EMwV5uf9Qn7+zAe+NnfhFYVy2V8slheLwWJx5sxisQsPyRgSCIAACIAACMQQEGk/cWfS1JI94+eyx/mXsjwk2eV9qCmboxoIVCQAyV4RUYUKhUJQKDC9riT7fBDMFubn/MI8k+yzF33NL5UXymfK5YVSuZQvL5ZijmkoBgEQAAEQAIEuJFC7ZB8zo+ztLdkraIWWplzDt+4gAMle9zwW+NtDSLIvMMkezM/mi3NzZz7w9Zn/ujQ/L3LWzywy1X5msQuPxxgSCIAACIAACMQQqF+y+/yRDrEPnan7RA7LINABBCDZ6/6mhyV7YSbIz+SLs3Nn3v+1mYu+Pj/HAutneKCd/Zf/74zYijm+oRgEQAAEQAAEuoRAXZJ9LXvIox+w+8M6QFTVLSkwRhCIJQDJXuP3Sx86Cn7AnjgbBCyRPfAX5n0u2eeLM7NnLv7qzIVfm59l6etcsssI+0K5vAjJ3iXnIgwDBEAABEAgkQAke6wIq1GCIM2mJwlAsmf6fRHHqYRD2baHH/vq0hu+dNk14u/G4RUvvnQyoT52gQAIgAAIgEBnEahXss/JKHvmb1PKVBDAOAjUSQCSvU6Ayc0rSval3/j22BMHp0+cEn/r1m+65ls3TZ94sbMOx/AWBEAABEAABOII1CHZn5hYO7Jubt4vsMQYSHZE63uaQEaSPZ8bEC8QcJ96ZLzSy3rVl+d15dNLK0r2L112Del1sbHh57/8u69cS3H3L112zTeuGd47NhlzKJy66cIvbIzeN3XTherpsBfeNBVdp3x88/Jrl28+LveyT8vUP6M8pnHl4slV166Kcz2qdcMdiOpkchUNbXKVHu+yZcuutb01KpY5KWoXNnt88/K4kepBxbUnN+z+w72okslVjqt8R5wPceXKWr3/Pb55uV5DFY3RYMVCixqIZUOtITZm2aRyb5J55YpWVw34ILytdowVO1YQymVjUSb3YlSMXr2Tq66994FV10YuSj2lequik7xCwmKL+CJYTqbrALU6kUB9kj0nJXsAyd6T2SDJkdGe2tscyS7kuJTv/aOC8Ei/1zc00d20a5DsjoKfPnHq8ccn/uGa4YjD9MYvcEkeLdnZTrWHiXe1bdvRSkBIUlMyshNs5OncNpH4ybCfWI/t5P012oGoXg2ZYGxKF5YtW0bS29gbrZGl9clVYblPHZst2RDJuqphFho9qt0R/w2RKjMlF+1DXHmE2WqKrImtTtU5Yzy+ebnJ3HWC05lgQlWvxeObV9FVpluffzaRsqYh5pGtGlCoOq5ujBU7VmZZRcO0scn2OCSNveYaVJ2ZNlWZ/q+eUr2l98ZtJS420wmj82rsx/WL8rYnUJ9kV1F2SPbuFkwYXUUCzZTsflCk6LsfFCHZy+VyOMoeluzTJ0596bJr3GMyk+EX3jS18QvRYnzqpguN0Lr9iUwZZ0t2Dg2HJKNLqX3ljfRyKbqr6NLK/SbWsLWMM2rWo5J4qmKiF3Jn3EgNxkJVOf05ipJZqyAweZVVlg6N8yGuPBFPqp3WcO0xVmqvqOp6zM2YUUvTfMzpf66xHLJc1Z1msUX9VjXGip6QWVbTMG1sShsmSbVXLgKnF8ums89aqBUq6qaynzjcth3jk7GpjWGrnQm8dPJ02L3IQqpWh2Qf14kxkOwVJR0qdDeBtpLs+fHhPm/J4Dh7AEt3/DUkyh4t2eWxME6yl83I+sYvMHVPR0+1YZwro0/rpkDglSeZtpLqikfUeGTXFKHMECU88OAoCVAWZRO7qEh5IkLsph3ao4SHlLbSiBFyFU46lsXQqLLdIZm09E+4R6mO2JBsA1TV2IhTKvzHA9Xc6Fk1NSaBF7mfVT31X+lNZHeRhYKP8kCZCf1XtCVixlyEJlpEc42pjKEds6giIJAOdZsQDeaY4RO5zxrY2TK6ZNmyZXeuYiF88W/VJHXDmltdEbnQYHnF5ZvNlc/MOOtN+EPeWh0pX81xuxbMfa5vzFNj6EZVY1N1YvQs9rJhRkw+2aSR29+jzdQn1ZS/5BiuUKfmhmnQLI//Ihg9WA3woV0JrLjtnod37Da9e3jH7hW33WOWONuQ7F2iabpDmXXuKJop2fP+aL+Rs27nsrM3+/a4ZC+WxCuXnGNd8sdYyV4uc9XOU2ei9Lqt5KJO/rxjOuOzDVM0TW5WuQm6La+j9MHxzZsNyc52qZO9bqDHFlVmO8BUjo7Fsk+ip0jL3BMlVXRd0Z/Rl7FJvrC2wjTbu1z7TTWiNmKVilBgQjUqAoYBt12yfiHf3GbcYmShPdFGz/ZmHN5y1ETzax010UL9qungejY8M0ZnSczNyRSOEzIxpWpOuT1epNwwm1oQTSp6m1VZrm4/oOKowfJeyA1L6ttDMT4ZmzRyZoc7a3qqKlprlGrytqqKNGR8NDbDvXDxHrd6dUsauukVn0Q5ZMXS2k/dhTfIYHgXYxf1RUhqEmEFRa0mMDM7d8uKu0i1P7xj9y0r7pqZnUvwC5Idkh0EGkCgOZJd3QVpRdCRGOMkxpTL5f6bZ8Whjf5/yddPX/DVUx/5x5ltk+yFTKF/cZKd33uq8tdlEo3TWJ2LWbE+hYcraZ2h1JFTR51xLdkh6hi7tOiJ6q2yA04NJWvsYvXJHJuMk6pbbK3BqvrmiJRlXjG1ZlcjNS2xbWaNdGaE7HHb2Z7b1gzAbjNeMbIwvWQ3ZsgKiZIThn1j0+WbNAJmKpk5dRbpt7jhUotJIsua6Y71lmtF+c1vklQf1H/Nvpmb+spDr3zbe/MTNagwRrONpqFXnTEOiUv3bpu2LQnvtR22WmKuOA1X1aZux+1ognyL/chgLg+LlP1BGbRLE78IujO3ET63KwFS7Wn0erlchmRvgFzr3NgwPG8UgeZIdnH7KQurq3tPkcsuDsVmLrs4rj1/ctH8+9zNc19cMbf36YWPXj8TdfSOkexmWgxr5n5mZeaJ0jlh655IFZi1+W7WROUkCHFDda3mXG+ofAOZo7BsmXv+r+yAKwVkb9GWbW/tT6ZmjHCZeSK9oy606NZDc7Zc9+Rud1zuZ2sWWBvHV6MXy9fI7iILXdFqWDQ33ba6N+ayPdGuSdtn+5PZh9jWlmmfwZzKuJq1xKrcxf1hO1xDumO9FeEqW6yywuQqNtNm7YjBmrtZp7SG7YCxBdB1TV678XUVY4H1LL8rav2xAVtmZYH68iT1QniM6zzF1rSpth1betDMr2XuF5YZFcM3feX2lUHVmfwvDS/is+7MaYSP7UxAqPaK8XUxBEh2SHYQaACBjCT72NASoc7FU2LUE2PcxBg8MSYryW4+L4YdMqMku6UG2BlVKQF9mjBK7dOqpQPUSdo56zMzCbt0L3zL6MrYY5Q61tmeKN0mGtvehj4JbST8c0Ztjoy6ZIVOPcNJvqlG6pSb5tgu5bauZje0XdW1eENHLIZ8sk3pxnHlugYJPFWk/LT8N+wYm+5lRuwQpG2iqvpiq4RmhAqVB1RAG2wPmw23me5YbxlrULQXu4RWF2J9ktK2LYM0QssY6zRqJTjehmtp2+F95BmjQP2yUsesUxK2pHsxZpQVGj7bNlV3Zkvri6GAWTZoLsIbyqCzx7FvjSymiWMBH9uPwMzsXHI+DLkMyd4AudaoSC3sdC6BLCS7LdMnBvv0M9fZE2M8lrYeGWXvwVx281VK5XL5/VeffvKFBTPK/v/+81wViTE6A4ZpdkphZ8URD5axtQg7k5tndn5S1QV2ZUMs8HYiGmppAzuX3dpFx3Fro4IDzAIJO1ZXqpBIy7a31ifWVLhrKRPuitWHIXqEdtLNLL/FB1t2aP8s9/gQeee6gqU8Da4RfRhFdndyR2RhlGiNGIk1dO2d4ZB23jVp8RU6mKUhaSuG4xZVVh7TsWtTP9ZRm7U8Yh/UvFqNHSps33J1P6f1wZTjhmnLmPDXEMBiaE4d01JojHzEIQuy2irrUUCuWUfDG5MT7sX0wRiNnh7hOdExFyqvL10kH8wKom3k/5NBvpdZEoas5qZDrkeRVlHY4QQg2SHZQaABBBou2Qf7eOK6SoAx5bu4sGHpMfyFSvbtp+wZ7T0o2bc9/NhXl94gXpxULpf/9odz92wpkGR/9sTiJ26c2ft0wm2pdmKMluzlclk+tj3h2e10NlanA3YmpVCu0sRip1NX11y+ebPK+pUCjH4xP8Zkg5JRXKnIXbpQ9Sz/q82yZ9FYuoabUkkFWryzhkwN2JZtb/mnY1xCMrPkEW9J4w39+m+KHqUtLZdM582ROmo17J5TQY861rzZlRyyMQy51/ZBN7HL7U+qFi+NwGv6FjHR3IkI2smSPZY5640zsE2aU2w/xN1ga7CzW8s6ihf1wYZufVArhK8EGqxtjDUyOhWLKVTFecmR4ZrgHbKgi426llk5EXWu3mOWTTEWEwz7HrErd/3Tg9GAuWBf1gu3rf+3l5fFN3rURgeWIXzoJgK1S/Z94xNrRtbNzvtB9W8/3bn7iZX3bpjPB2miqvLFMZ71vhgeZZSSJY2RyDriyRteQx+HxzIZjH/Nz1jIYlCR9Lq78JlnX8ht2LJy9SbzL7dhyzPPvhA58IZL9sheerZQHKfSH3n3P7dw6bWnV24pPPnCwmOHSn/3r3NLb59P37zqmuyEqk7YVTducgNbCjS58y7qTuaEuCNqL7xO/Nh1ts0+Z+RtFmZDNls+71Dsbbaas3GnNZJ9Ph/c/bP1d/9sfUrVLnVw6CXtdQrixqpbZc0Q7PZlRlV6Swy5hgEqN6yHilTVNSr7QTG3YeuR5084KI48fyK3YatTKD42XLJby8jzIjvtncJqJXu5XN7/3MLf/nDu4qtPf2pw5tb7/Voe/FjNMdeKglXTsOl1W64tmjliHY+Uvx4Ysdds/GgrvG3lTEXeGXmbhVnXZsuv2UOXEBVpo0JHEmiNZPeDYlWqnf/Q71HybhuqUvopwIzZ58eH+2t6kzxZg2RvlSo1g+vOdqRLDZfskb30bGENkr0jj8fNcNpVG83os4f6AN4emmyREcRzYDrlR7bemp3uG23LJHtVqp0krHxiBrv3zsqKMdJ5ZXTZaMIerxHO+mUpv/yVNKbINuzo5+jpCwb2Ukn+T2UYk4RSdWJj2+ktk+cqzjqwNj8uMpv7c3os4r5DVcfwNjQochIb6QmsXL0psnJcOSR7JK5GFUKyd9+5ByMCARAAARCoikBnSHY/KMrcGK6VzaSRkMD1hAR3y/uG1w+6WeamZHfrCy3MU3FIjvdJwc72iYsHUiQJufXVWv7fI1KgKzmuJbss6Rvep0S8qsP/K7yFZA8acDtpnDSPK4dkp+9CFhuQ7FUd1lEZBEAABECg+wi0TLJXlRjjB0WlmwdGfPa0OwqNS61sPPCOhdRZBF1U0+FnKfpVTWbTULfKjgrSq4B6f068/p1pYrYtm7iSXRo3su1JuNRgmZwXiTH0kV6gk2TTGBT5gI1qCcRJ87hySPZqCVdV/0+uY+8uff6lhEe+dN/BGSMCARAAARAAAUng2MmFC7566k+uOx139iwN31B+06vLb3p1afgGp463b/yJmp8YU61e5/JaKfUcz05R4liJVzvcbEh2CoeT2hZVDf3NZLqjuUklG5KdPQabyp0sc+VGRGJMDZadXugjjSXJJiR7I6LsLb/91Pm+9fjHq+6cveCrp/7u1tljJ6HacQIDARAAARDoLQLHTy383a3sPHjVnbNxeiAryV7VQx7JOaFT+/pYfgspZqWV5WtlqHJY5tIumVbO0kvWsTR3/pBHx44K6jMJrrYTJbuKvtM9suKXgf6hiRosk/NOlJ0ke5JNSPZGSHY85JG+L+2wcfh44ZJrWKAdfyAAAiAAAiDQmwQuueb04ePsFYqRfxUle66257JHdlaxUElnnRVjJLcYUXaZ0i0TY0jmWjeAsjSXURV357qcEmkMS+KmVdVvkmRnnoibYs3mToqOuUs4KdNvIiwb3upcdhoLaXrTpPQWkj1mNVdcYPVUQGJMPfTStD18vHDVnbMf4hkyvXmwxqhBAARAAAR6k8CHrjt91Z2zCXrdD4ptJtlJVausGHGmd/VrGsku6/AHsKhXKbl21GNhUkr2qOsHmSdTg2XVKXu0pfHEGH11FWsTkh2SvRUE0shu1AEBEAABEAABEMiCQBrJnq/h7adZ+AqbINBCAoiytxA+ugYBEAABEACBHicAyR6dMNTjywLDDxOAZA8zQQkIgAAIgAAIgEBzCECyQ7KDQCoCkOzNOSShFxAAARAAARAAgTABSPZUci0MDiW9RgCSvddmHOMFARAAARAAgfYhAMkOyQ4CqQhAsrfPYQuegAAIgAAIgECvEYBkTyXXem1ZYLxhApDsYSYoAQEQAAEQAAEQaA6BlJK95BdKzXEIvYBAexKAZG/PeYFXIAACIAACINALBBIl+9gTa0Zys/P5oAjJjmB8rxOAZO+FAyLGCAIgAAIgAALtSQCSvdeVaHuuyzb0KkGyP3n10vKbXl1+06sXP3pJaeh6/IEACIAACIAACIBAYwksfvQSITZKt61wZJK3D1F2vGMSBBSBBMm+90e3iW8R/h8EQAAEQAAEQAAEMiVQeHiLK9n3jj2xZi0SYxCGBwFGIEGyb9mybeGzn8r0+wnjIAACIAACIAACILDw2U85et0Pih4kexgKSnqWQLJk94Ni4eEtpVu/39hfwWCtzQmcuPrKmeu+Wb7p2/gDARAAARAAgXoIzFz3zRNXX5l01rttRWH7tkgZBsmO6DIIaAIVJXvktwiF3U1g956pQrFUxj8QAAEQAAEQqI9AoVjavWeqtpMmJLuWa7URRKtuIgDJ3k2z2aixPLJzor5DNFqDAAiAAAiAgCTwyM6J2k5PkOyQ7CCgCUCy13Yc6e5WkOw404IACIAACDSKACS7Vl3drR4wukwJQLJnirdDjUOyN+pEBTsgAAIgAAKQ7JDsINAAApDsHaqqM3Ubkh2nWBAAARAAAZPA0RdOrNu4deXqTZF/6zZuPfrCCbO+uQ3J3gC5lulZH8Y7ggAke0dMU5OdhGQ3TzbYBgEQAAEQWLdx2/SJU3Ecpk+cWrdxW9zezpDseX9isM+z/w2M+IWEE3DeH+1nDZYMjhfMbadJfnyYG06ypprr/vtzSV07XdT/UTnAxlK/NbKgzOpxCVxUodoNZbDBflbrRkvqQ7K3BHubdwrJHnfiQTkIgAAI9CaBlas3JQ88oUILJPvzx14Mn2gjC6lalGT3PC+Nzu5UyT42tMTzvL4hdndwRlJYmTUlO9sWnRL89BvKYNtJdhNm+uFUVTMLyT7CLzppeqq9UMznBuq8BquKQGsrJw+Wr8yIw0VceaPGUlGyT665+bobbqG/VfuTj+ShvfvvW3b93ZunQ+VdWVBhsIdWXX/fZMTA48ojqqIIBEAABLImkKDIRdcJFVog2ZffevdDWx8zT4oPbX1s+a13myXONkl2oVr46VlG0J2akR8TpGQ1UfbmKVEab83qOZKDU+hgoU5r1nmOQae7Vn2kcWUKMyPJnqnPrZoRdhWaG/D6R5vmQJw0jytvlGNpJPuKLS9mfYZojf399y1bc6iJXcdJ87jyJrqGrkAABEBAESBFvuH+7WY6+4b7t4sqVEG10P+tQ7KPT64eWT87HwTFBb9QRUb49Iunbl5+J6n2h7Y+dvPyO6dfPJVwmiTVZUn2vuExvyDlu9hW+TP9OSsZxpGS6iMLX/YPpU+MsSS7ioDK0J38qFSI2uteVxjlLJgd6fz/Hhm3s4AG1ubXUZKPoGTaIemjLz9kto9HuyLZKg56XKpEB9qNjmQ1VWfJ4LhIPdJjNHbJBB6juXSGppLEKLltDFNZ5jzJiBlmpkK6wCA7I8bwqTsVq44ItUbCqbYQkr0qYpDs4hg8ueZmSHZ9OqprK06ax5XX1RkagwAIgEBtBBIUuTCYUKF2yb5vbGzN2rWzc/mgsFiVZPeDIqn2NHqdZ4aEctmVOI5UvQmSPaThhJZLUnJKiSrVJ/PjpUtxyptqC00Z7jeuYbJkD9thHYkrFilVl/QZef+mzHVElRqXKdmNQanrn9BA5E0CZi8iSck0mOQnS9jQeU1CfDMa8vYDo0PP6+tjCULyn31hpkrVHQtRww/DTL4FwkGU/mNzJDunal4s6StGugTygyJLBOob3seu9FgF2Sqnr06t2eFU1bcswrjdnF16GTOlvzhGoScvrdkSijAo8pTE9Dnrc6RfXy7SQPSVOWtDl47cuBoUv96TzshjglV5lKNQl4LaiChnV5hh/6UDcp1xkmyN6e9LxeVRU5T9xc0/vHvz9KFV17OcmWUq2cMR98e33L3sh48eK5Me5a32P7ri+ptVkxc3/1Bm3Sz74aPH5bkl2ni5rJuzTll03HWAG5CF191wi8rhiTZ4fMvdcdk+kQNh7u2/TzQxUn20V8uuv29CDzayskBBblO+ECEq06AM/8vkquJW21kYrUAABEAgFQFS5FOHnh2feIr+pg49K9pThbC52iX72L7H167997m5uULhjF8oVTx7ORWEaq8YXxetLIUhz6BKpwr9Z4u5JMku9aI68dvy0XFS9U5netG3amtpRFVoG9R61O5XWhaFEc5r6WyICdaFkiOqO+kDE0kqzMy3lfx1JJE5QKVRpCkl2tgY9eWEumFAD0RZFhpRGTE7reSnuhgwpkkoS8mZl6uLNAHHoKoISH2mHTNRKCdNU6aoNTk0ZDsjyU6LXV0UCSzG2Pm1K2ciC8WXRbEVYHkrS5rrX2CEvmeyWM5LyLgol6tUXrCJO6FZW+EAr2MsCb4GYgyylRaTGBM5ED8ojgyxn9RkQ/P7ogelxXdUZeG2QsSWkyAjW4mxu/6zFUVNRtnFDyvR35eKKyeNZCdpqyQjk9pquzy55maZXsIyuSlXm9Xhopn0KG9lSXPVsMxUqVLtMcaZZL9Z1WGql3QzayvzW1gd9ZvAoVUyhz7OIFPVqqF93okeSHlyi7qu2H+f8sT0SghuSSCqsnBbIdK9WIhc/6cfXUFU9x+KSoW3nccnEAABEKiPACnypkr2J/ZtH1l71/zs6UJQDoKqJbuItSfnw9AZUYkJit5JbaeVpXkW90LyUQo4dq6VET4600udJ0/M1KO5oVRpxKlaxwudqL8htYQCdvoV9qX6jHA+VrI7dkwySrILLWJZMIdD2+FxqRIOUKpkayRGLFzSsBxI4CzVm5pBYbx/VA5Hyj5LDpIWZ0LNmCYJzfKLX2OYdVR33OHKKIhJzRsZSXbnMoPT1uuQYTEWj4xt60JLj9LFG4epFzzZpA0BwTauOx0bWkJe6Tq5AfFTj2grguVxBpMkO584ZyDmpPAlqle4HhRbe3pQcgiqkLfSQ+CO0VGCW4v0v0qBbvopttNIdiUi6SQg4tbq4/SjK6QQZ/pVxrZ1oaVHVeS7XDaVKLNENmmD29d2rPLjW+7WXlEdraRZWxUstxqyfumyIU6y88uD0EDUeNl/YwalyyMr01WE2Eu4lLVI/xkoisebZrENAiAAApkQIMkeZz2hQu1R9ol9v8yt+cn87MmCXw6ChfDpqoEl4hTLUs/50xVJWWrJLmJmUrTRyVilTBhSUgk+eXZXmts92ZvOq+70KV/s5dJHK0fpmxEPtozIcmkk748OUi57hPOWyjQdcPxXPjCzaptLEEOzmm6Y26ZZpqIkJZmy4nREDamaDEnGMbc5KN9o+GKAIoeHCquS7O6UqS7c4dPiIaFJY2ngRmslu0zh4Fc+lFvCZ4poSMhmoFoMn4Q1bchyLf1Ffou8PyFWsuuvAttSF0tGv8pggmSPHAirr5YZ7yRqUEqdx1R2Bb26qFBXNXK56jGEl3cNq6Whkp0Hy3nAW8llR90a0tOWp42S7PSDgNjgsr4GyR45EHGZoTJ5ZOTbNm5Kdia1ncpKmqvToKKkylXiDY1CXpYoU/qCR1nAf0EABECg4QRIkTf19lNbstcSZU9/CiTVpc+obIupAftcLtO4VVaAqmNKdi1MTWOu/jN9I5FKDZQcYQV9QxOm7g9XlonmSkNbRiwhop1nmQD6AX/W7afRKESoVVojQSPdM8dibke4yp1zrovIYTUQ+ROHLmcU+K3AFmd51RGuJnxQlwSyLVNaRnMiYCsnMbSQA5WGb8Lsilx2qZ7Z4udjVzp1YIQxlIuZ86TFYEhnJk9lHY5dKvJ6JbvyhNZYnEHWaUxiTPRADIdjB6UGztdVmMBov5HQIr5E6ijBEdlRdhqCXKt8ZVJE39mb8LGxkl3FzpUGZWcS2rbVrU4LEacb2ksbvFwHxa3yNFF2dRqzGqaLstOPAOQ8z6KhBJW4QVG5NToyUl2UXflP/2V5NVDthAMbIAACGREgyR5nP6FCfVH2tTLK7teUGJNwqnN2RelULUGUYvb6c1ImqpNxhGRXmkAoyQH1dBGhbLgWjFAerkbsG5qQKlCIRZLjRl6vlqrKoDMKoQAinXecNB6lIu6Ts9Uw5eTESHYphZUbxFZJZO1ndreMAAAgAElEQVSpmdvAfKBxiSpysILGkkF555++kVQZlFPjNld+CgdUZfnLCe9OWeZvjIpLjIl1LGb4DsxuleziIqe/Xz88kRMWC9sKk8t5UdPBVqBet/prRdcDvL4uj46yc1Hr/I7hNCSDbEbiJXvEQAw9zb8vkYMy4uVqqRuV+dIyh6wXs/7uu/7nBtTlK/vGsaMKW2MaBX2V4jYaLNl5OsqqNWaOOAlWWzqL3HT1jEU7H90Ixlcl2Zliplx2OtfY/WqD8bnsvOnkmputgRg/CzBvk6Ps0ZV5Lrs5ZJmiQ4ii/N9/n5LplEhDQ8MGCIAACDSeQIIiF50lVKhTsv9YJMZkLdnjzoiNLRdxX+e03dguWmKtseNSUrsK4RI5anWtwgRTZIXOKswoMca4nKqQaiJ1sCEo4yQ7v+YxrkKVwI1T2E55pGR3bYpcL3bJp9eJJdm5xKdUN2eu+Yo1GhqXjn1Dw9ZjcNT7gO3BSmxGZS7odfaLXHXUKtp/eRHIrYmrmgwkO+VpXHfDLRVSTfhjVejGUH5wJz1qS2e2jylUYVzdzWkmtfPWWmFbzaOj7I7NSFWtDWoHlCbmPdL/sUi5cfHArzFUvs2j6qVIllf2TwpyaCu2UGWOQmW/KNFv/hChXdKP4lFZMeo5OeQfNkAABEAgEwLrNm6bPnEqzvT0iVPrNm6L21uPZP9Vbu2P52dfKvjlGp4Y45yk2+EjF5FaKLSDSw3xobHjql+yG2kqOsTekJG20EgWkr2Fw0HXDSFQMcoed1xGOQiAAAiAQFcSOPrCiXUbt5ovUTK3123cevSFE3EDr0ey/1JL9owTYxpy+oSRhhBooGSvITm4IUPIwkjDJbsZX6ftLDyHzewIQLLHnXhQDgIgAAIgUC0BSPYq3tua3akdljudQMMle6cDgf9+UIRkr/aEhPogAAIgAAJxBCDZIdlBoAEEINmh0cMEINnjTjwoBwEQAAEQqJZAHZJ9LxJjGiD1wqd5lHQiAUj2Tpy1rH3evWeqUCxVe1BGfRAAARAAARBwCBSKpd17pmo7bXkTe3+ZW6NuP0UuewD53tMEINlrO450d6sDhw4fOTrtHHbxEQRAAARAAASqJXDk6PSBQ4drO2lCsve0Qq1t0XRxK0j2Lp7cmoc2M5vftWfqyNHpImLt1Z6dUB8EQAAEQIATKBZLR45O79ozNTObr+18BMkOyQ4CmgAke23Hka5vNTObP3Do8K69U4/snMAfCIAACIAACFRLYNfeqQOHDtes1/2gCMmu5VrXyw4MsCIBSPaKiFABBEAABEAABECg+QQcyb7QfA/QIwi0DwFI9vaZC3gCAiAAAiAAAiBABCDZEWUHAU0Akp0ODdgAARAAARAAARBoHwLexN7/yK350fzMSwW/HASIsmv11j6TBE+aRgCSvWmo0REIgAAIgAAIgEB6AlqyFyHZ8YTHnicAyZ7+2IGaIAACIAACIAACTSMgJXt+5qViHlF2hNh7nQAke9MOPegIBEAABEAABEAgPQFvYs9/rFvzI0j29MhQs4sJQLJ38eRiaCAAAiAAAiDQuQS8yT2/hGTv3PmD540lAMneWJ6wBgIgAAIgAAIg0BACXLKvVlF2H7ef9npmSENWVecagWTv3LmD5yAAAiAAAiDQxQS8J/Y+lFtz+/zMqaJ/JghK7TnU/Phwn+f15wo1u5f3R/u9gRG/kM8NeN6SwfEaTdXZnPzn/njyX9/wmF+jP2QQGw0hAMneEIwwAgIgAAIgAAIg0FgC3vi+h0fW3D0/e7oQLLatZB/p9/r7B7z+0ZoHT5K9BgtMptfRdbhHodf7hibErrGhgZovIcLGUVIPAUj2euihLQiAAAiAAAiAQEYEvLF9u9au+fe52dlCoRS05TP+lNqWYfLaQCgjtQSzGy/Z2Y8GLORf21jQKjsCkOzZsYVlEAABEAABEACBmgl4e/eNr1m7dnZurlAoBoV2zOQmxTzS71FkWknw0X6ZXCJzXSqVF1QFJpfz/sRgn8pO0WkzokQaHBtaQjX6c/HNVXILt7lkcJwci5Dm3Ac9Fpo8US66E1lA0lqO5QV53sA3DQJ+UGS+8X4rNhzxC8ZAIlwiH3p8A5K9xxcAhg8CIAACIAAC7UmAS/Y1a2fn5plkb8soO8uK4VnsTLtrZSw0sVSfbJfQ3CxnnalbEcO2y1khSXap11XGy9jQ8IhfGBmSaeVWX0ZiTHxzUs/iMkA6MNLvRSbViOx88pOuH8Q1Ce+FXTNIJ2nUaphUn19FsB4rNDTi+vncKAL8cd9GSPY4MigHARAAARAAARBoIQFTsrdjYgyXtkp/MzluRtPltq1fdZ1QuS3ZDfkbngCS5sxIpGQ3RLDqiES24dj4cJ8S3OFemKD3lNo2Lkj8oCh+UhCSne67NT8yMiLEnqYh81Z7FfYEJYIAJDtWAgiAAAiAAAiAQBsSYJJ99ZqR2dl5nsvedk+MMdI5RMKIDFqbklpgVRrXTXl3yqmhGUeniVHBb9GXulSIlOy2UOZiumrJzrQ+E9PsZwT+g4AaI/9v39AEmSUPGRD+ywClCaVsSEOjCwCyiQ0iAMlOKLABAiAAAiAAAiDQPgS8vXuFZM+3oWQ3g8oCGZenFCzXYWOqSSklsj7PVjdz0BMkOxnnUXMt/Vm5yp+xmqv0m5qj7KohC7SzXkLx+LBk58p7YEQ9s5JZSNdQAWGJQ1Dtcd9ASPY4MigHARAAARAAARBoIYH2lux28gkJXCXBdZq4eyOmUth2OWl92tD3gI4NDa9lgWuZy86j+4lRdnHrqtkR33ZENlPYyiZNc358uF894ZFLcBGeZ2Ka7q8VlR1rotB55CW/iqjQMJ8bkPcDqGsYcgYbJgFIdpMGtkEABEAABEAABNqEgLdn3xhPjMkH7CGP7ZUYE3nvpsgMkdFulo8u/il5LcLPceXG7af8AkDcqyrSUIb35cfpATJ9Q8Pi1UtmNXWpYPal+le63BHZ0ZJd3iMr21LMW4hvZVFcV0wM9ukfE8Si4b8GWIUVG/ILA2VYXWa0yRJsKzcg2dtqOuAMCIAACIAACICAINDWkj1hkqRkDz3aPK48wRR2gQARgGQnFNgAARAAARAAARBoHwLeHnn7aTtG2RMwxUnzuPIEU9gFAkQAkp1QYAMEQAAEQAAEQKB9CEjJPjM334aJMQmY4qR5XHmCKewCASKQhWQXj/JUaUlWRhP124SNcD5VEzpFFyAAAiAAAiAAAg0hIBNjZuZYlN1vy7efNmScMAICaQhkJNnpruIm62bWHW5daMs3xKVZjagDAiAAAiAAAkTAirJDshMXbPQmgcwlO39iDyn4rCFDsmdNGPZBAARAAARAoDkEuGRfOyISYyDZmwMdvbQtgeZIdv7oIf4soBx7kZbHH/DPnzWk0mf0A4jE+wHo0UY6r4bngMn6xhM8lwwqmysGlyhz/F1d5rP8jWcW0QOL+INNRQv+tCK8MRfheRAAARAAARBoGwKUGMNy2SHZ21ZKwrHmEMhastPz/qVA19J8gj1gVCWxsGp8l9Ll6rmi7Oml9PRP+TB+XodJecemfM2Wskm3eYhqItKv2xrvQMjnRkf8Ar0xIEx++sQp/IEACIAACIAACNRJIHyGTSiBZC8m0MGuXiOQkWSnaLcQ3OZLwQRhro+lLld7hQof7ffMyDpT9ixIb7/ylr0EbGhCaHGKmsdK9si2iKm3TRyl1750GC8IgAAIgEAaAkyyr1rDEmN8RNlxzu55AhlJ9nDyOpfXhha3ZTTtpdA4fZmlOtcvC5OXA0qya5tJkt24hvDUO3fpfVum6Kd+sQECIAACIAACINBCApDsiLKDgCbQSsnOM17EscCW7FqFUxzdibI7reiAYt5+Suo/sq1uwtPcodoJCDZAAARAAARAoB0IeHv2IsquFVs7TAl8aCGBlkl2/iQZK5ed56BznR2b4+4E70noE8Boyc5Fuds2NyBkur4qQKpMz//oRAsJGyAAAiAAAi0nICT7WiTGtHwm4EA7EGiVZOf56/RYGE/ce6oKB0Z0GoyZ727U1/ek6pC8as6SYPgzasTDZwpmOU+Q4fezMoGu/omrBUh2SHYQAAEQAAEQaBsC3uMsyr52Zha57Ii1g0AxC8lez6UIZbPUYwRtQQAEQAAEQAAEOp0AJDt0KghoApDsnX5Eg/8gAAIgAAIg0JUEINm1XOvKCcagqiIAyV4VLlQGARAAARAAARBoDgFIdkh2ENAE2k2yN+cogF5AAARAAARAAATanAAku5ZrbT5VcK8JBCDZmwAZXYAACIAACIAACFRLAJIdkh0ENAFI9mqPIKgPAiAAAiAAAiDQBALtLtlH+tWD59h/9RPuItGwp1Dzt7vHPWeDvd+xb3jMZ8+5oz+7C95dqA5VjtuI6zGuPsqbQ+CZZ1/IbdiycvUm8y+3Ycszz74Q6QAkeyQWFIIACIAACIAACLSWQPMk+/PHXgwPNbLQrCZezy5KmLZOJ6bjBHSkZBfG45qYziRs19k8wTJ21UMgt2HrkedPOBaOPH8it2GrUyg+QrJHYkEhCIAACIAACIBAawk0T7Ivv/Xuh7Y+Zo72oa2PLb/1brMkvG1K9uQXrZtt4wQ0JLtJqRe2zeC6sx05fEj2SCwoBAEQAAEQAAEQaC2B5kn26RdP3bz8TlLtD2197Obld06/eCp5/CTZxXvUxVvWHUVOb2WnctpwXvTYPxSRGCMcMJuokolBeiGkEd0Xnsh8HVVuNh8bWqKyeSpk8iSPHXvrJ7By9aZII3HlkOyRuFAIAiAAAiAAAiDQWgKmZC/6BZ3hnYVbpNpT6nU/KFqJ5lH6mIny3IAnXrHuy1eyk4A2hb60pow4A6Qmolzqcm7WD4pMhfOG8eWqa/aad6nU87nRETtv3ukUH7MmECfN48oh2bOeEdgHARAAARAAARCogYD3+N59q9asnZmdZ3o9Y8nuB0Wh2tPE18VgKMoupTlXw668TpDshoBmFqJuPxUduTadhv7EYN+SwfECs6AUOQ/hq3K6WmAVWM0aJgNNGk4gTprHlUOyN3wKYBAEQAAEQAAEQKB+AlKyn26WZBeqvWI+DA3MkuxMN3v9uYIrrxMke27AvGO1CsnuNCTJHleuJLu8MOCZMf05CPdsf7ehdRK3gdtP48igHARAAARAAARAoIMItECyV0WnAZLdDIrbgtv0JOIywGxoSvbIckOyC7PcILvAMHvBdpMJ4CGPTQaO7kAABEAABEAABLIgwCX76rXNjLJXNQxTsvPbOlmauJmhbiaXk+y2Nzx10yq/nbTmXHaZLs+NmDnuThp9bkDIdOEYJHtV093yykiMafkUwAEQAAEQAAEQAIEwgQ6Q7OrpK9arlHhOudizZHAo9vZTM02FvWUpV9UTY0b1e5wMoS/C59IrVa4vElguu/qnlH2YO0rakwAke3vOC7wCARAAARAAgR4n0O6SvcenB8NvMgFI9iYDR3cgAAIgAAIgAAJpCJgPeSw14YkxaXxCHRBoFYGKkj0ICu381ypu6BcEQAAEQAAEQKAqAvmgaPwV8oH8Y0YKxaBQCoqlfFCYy/v5oBAUSy2W7IVdO0u3rSgNXY+/7idw24rCrp1VrebmV4Zkbz5z9AgCIAACIAACPUjA0OtF0uv5gD+2pN0ke+mGa8tvejX+eopA6dvXtfPXMlPJnp/3B9fMv/+al85fejLh7/3XvDS4Zj4/79cQzm9ntvANBEAABEAABECACHSMZC88sr2npCoGSwQKOx+l9dpuG5lK9sE18xddfSpBrNOui64+NbhmHpK93ZYH/AEBEAABEACBRhHoGMleum2F0HBnLn539+eEIPNn6PozF79bzHjpX3/QqOXecDuZSvYPXJsUXCe9LjY+cO1JSPaGzy8MggAIgAAIgECbEOgcyT58gxRwwze0CTu4kSmBUifMeKaS3RHlFT9Csme6IGEcBEAABEAABFpIAJK92EL66DqBACR7RY1+7crZ6ZmFz986I2omSPZ8fr1+acBFQ0/kfT8/MfjevsFx6227+dwAex2BXRg3RyPaonqxgHrtQFwTlIMACIAACIAACNRGAJIdkr1NCUCyJ0v2z986s7CwWC6Xv/Sj08mSXej1i26cFJp+79AXvrMviJTsNRxE6KVg1bZllwd4d1jQpt++amcT9UEABEAABLImAMmOU2abEoBkT5Dsnxo8PZtfKJfLdzw0T9Vio+z7vtv3nz43ki+ZFSDZsz62wj4IgAAIgAAINJBAPZKdPbm9ga4km+oIAZc8BOytikBHzHhzctm/cNsshdLPX3rykmWnfn2iWC6XfzVe/C9X6kfKmIrc3Hai7GKXKdl5PozXNzRBIXO1MaqSX2KzZVRNnWDDS2SqTH9Olo8NLVHZMwMjfsH46Ik6RgmrUNVSQWUQAAEQAAEQ6HoCNUj2favWrJ2ZnWd6HZIdv2tnRgCSncLnx0+XzpwpD65hAfW+q1587On5crk8cTRwHgFpynR3e9933/2fXuZ5AxRrJ8meHx/uU/nrpL+V7JbqmWv6aCVNTcSxMu9PDPYx9e8HRb6LaX3eBZkaFYrcTIyJrND1B18MEARAAARAAATSE6hRsp+GZM9MqqafvO6uCclOkv3G1XNnzpSFah99LF8ul4+fLn34eh1fFzVdmR4UnJL1n2ORbpHULiV7Tut1JbKZtia1LdaYEOIUMjcXnivZcwOecRPqSD8P3htXBdQ2JNljA/nUBBsgAAIgAAIg0LMEINmbl9vTs4ustoFDspNkP3/pycE182fOlMW/YqH02X+aNfemlOxMwfNw++fXFv38xI0XMgUvIuJijkh/0wbNnRDf9JE2nJoix0blwGj7PI7OPpLuNyU7u1pgst6qQF1gAwRAAARAAARAoErJvuA9vnffqtVrEWXH0smaACS7I8qFaj9zpvy1O+QjYpwKTkw98qNQ6hfdOKkSY1i2Oql20t98Q4e9a46yO4uEm5Wq3ZHsoqZZwWmLjyAAAiAAAiDQywSqkezFoAjJjnyYZhGAZHcU+flL///2ziY2cus+4IOeeqtvvfnWSy8+uIXkXpL47EuBXILeOmp6CFAUOfiUOg5ix5CU5JLEW9htjdiws7ta2ZoIMtIiWsAr7a693x/CNh+wvR/dSCuN1rsrDfkeqd0t3nvkI4ciRzOjGQ6H/A2INecN+fje73Ho3/z15+NX//rL1r+8kxJfPyDKfu0n/zh7IzD4az/5mz/72/gkj8aSY9nnNjGmZidhVPeGxtJd4ldMvXuU5h6vzW7mNKZMcD2u/nFlT93A7s4KBCAAAQhAAAJdK7twBMqel61yXrrCQ9m/8f2v9lt7Vsk3vv9ValhdCNn2HKVa7Z8+8oSQYZRdzc0SJKVMzF5zfl2vWWWfWlBPVjKvSMoTJ2dC2cOE+HA/U1uY9KJKw7nYjdybVBmbFRPfIHEg3kIAAhCAAASqTKA7Zfd2HZQdX8+XAMo+/WErMSdMlq//3fceTH/YylL2DuVZ1779Ip61JeUQgAAEIAABCORAoAtl33NEoOyyfIkx+qHrKRHE1L/v5zAeHMISGImy37yz0VhaOTq/HF8aSys372zYhsVXhjovu9Nypz9sff2V+1mmbsq//sr96Q9bTsvtoOZZH8X7El/vRtltID2+Eq+EdQhAAAIQgAAEUgm0+7fX/VtbW7iLfpKJ9IT0hec7Qpooe6GVff3etu2GXUkttJ+6wtPKHt1+Zz8yD3axt+XZclZyIzASZW8srd5dbyb6eHe92VhaTRSat0NV9izPHmB5aqfC5JaUn7JZ21MOAQhAAAIQgED3BELh7kHWHZvsIH3zZCRTiTroeCn7m299cGr1fBzWqdXzb771Qbxk//pCvVavt80kHfrKZL0+ibLvJ5ZbyUiUPR5cT6yndrysyp7aWQohAAEIQAACEBgIAcf1el6MsktfKGWPrF21Rz3e1EbZXUd4hY6yb20/+Nmb71lrP7V6/mdvvre1/aAzWaXsDfW8RjtdtCs8FWKvL16fiZQ9Ntt0MPNdYppqO6WGvanOTkGtZ8mYnF6zz34neNnVXPijUvbUE+bo/HJqOcqeioVCCEAAAhCAAAQ6EOjZ110Vj3eFknXh7cWtXfu6VnZpEmO0svvFnuTRWnuXvm4SY+oNqYw8nMMuNGwZV/aFmdnrrp5bI9xSS3wg33bqOrMSmy9PP61dP8JdPSte16BSccJJMzqMJR+h7ANMgMmqitMMAhCAAAQgAIEREJB7bs+LCa7H/9UxUBViV8rujpGyu8Iz1t5NfN0Mj46yS+vcKismlPK4stuxtLflte2yNjuhjd/uayufmLmht4w9lSbc2NbJSioBlD3LswdYnkqeQghAAAIQgAAEhkpA+k96XYT3WCjL18ou/KB5ga8H1u64ctcZhyi7af3W9oMD82HsMBhlt8kwcRGPK3vbvNFhvNzkz5hQfRBZj+axDmbRQNkt6l5XRqLs3H7a6zCxPQQgAAEIQAACvRLY2RW9Lrst0XJkS2fIxG5FNbIe/Dtmyt4TNavsOnw+OT0TZchYZW/PgVk0z5pR8Xj1gJipBTdWEkbo420gyh6n0f36SJR95JM8bjfv57lsNR+wQAACEIAABCCQM4Ht+496Xb56sPtwx9lpCZUHL0xqe5uvu9Izyu4KT6pc9ivX5uY/eriza+aX6d7ADrnlkATOKnsQaK9F96G2KXuY6a4nf4zuH1W716dsbrq59zQxzwzK3t/QD2nE+2tM1l4Dv/10u3l/gHkvB1aV1S/KIQABCEAAAhAYHgEdYnd3dg9YHu26j9Q2Yrclt+8/DG5a1b4eBNrbEmMCZVczxpRb2cOouZ6UXs8bE95IqqaUMa+JmVkbZQ8S32tRnno4QaR9toySe5S9vzMeZT9QuA+/QX9Dw14QgAAEIAABCByGgEpk9x4fuJj8dc9/4j9+utX8yt97Kjz1iNOMKLvfnhhTrij7YXCz71AJoOyHN/IDaxjqCFI5BCAAAQhAAALpBFKmiwmnglG3lgaLUnNXzQYjvcf3tralr+5AbVP2YFL2tBljLqHs9ulTrAyTAMp+oHAffoP068gwh5UjQgACEIAABCDguF6rbZEtN7Y4Ut1p6sjdlthpuS1HOsJbv7clPDVjjFX29twY9YglR8RmjNHK/mFpctk5aQpLAGU/vJEfWENhR5+GQQACEIAABEpMoP1RStJRedQxZQ/Xdx2hJopxE8ouHaFKzKIo6XnZhRdTdm+vhrKX+AQqVNdQ9g7C/cMf/bjDp91/NNQR39xqfv75F7u7zlCPQuUQgAAEIACBsSNghdvIeta/LTXPulJ210bZVaqMVnxl7UrcVd+lJ9RTUY2yC3X7qVb2q3PzRNk1IPIHhkkAZe9g3t/57vc6fNr9R8O7xt26fWdlZeXqtWuffvop1j48ztQMAQhAAALjSCBS9sC8tX+3ubjScZUt4whHSFf6GyYxxhTGtlTdR9nH8SQoTZtR9g7mXXBlv3X7zurq6v2vHrrC+9/f/f6zz861HFGaM5OOQAACEIAABA5PIGbtno6Xm6h5W+zcEbLlqqi5kP7G5paOo3stV+gliLWrlgTKru5M3VWKT5R9mEHlw499yWpA2cdU2W/dvnPy5Mk7d+7aE/Ly5ctf3rxl37ICAQhAAAIQqDiBdl8flrJfIzGm4udZPt1H2cdR2U18/cubt06dWtna2naF9/DR7unTp/+0vpHPacNRIAABCEAAAsUn0FHZoyebHjLKjrKTyJ4HAZR97JT95q3bq6urXz145ArvT+sbp06t3L27fubMmc8//6L4V09aCAEIQAACEMiNQGdlD5ohVfT9MIkx1+bmP2KSx9wGtbIHQtmtsv/wRz/+zne/13npfg6ZM2fOLB/0OnPmTK8nXtzXzb63bt9ZXl7G13slyfYQgAAEIFB6AvuUPZix0ZQH3T+ksl/mUUpktOdCAGW3yr5/pWi3n+739YePdomvl/5/OXQQAhCAAAT6I9B+v2mbr9t5G91xVfa33nz67DNPn33m8Usv+jOvsZSewOOXXjQj7r/7X/19H3LYa2Xl9LlzF1KXlZXTrvD223bnku3m/c4bmE8Lpez4eg5nGoeAAAQgAIEyEeig7EE31dORDpcYM6oou/zsrBE4/q0Wgb/6S3H7dmG/pSi7K7yTJ0+a/HUzTCa+/sUXXxZ21GgYBCAAAQhAYLQEclH2q9dOqFz2ln44ah63IVqm/g//rVq2qv+qUPEuex+8a0+AAq6g7K7wlpeX7dDg6xYFKxCAAAQgAIEsAlnKHmyvQ+xhlF09U6mfedkvXxmZsrvCkxcv+G/9ovQ5IXRQEXjnLfHHP2ad6wUpR9njyk7+ekFOS5oBAQhAAAIFJxAqe1sWe9TmQNl98wBUlWcbPEppz5X6kajpTz9tf5TSaJU96kwud0ByOAh0JjAqZe9+fpjOmfGde9flp3b6mZMnTzI/TJfQ2AwCEIAABKpMID5jTJJDGGJ3pVJ2x5VK2b29jc2m9PZUYczXHaE+VU8/9Xzhoez8PIBABoFRKXtnEe/+0+RlIqObbAYBCEAAAhCAQE4EwhC7K33XKLtUOn5vsyn9x9rjZRikVyuqVWqDTsruq3R2/h8PgQoTQNm5AkAAAhCAAAQg0DOBKJSuYuT7Fl9ZuFH2wMj37m1uS/+xkCqUHl/0vij7Phm9PjNZqy/2PDD76umjBqcxVatNTq/pn1ODqLCPNpR+l5t3NhpLK0fnl+NLY2nl5p2N1L6j7KlYKIQABCAAAQhAoAOBeJg8bV1JuQ6xq8x1tS5NYoyJsvej7CpiX6klZ2VXmj6iXwiVGlbb2cbS6t31pn1rVu6uNxtLq4lC8xZlT8VCIQQgAAEIQAACHQi0XNFxkTph3Ws5ctcRLddzhb9+ryk8lL3rHx4oe4fzrwQfxYPrifXU3qHsqVgohAAEIAABCECgA4Ews6UtK2IPU+4AABbsSURBVD0MtwchdnP7qfF1IR9v3GsKuecKfU9qLDfmgMSYRzstESbZdGhQ+T6yyu64N6YnJqcbsxM1/aovOu5i3azXphb07b26ZGohKo/SWvTuwda1idnrwfbxOqeOTE+GW9TqDRnWJoNDryUPp/+AYgtr9ZnZibDm8g3EkHp0dD6aYjx+iKxylD1OiXUIQAACEIAABLohoPLU25Z4OrvKYhdyT6j5YZSjC/lYek82NrfNW8eNEmPUsaSaAlJ4vppPRngtR6hZ0b29mpnkEWUPnFs7cSjrgZHHtN4IdGjwKhldrQf7hhkvavugnhvTEzVr8ErBY4kx7cpeM1W5wluo10zyjKl2YuaGdvdkVd2cQGyTpeZZ5cNQ9u3m/dyWreYDFghAAAIQgAAEciawsdnUy9bGZuqiPr23ub1xr7m+sbWxuX1v6/7N23eDKHtM2XWae8qMMQJlj+m4joiHN4Nen5k0rqx0eS0Ib2vJTkbWVbx8bXYijMSHeq02M85db0Q3mGYre6xae7hEtWE5It49gSw1zyofhrJ3P0Xj4bfsngxbQgACEIAABCAwKALS3+u4PJa+WkygXXqPPf/Jvc3t7hNjUHavd2UPQuxmjBfqtYmZG0rEYykr2tStskcu3jHKHm0W/UJIVIuyd32Lgv0GcvupRcEKBCAAAQhAAAJDIqCnUTczM6b9q5PPta/7jr73VMi9IJfdPF8pyGW387IHuTGOULerOvrRSyTGBJM8Ws82Y9lblD3MkDH72qrsij0/eouyJ5S9/a2tk5UOBJjksQMcPoIABCAAAQhAYDAEUuZiD9PZYwHHlmtmjFHzPK7f2wokPubr4aOU4sruOkISZe8jyh4kmrtC7xvPWY/nsuv1wyq7vs+VXPbBfJdiX5gOFZIY0wEOH0EAAhCAAAQgcBgCjitbjnD0JCVZyh5PZ9dRdqPsPlH2XqPsUwsqpm5eUZJMeMeqLg+TZFKUPZxtJm3GmCDl3SbGBGn0wbH0bDZhzYc5Xdi3AwGUvQMcPoIABCAAAQhAIJVAOMljOJ9jRqAwUnbpb9zbUnPCRIkxdoJIE55XCTYoe5+Pi7JzvKSO1rAL40k1wz5WZetH2Ss79HQcAhCAAAQg0DeB+BTsVt/batOZM46QLVeo7Bfpb2wqZReBsoe+rp6NqmO4ep5HlH38lN1E8eOTz7SdBxk/5timVwIoe6/E2B4CEIAABCAAgVDZjXm3z7Oup1rXD0jytLKrRHahlL0p/T3h+SqrQi1630jZvWSU/dKVa3PzHz3caQUzwCN/2QRyjrLrvJogLaZWU09f4isxbAIo+7AJUz8EIAABCECgfASylF0lppulLcrenbJL31G3q4a57Ch7+c4betQ3AZS9b3TsCAEIQAACEKgsgcEqu70DVc0w00LZ7e8eViAQEkDZK3u1peMQgAAEIACBvgl0UPYg0N5LlN3uklD2qyTG9D1C7FgyAih7yQaU7kAAAhCAAARyIGBvOU1dCRogTS67fjRSVi67yWg3kUTptVyx03IdVwrPr126cnVu/kNy2XMYTg5RfAIoe/HHiBZCAAIQgAAEikZgn6mHM8AoBY/S2cMZY7Jz2QNlD/ZKVfZdbj8t2vDTnvwJoOz5M+eIEIAABCAAgXEn0FnZbaJLR2UPJ40JA+2OMFF2JxFlR9nD30D2xxAr1SOAso/7RZP2QwACEIAABPIn0FHZw0B7dmJM2zyPUaBdPSp1pxVT9uNzJ/LvG0eEQAEJoOwFHBSaBAEIQAACECg+gXZrjyfGHKTsUkWN9e6JvVD26gWPi3+iF6SFKHtBBoJmQAACEIAABMaLAMpOvgoE8iNwoLL3evnYaj7odRe2hwAEIAABCEBg7Aig7Pnp2tidHDR44ARQ9oEjpUIIQAACEIBAFQig7Cg7BPIjgLJX4apKHyEAAQhAAAIDJ4Cy56drAx88Khw7Aij72A0ZDYYABCAAAQgUgQDKjrJDID8CKHsRrnq0AQIQgAAEIDB2BFD2/HRt7E4OGjxwAij7wJFSIQQgAAEIQKAKBFB2lB0C+RFA2atwVaWPEIAABCAAgYETQNmHq2vXZyZr9cWBD1tPFTprsxMTs9ddmdhroV6LvyZmbjiNqVptcnpNOu5ivTa1sG+XRA28vXlno7G0cnR+Ob40llZu3tlIhYOyp2KhEAIQgAAEIACBzgT6V3b9vCC9O49Syn52UsGVfWLmRur5gbKnYtlf2FhavbveTJTfXW82llYTheYtyp6KhUIIQAACEIAABDoTOIyyh/vGlV09D7Xlip2W47hSeH7t0pWrx+dOdG5EiT9F2Us8uK7w4sH1xHpqx1H2VCwUQgACEIAABCDQmUCo3Uq1HRGXb+mY2LFU5S1XOMIT0t/YbEp/T3i+q7ZP3wVlj5Jt4squQ9dBKkp9JkhWcdwb0xOT02uLYZZKlI6iPwpTV8LMlmD7xuyE+kRt3FZtI8h+aSsMj5U4FRbqtUSU3QbX7YoaZpUkEzY7rF/1K3hFDU7UX4W3R+eXU7uZVY6yp+KiEAIQgAAEIACBzgQGquzaVKWJsrtE2RUOq+zGv40iBy6uLTz08kB8VX65zn0PysM8eFVPfPs2gw/MW7u1yUS/MT0R6biqM9w+fjZ0o+ztzV6sm0z3tdmJMNPdaSxWOeU9S82zylH2+BnIOgQgAAEIQAACXRIYjLK7Jjy/T9kliTHh7afqHtBQc1XoOrwlVDux8mwzYFF5YvsgGC+NQ9fDaLe6YTSm48bCs46VOCfabz9tu+vURtmz64/anKi2Um+z1DyrHGWv1OlBZyEAAQhAAAKDIjBgZZeeq6Lscqelo+xG2Y8dnxtUc8eunijK3u7WkZqHLm66FpUntg83Syq+muOl7RVM/BLzeFtngl5XUfa0+oOfHPqw9sdDovKKvOX204oMNN2EAAQgAAEIjJbAEJTdR9lTctkT4Wr7NqngNvquXDlKE7eb2RVz3th64qeRKozv227/dstulT1m/3bf4Og6zb3K1s4kj4lTgrcQgAAEIAABCAyDwACVXTVPqltUHVfuEmU3oxVF2bXdZuSyR0kmNiKu1TzIa9+XEx/bPlatPT/MDaP7j2U3MCtdKXtq/Y0po+mmkVVW9gTSA9+SGHMgIjaAAAQgAAEIQGA/AZQ9iojvp3P4Eqvs8WQS9biiRmLGmGQue2KqFpuwnoiyJzcLg+tK/YN8mehYie50o+yp9ccqj35UJCrnbSoBlD0VC4UQgAAEIAABCHQmgLIPV9mz6KvclXA2mKxtKC8fAZS9fGNKjyAAAQhAAAI5EEDZR6DsJnGFfJIczu+iHQJlL9qI0B4IQAACEIDAWBAop7LLixf8t4/4M68VZ/Fmvrv613/+6l8ES+OfC9S24lA6bEvePiIvXijyFw9lL/Lo0DYIQAACEIBAYQmUUNn917//9NlnWCpLwH/jB4X9vqHshR0aGgYBCEAAAhAoMoGyKbv87GxlVZWOWwLywrlifutQ9mKOC62CAAQgAAEIFJxA2ZTdf/uI8bYnX3v+sFkWRcqroS/dEHjytefN6Pv/8e/F/OKh7MUcF1oFAQhAAAIQKDiB0in77OuBtM2+XnD0NG/gBPzCjz7KPvBBp0IIQAACEIBAFQig7COYMaYKJ9ZI+oiyjwQ7B4UABCAAAQhAYNgEclL2tdtP81k2X33DRNk3X30jnyNylOIQKP7ozy19+uvfXk5d5pY+7ePbvtV80Mde7AIBCEAAAhCAwHgRGL6yX7567PhcblZXfGnLDUUFD1T80UfZx+v6SGshAAEIQAACBSGAsucU/q+gQOffZZS9IJcVmgEBCEAAAhCAwGAJoOwoe3kIoOyDvTpQGwQgAAEIQAACBSGAspdHWPOPahftiCh7QS4rNAMCEIAABCAAgcESyEPZjx47npvbFV/ackNRwQMVf/TJZR/s9YvaIAABCEAAAhUhgLITZS8PAZS9IpctugkBCEAAAhCoGoEBKrsjPFd6rvRbrtxpuY4rhfRrly5fJcpewYD3SLqMslft+kV/IQABCEAAAhUhMARl9xLKfg1lH4m/VvCgKHtFLlt0EwIQgAAEIFA1AgNWdh1ob7kiHmVH2cuTeVLwnwEoe9WuX/QXAhCAAAQgUBECg1F2IR21eAqa9CJl91RiTHWV/fqtP7z8fC16Pf/TpVvo+xAJ5K/sZ6835xdXj84vx5f5xdWz15upP2+4/bQiF1a6CQEIQAACEBgsgYEqe2DtWtkdlcuOsr/8fO2b7ypJDfT9Wx+nmhyFAyGQv7LPL54+d+NBovHnbjyYXzydKDRvUfbBXr+oDQIQgAAEIFARAodWdk/H102UXSm7I0yUHWUPNd0ou7L2d79dI9B+u1RR9nhwPbGOslfkGko3IQABCEAAAjkQOIyyu1rQ25VduXvLETstlD1b2a/f+vibtW8fCZNklMrr6LuOxL/w8icffzNIpgm2ySrXwXu7cTyc/8LL7/70OVVJdJRUgyxZYf5R9qPzy6kMs8qJsudwUeMQEIAABCAAgfIR6F/Zpcpc17vbEHuw0qbsly9dquyMMSYZJkyMUW4dW49kul3ZI88+8q1aTOUzy5975Q+hu7/w8idhBk4lw/koe/muUPQIAhCAAAQgAIHQuY15J1JcottJVeDcFY7whPQ3NpvS3xOeb+gdrOxXLp6ruLKHt58qnzYR2YOi7OFmn/z0OW3eYZR9X3l7ps2Rb9Wee+UP8d8JqQHgEhei7FzUIAABCEAAAhAoJYH+o+xBiD0h+vty2a9cOHXiV2/lpon5S1uHrsXt2YbMw4h4VpQ9ZvbdKHv4g8D8N1T2qJIOzSvfR/mPPreflvKySKcgAAEIQAACRSNwaGVPZMWobJm2SR6vnP8flD3U9G4SYyLbvt6Nsu9LgEmE5Mvn5R16lL+yM8lj0a5otAcCEIAABCBQSgIDVfa0edmvnP9vlN1YpspZ1/eDmuh7mIOu525vu/10XwKMmt89VeVVfrypx4osyv702Wc2X33DAinUCreflvIySqcgAAEIQAACwyYwGGV3TazdKrvcbbmO0POyX0bZ9bzsRhxVeoxJT//EzOhSq9VeePmVxIwx3Sq7Dd6H2TEq2QZlR9mHfdWgfghAAAIQgAAEciYwYGWXniv9ltum7L+pbJS9UPHdKjQm/8SYXqkSZc/5AsfhIAABCEAAAuUgMEBlV0CkmlXGceWuE0XZUfYgat6r3rF9rwRQ9nJclegFBCAAAQhAAAIJAoNXds93BMo+zGd89iqy1dkeZU98vXkLAQhAAAIQgEA5CAxe2YmyV0eRi9ZTlL0cVyV6AQEIQAACEIBAgsDAld1F2YsmstVpD8qe+HrzFgIQgAAEIACBchAYoLI7OpfdlR63n5K8PhoCKHs5rkr0AgIQgAAEIACBBIHBKLvImuRxr3b5PLefjsZfqxNctz1F2RNfb95CAAIQgAAEIFAOAsNRdhHOy46ycx9qjgRQ9nJclegFBCAAAQhAAAIJAodWds8JQuzSVOUKr+XuU/bEUYf31p99/emzzzx99hl/9vXhHYWai0mg+KO/snL63LkLqcvKyuk+qG41H/SxF7tAAAIQgAAEIDBeBA6j7K7w9O4mKybIjXG0su8ETz8No+y5QSm+tOWGooIHKv7oo+wVPC3pMgQgAAEIQODwBPpXdumlKbuKtbdcYZRdeii7UJhY8iGAsufDmaNAAAIQgAAEIJAzAZQdny4PAZQ958sHh4MABCAAAQhAIB8CpVP2X/6nyWV//NKL/sxrLJUi8PilF4M7Gd4+ks/3p9ejkBjTKzG2hwAEIAABCEAgzGwxKenxG0nbJm10hGy5whGekP7GZlP6e8Lz3WImxogvvzTSxr9VJiDPrBTz642yF3NcaBUEIAABCECg4ATKFmV3hee9906VbZW+7/3D3xf2W4eyF3ZoaBgEIAABCECgyARKqOyu8MTvf++/9YtK5YTQWUXg7SPybD9TJeb2FUXZc0PNgSAAAQhAAAJlIlBOZS/TCNGXMhFA2cs0mvQFAhCAAAQgkBuBoSv7lXOLx94/8tSXrYe+6+zl1jEOBIECEkDZCzgoNAkCEIAABCBQPgK9Pmyxdun8b469//ZT32s98lzHLx+RDj1y3BvTE7XoNTF73ZUdtu/1I6cxVatNTq8dqs6FetTAYG3Q7ey1X2O0/c07G42llaPzy/GlsbRy885Gai9Q9lQsFEIAAhCAAAQgMFgCPSv7xQvLRz9458ne3u4j6TjlmQK8G6xG2esNpdSBvtcXu9kx/20cd7Fem1ro/ReF+tlQ1E7lgLGxtHp3vZk40N31ZmNpNVFo3qLsqVgohAAEIAABCEBgsAR6V/aLZ48d+8B1XaclXbe6yq6svTFVK2oAG2Xv73sSD64n1lMrRNlTsVAIAQhAAAIQgMBgCfSu7JeuHJ878fDRjtDzug+2NQWvLR5ljyt7wo9toFpvPzm9thjmqgRh7+zyIDSetYGO7tvaavWZ2YmM3wyJJiV31H8ocIV3fWYyTKNRbYu9rZk/JsRK+onZF3xA9zfv6Pzy/kJXeFnlKHsqLgohAAEIQAACEBgsAZS9hz8UxJVdO3HgtQk/blf2Wi1MUFFZ5jrnxNSTVh5X9swdJ2ZuaAXXifXdKbs5YrjjYl1nzDtrsxNh25zGosmisY1Xh0jbYLDnX9Fqy1LzrHKUvWgjSHsgAAEIQAACpSTQj7LPzc0HUXZR5dtPo/tEOyp7bLO1ICgeBtGD20yVGWvztvVkbhBz6ECpu1T29hyehXptYuaGNvKoeeb83qfsyQ1K+TWwncpS86xylN2iYwUCEIAABCAAgeER6FvZd1ViTCWV3WSM2JB5mHMS5Y1Y6800bzXzTKTCPSh7u3nbHfefH9b+zUeqSe2vIOKufgOol+mU6kv77ada69s22H+sMpX0cfvpysrprKUPMr1+Ifs4BLtAAAIQgAAEIDB2BHo1hNrFS1d0lL3qyq6duJvEmFQ1H5Cytxt8/ORLUfaMeHz4kyPsS7uymzrjnY0fpXzrvU7yuNW832Hpg0+vX8g+DsEuEIAABCAAAQiMHYFeDUEr+4n5h4+qruxBQFrngrdniusU8yhnfaDKrqZuVDkt2rN7ymWPdrTnqNOYik9YGazHlD11A7s7K67wOvj6VvN+H4h6/UL2cQh2gQAEIAABCEBg7Aj0aggoe5RD4gpPpceYNPQww0Q9C2kmmNp84IkxytTjB2r0OWOMufM1VlVwX6yNuJtUmdQNxu4UH2qDUfah4qVyCEAAAhCAAAQMAZS9hxljinbSJPLOi9a8KrQHZa/CKNNHCEAAAhCAwMgJ9K/sbvXmZR/5aMUbUJ388nivi7aOshdtRGgPBCAAAQhAoJQEelf2y1eO61x2lD3/E8IkzdupX+w0L/m3hCMaAig7ZwIEIAABCEAAAjkQQNnHODEmh/ODQ3QmgLJ35sOnEIAABCAAAQgMhMAhlF16rsR3IVBpAij7QC5DVAIBCEAAAhCAQGcC/Sn7hw8f7SpfR9lFpYW187lVhU9R9iqMMn2EAAQgAAEIjJxAz8p+4dLlo8fnHOG1XOEIOfIO0AAIjJAAyj5C+BwaAhCAAAQgUB0CPSv7+QuXPjh6bO/J052W03JRdqLslSaAslfnWklPIQABCEAAAiMk0LOyn7tw6YNfaWXfRdkrbasjPGuLc2iUvThjQUsgAAEIQAACJSbQh7JffB9lJ4UdApoAyl7iiyNdG2sCjnvvt0d+9uprH1+N/TXYufbxqyd+N3b9Us1+7f3f3h3An7Wdu2d/ceTs/8WYJGgYbj94/ec/P7Fw+IMeeLjE0XkLAQh0INCrsv8/TG1amZEq9DgAAAAASUVORK5CYII=;" vertex="1" parent="1">
          <mxGeometry x="-390" y="-178.12" width="685.32" height="278.12" as="geometry" />
        </mxCell>
        <mxCell id="VKCgRyMsW_sbwXQrN_D4-23" value="" style="curved=1;endArrow=classic;html=1;rounded=0;entryX=0.5;entryY=1;entryDx=0;entryDy=0;dashed=1;strokeWidth=2;fillColor=#dae8fc;strokeColor=#6c8ebf;" edge="1" parent="1" target="VKCgRyMsW_sbwXQrN_D4-22">
          <mxGeometry width="50" height="50" relative="1" as="geometry">
            <mxPoint x="20" y="160" as="sourcePoint" />
            <mxPoint x="411" y="98" as="targetPoint" />
            <Array as="points">
              <mxPoint x="-30" y="160" />
            </Array>
          </mxGeometry>
        </mxCell>
        <mxCell id="VKCgRyMsW_sbwXQrN_D4-24" value="maven runner 是1.8" style="rounded=1;whiteSpace=wrap;html=1;fontFamily=Helvetica;fontSize=11;fillColor=#dae8fc;strokeColor=#6c8ebf;labelBackgroundColor=none;" vertex="1" parent="1">
          <mxGeometry x="-95" y="210" width="110" height="53" as="geometry" />
        </mxCell>
        <mxCell id="VKCgRyMsW_sbwXQrN_D4-25" value="" style="rounded=1;whiteSpace=wrap;html=1;fillColor=none;dashed=1;" vertex="1" parent="1">
          <mxGeometry x="-240" y="1258.12" width="870" height="500" as="geometry" />
        </mxCell>
        <mxCell id="VKCgRyMsW_sbwXQrN_D4-26" value="" style="rounded=1;whiteSpace=wrap;html=1;fillColor=none;" vertex="1" parent="1">
          <mxGeometry x="-175" y="1328.12" width="410" height="310" as="geometry" />
        </mxCell>
        <mxCell id="VKCgRyMsW_sbwXQrN_D4-27" value="开发笔记本电脑" style="text;html=1;align=center;verticalAlign=middle;whiteSpace=wrap;rounded=0;fontStyle=1" vertex="1" parent="1">
          <mxGeometry x="-220" y="1218.12" width="90" height="30" as="geometry" />
        </mxCell>
        <mxCell id="VKCgRyMsW_sbwXQrN_D4-28" value="笔记本配置的 JDK 是 JVM 1.8" style="rounded=1;whiteSpace=wrap;html=1;fillColor=#dae8fc;strokeColor=#6c8ebf;" vertex="1" parent="1">
          <mxGeometry x="-175" y="1678.12" width="470" height="50" as="geometry" />
        </mxCell>
        <mxCell id="VKCgRyMsW_sbwXQrN_D4-29" value="" style="rounded=1;whiteSpace=wrap;html=1;" vertex="1" parent="1">
          <mxGeometry x="-140" y="1388.12" width="340" height="220" as="geometry" />
        </mxCell>
        <mxCell id="VKCgRyMsW_sbwXQrN_D4-30" value="Idea project" style="text;html=1;align=center;verticalAlign=middle;whiteSpace=wrap;rounded=0;fontStyle=1" vertex="1" parent="1">
          <mxGeometry x="-140" y="1358.12" width="90" height="30" as="geometry" />
        </mxCell>
        <mxCell id="VKCgRyMsW_sbwXQrN_D4-31" value="Project JDK 是 1.8" style="rounded=1;whiteSpace=wrap;html=1;fillColor=#dae8fc;strokeColor=#6c8ebf;" vertex="1" parent="1">
          <mxGeometry x="-110" y="1528.12" width="280" height="50" as="geometry" />
        </mxCell>
        <mxCell id="VKCgRyMsW_sbwXQrN_D4-34" value="&lt;div style=&quot;color: rgb(8, 8, 8);&quot;&gt;&lt;div&gt;compiler JDK 是 1.8&lt;/div&gt;&lt;/div&gt;" style="rounded=1;whiteSpace=wrap;html=1;fontFamily=Helvetica;fontSize=11;fillColor=#dae8fc;strokeColor=#6c8ebf;labelBackgroundColor=none;" vertex="1" parent="1">
          <mxGeometry x="-110" y="1438.12" width="120" height="80" as="geometry" />
        </mxCell>
        <mxCell id="VKCgRyMsW_sbwXQrN_D4-35" value="ModuleA" style="text;html=1;align=center;verticalAlign=middle;whiteSpace=wrap;rounded=0;fontStyle=1" vertex="1" parent="1">
          <mxGeometry x="-110" y="1408.12" width="60" height="30" as="geometry" />
        </mxCell>
        <mxCell id="VKCgRyMsW_sbwXQrN_D4-36" value="&lt;span style=&quot;color: rgb(8, 8, 8); font-size: 11px;&quot;&gt;compiler JDK 是 11&lt;/span&gt;" style="rounded=1;whiteSpace=wrap;html=1;fillColor=#d5e8d4;strokeColor=#82b366;labelBackgroundColor=none;" vertex="1" parent="1">
          <mxGeometry x="20" y="1438.12" width="170" height="80" as="geometry" />
        </mxCell>
        <mxCell id="VKCgRyMsW_sbwXQrN_D4-37" value="ModuleB" style="text;html=1;align=center;verticalAlign=middle;whiteSpace=wrap;rounded=0;fontStyle=1" vertex="1" parent="1">
          <mxGeometry x="50" y="1408.12" width="60" height="30" as="geometry" />
        </mxCell>
        <mxCell id="VKCgRyMsW_sbwXQrN_D4-42" value="Idea Maven" style="text;html=1;align=center;verticalAlign=middle;whiteSpace=wrap;rounded=0;fontStyle=1" vertex="1" parent="1">
          <mxGeometry x="-175" y="1298.12" width="90" height="30" as="geometry" />
        </mxCell>
        <mxCell id="VKCgRyMsW_sbwXQrN_D4-45" value="maven runner 是1.8" style="rounded=1;whiteSpace=wrap;html=1;fontFamily=Helvetica;fontSize=11;fillColor=#dae8fc;strokeColor=#6c8ebf;labelBackgroundColor=none;" vertex="1" parent="1">
          <mxGeometry x="-85" y="1298.12" width="110" height="53" as="geometry" />
        </mxCell>
        <mxCell id="VKCgRyMsW_sbwXQrN_D4-46" value="" style="rounded=1;whiteSpace=wrap;html=1;fillColor=none;" vertex="1" parent="1">
          <mxGeometry x="340" y="1444.68" width="260" height="185.32" as="geometry" />
        </mxCell>
        <mxCell id="VKCgRyMsW_sbwXQrN_D4-47" value="Maven" style="text;html=1;align=center;verticalAlign=middle;whiteSpace=wrap;rounded=0;fontStyle=1" vertex="1" parent="1">
          <mxGeometry x="340" y="1414.68" width="60" height="30" as="geometry" />
        </mxCell>
        <mxCell id="VKCgRyMsW_sbwXQrN_D4-48" value="" style="rounded=1;whiteSpace=wrap;html=1;" vertex="1" parent="1">
          <mxGeometry x="370" y="1478.12" width="210" height="131.88" as="geometry" />
        </mxCell>
        <mxCell id="VKCgRyMsW_sbwXQrN_D4-51" value="conf/toolchains.xml" style="text;html=1;align=center;verticalAlign=middle;whiteSpace=wrap;rounded=0;fontStyle=1" vertex="1" parent="1">
          <mxGeometry x="370" y="1450" width="130" height="30" as="geometry" />
        </mxCell>
        <mxCell id="VKCgRyMsW_sbwXQrN_D4-52" value="配置 jdk 1.8 安装文件路径" style="rounded=1;whiteSpace=wrap;html=1;" vertex="1" parent="1">
          <mxGeometry x="385" y="1500" width="175" height="42" as="geometry" />
        </mxCell>
        <mxCell id="VKCgRyMsW_sbwXQrN_D4-53" value="配置 jdk 11 安装文件路径" style="rounded=1;whiteSpace=wrap;html=1;fillColor=#a20025;fontColor=#ffffff;strokeColor=#6F0000;" vertex="1" parent="1">
          <mxGeometry x="385" y="1550" width="175" height="42" as="geometry" />
        </mxCell>
        <mxCell id="VKCgRyMsW_sbwXQrN_D4-54" value="maen-toolchins-plugin" style="rounded=1;whiteSpace=wrap;html=1;fillColor=#a20025;fontColor=#ffffff;strokeColor=#6F0000;" vertex="1" parent="1">
          <mxGeometry x="40" y="1485.24" width="130" height="32.88" as="geometry" />
        </mxCell>
        <mxCell id="VKCgRyMsW_sbwXQrN_D4-55" value="" style="curved=1;endArrow=classic;html=1;rounded=0;exitX=1;exitY=0.5;exitDx=0;exitDy=0;entryX=0;entryY=0.5;entryDx=0;entryDy=0;dashed=1;strokeWidth=3;" edge="1" parent="1" source="VKCgRyMsW_sbwXQrN_D4-54" target="VKCgRyMsW_sbwXQrN_D4-53">
          <mxGeometry width="50" height="50" relative="1" as="geometry">
            <mxPoint x="910" y="1440" as="sourcePoint" />
            <mxPoint x="960" y="1390" as="targetPoint" />
            <Array as="points">
              <mxPoint x="300" y="1530" />
            </Array>
          </mxGeometry>
        </mxCell>
        <mxCell id="VKCgRyMsW_sbwXQrN_D4-56" value="" style="rounded=1;whiteSpace=wrap;html=1;fillColor=none;dashed=1;" vertex="1" parent="1">
          <mxGeometry x="-1270" y="450" width="590" height="500" as="geometry" />
        </mxCell>
        <mxCell id="VKCgRyMsW_sbwXQrN_D4-57" value="" style="rounded=1;whiteSpace=wrap;html=1;fillColor=none;" vertex="1" parent="1">
          <mxGeometry x="-1205" y="520" width="410" height="310" as="geometry" />
        </mxCell>
        <mxCell id="VKCgRyMsW_sbwXQrN_D4-58" value="开发笔记本电脑" style="text;html=1;align=center;verticalAlign=middle;whiteSpace=wrap;rounded=0;fontStyle=1" vertex="1" parent="1">
          <mxGeometry x="-1250" y="410" width="90" height="30" as="geometry" />
        </mxCell>
        <mxCell id="VKCgRyMsW_sbwXQrN_D4-59" value="笔记本配置的 JDK 是 JVM 1.8" style="rounded=1;whiteSpace=wrap;html=1;fillColor=#dae8fc;strokeColor=#6c8ebf;" vertex="1" parent="1">
          <mxGeometry x="-1205" y="870" width="470" height="50" as="geometry" />
        </mxCell>
        <mxCell id="VKCgRyMsW_sbwXQrN_D4-60" value="" style="rounded=1;whiteSpace=wrap;html=1;" vertex="1" parent="1">
          <mxGeometry x="-1170" y="580" width="340" height="220" as="geometry" />
        </mxCell>
        <mxCell id="VKCgRyMsW_sbwXQrN_D4-61" value="Idea project" style="text;html=1;align=center;verticalAlign=middle;whiteSpace=wrap;rounded=0;fontStyle=1" vertex="1" parent="1">
          <mxGeometry x="-1170" y="550" width="90" height="30" as="geometry" />
        </mxCell>
        <mxCell id="VKCgRyMsW_sbwXQrN_D4-62" value="Project JDK 是 1.8" style="rounded=1;whiteSpace=wrap;html=1;fillColor=#dae8fc;strokeColor=#6c8ebf;" vertex="1" parent="1">
          <mxGeometry x="-1140" y="720" width="280" height="50" as="geometry" />
        </mxCell>
        <mxCell id="VKCgRyMsW_sbwXQrN_D4-63" value="&lt;div style=&quot;color: rgb(8, 8, 8);&quot;&gt;&lt;div&gt;compiler JDK 是 1.8&lt;/div&gt;&lt;/div&gt;" style="rounded=1;whiteSpace=wrap;html=1;fontFamily=Helvetica;fontSize=11;fillColor=#dae8fc;strokeColor=#6c8ebf;labelBackgroundColor=none;" vertex="1" parent="1">
          <mxGeometry x="-1140" y="630" width="120" height="80" as="geometry" />
        </mxCell>
        <mxCell id="VKCgRyMsW_sbwXQrN_D4-64" value="ModuleA" style="text;html=1;align=center;verticalAlign=middle;whiteSpace=wrap;rounded=0;fontStyle=1" vertex="1" parent="1">
          <mxGeometry x="-1140" y="600" width="60" height="30" as="geometry" />
        </mxCell>
        <mxCell id="VKCgRyMsW_sbwXQrN_D4-65" value="&lt;span style=&quot;color: rgb(8, 8, 8); font-size: 11px;&quot;&gt;compiler JDK 是 11&lt;/span&gt;" style="rounded=1;whiteSpace=wrap;html=1;fillColor=#d5e8d4;strokeColor=#82b366;labelBackgroundColor=none;" vertex="1" parent="1">
          <mxGeometry x="-980" y="630" width="120" height="80" as="geometry" />
        </mxCell>
        <mxCell id="VKCgRyMsW_sbwXQrN_D4-66" value="ModuleB" style="text;html=1;align=center;verticalAlign=middle;whiteSpace=wrap;rounded=0;fontStyle=1" vertex="1" parent="1">
          <mxGeometry x="-980" y="600" width="60" height="30" as="geometry" />
        </mxCell>
        <mxCell id="VKCgRyMsW_sbwXQrN_D4-67" value="Idea Maven" style="text;html=1;align=center;verticalAlign=middle;whiteSpace=wrap;rounded=0;fontStyle=1" vertex="1" parent="1">
          <mxGeometry x="-1205" y="490" width="90" height="30" as="geometry" />
        </mxCell>
        <mxCell id="VKCgRyMsW_sbwXQrN_D4-68" value="maven runner 是 11" style="rounded=1;whiteSpace=wrap;html=1;fontFamily=Helvetica;fontSize=11;fillColor=#a20025;strokeColor=#6F0000;labelBackgroundColor=none;fontColor=#ffffff;" vertex="1" parent="1">
          <mxGeometry x="-1115" y="490" width="110" height="53" as="geometry" />
        </mxCell>
      </root>
    </mxGraphModel>
  </diagram>
</mxfile>
